<svg width="306" height="119" viewBox="0 0 306 119" fill="none" xmlns="http://www.w3.org/2000/svg">
<path d="M143.585 34.9569H140.124V20.7023H135.039V34.9569H131.578V17.8184H143.585V34.9569Z" fill="white"/>
<path d="M149.847 28.9302V34.9569H146.386V17.8184H152.225C153.92 17.8184 155.269 18.3442 156.274 19.3957C157.286 20.4473 157.792 21.8127 157.792 23.492C157.792 25.1713 157.294 26.4975 156.297 27.4706C155.301 28.4437 153.92 28.9302 152.154 28.9302H149.847ZM149.847 26.0463H152.225C152.884 26.0463 153.394 25.8305 153.755 25.3989C154.116 24.9673 154.296 24.3395 154.296 23.5156C154.296 22.6602 154.112 21.9814 153.743 21.4792C153.374 20.9691 152.88 20.7102 152.26 20.7023H149.847V26.0463Z" fill="white"/>
<path d="M166.197 31.4492H161.476L160.558 34.9569H156.898L162.253 17.8184H165.42L170.811 34.9569H167.115L166.197 31.4492ZM162.23 28.5653H165.432L163.831 22.4562L162.23 28.5653Z" fill="white"/>
<path d="M172.423 34.9569V17.8184H177.72C179.51 17.8184 180.867 18.2186 181.793 19.0191C182.727 19.8116 183.194 20.977 183.194 22.515C183.194 23.3861 183.002 24.1355 182.617 24.7633C182.233 25.3911 181.707 25.8501 181.04 26.1405C181.809 26.3602 182.401 26.8036 182.817 27.4706C183.233 28.1298 183.441 28.9459 183.441 29.919C183.441 31.5826 182.982 32.8382 182.064 33.6857C181.154 34.5332 179.831 34.9569 178.097 34.9569H172.423ZM175.884 27.5059V32.0848H178.097C178.717 32.0848 179.188 31.8926 179.51 31.508C179.831 31.1235 179.992 30.5781 179.992 29.8719C179.992 28.3338 179.435 27.5452 178.321 27.5059H175.884ZM175.884 24.9869H177.685C179.043 24.9869 179.721 24.2846 179.721 22.8799C179.721 22.1031 179.565 21.5459 179.251 21.2085C178.937 20.871 178.427 20.7023 177.72 20.7023H175.884V24.9869Z" fill="white"/>
<path d="M194.353 17.8184H197.813V34.9569H194.353V23.6097L189.303 34.9569H185.831V17.8184H189.303V29.1774L194.353 17.8184Z" fill="white"/>
<path d="M211.326 20.7023H207.089V34.9569H203.616V20.7023H199.45V17.8184H211.326V20.7023Z" fill="white"/>
<path d="M222.168 27.5412H216.776V32.0848H223.156V34.9569H213.316V17.8184H223.133V20.7023H216.776V24.7515H222.168V27.5412Z" fill="white"/>
<path d="M237.175 17.8184V34.9569H233.703V20.7023H230.525L230.289 26.7761C230.195 28.7772 229.968 30.3663 229.607 31.5434C229.254 32.7126 228.732 33.5719 228.041 34.1212C227.358 34.6705 226.436 34.9491 225.275 34.9569H224.428V32.0848L224.828 32.0495C225.55 31.9632 226.068 31.4923 226.382 30.637C226.703 29.7738 226.903 28.2514 226.982 26.0699L227.205 17.8184H237.175Z" fill="white"/>
<path d="M243.426 23.9746H245.474C247.208 23.9746 248.589 24.469 249.617 25.4578C250.645 26.4387 251.159 27.7531 251.159 29.401C251.159 31.0411 250.657 32.3712 249.653 33.3914C248.648 34.4037 247.318 34.9255 245.662 34.9569H239.953V17.8184H243.426V23.9746ZM243.426 26.8467V32.0848H245.521C246.196 32.0848 246.726 31.8337 247.11 31.3315C247.503 30.8214 247.699 30.1701 247.699 29.3775C247.699 28.632 247.506 28.0278 247.122 27.5648C246.745 27.0939 246.219 26.8546 245.545 26.8467H243.426Z" fill="white"/>
<path d="M264.837 29.248C264.751 31.202 264.202 32.6812 263.189 33.6857C262.177 34.6901 260.749 35.1923 258.905 35.1923C256.966 35.1923 255.479 34.5567 254.443 33.2855C253.415 32.0063 252.901 30.1858 252.901 27.8237V24.9398C252.901 22.5857 253.435 20.7729 254.502 19.5017C255.57 18.2226 257.053 17.583 258.952 17.583C260.819 17.583 262.236 18.1049 263.201 19.1485C264.174 20.1922 264.727 21.6911 264.861 23.645H261.388C261.357 22.4366 261.169 21.6047 260.823 21.1496C260.486 20.6866 259.862 20.4551 258.952 20.4551C258.026 20.4551 257.37 20.7808 256.986 21.4321C256.601 22.0756 256.397 23.1389 256.374 24.622V27.859C256.374 29.5619 256.562 30.7312 256.939 31.3668C257.323 32.0024 257.979 32.3202 258.905 32.3202C259.815 32.3202 260.443 32.1005 260.788 31.6611C261.133 31.2138 261.329 30.4094 261.377 29.248H264.837Z" fill="white"/>
<path d="M277.715 20.7023H273.477V34.9569H270.005V20.7023H265.838V17.8184H277.715V20.7023Z" fill="white"/>
<path d="M279.704 34.9569V17.8184H285.001C286.79 17.8184 288.148 18.2186 289.074 19.0191C290.007 19.8116 290.474 20.977 290.474 22.515C290.474 23.3861 290.282 24.1355 289.898 24.7633C289.513 25.3911 288.987 25.8501 288.32 26.1405C289.089 26.3602 289.682 26.8036 290.098 27.4706C290.514 28.1298 290.722 28.9459 290.722 29.919C290.722 31.5826 290.262 32.8382 289.344 33.6857C288.434 34.5332 287.112 34.9569 285.377 34.9569H279.704ZM283.165 27.5059V32.0848H285.377C285.997 32.0848 286.468 31.8926 286.79 31.508C287.112 31.1235 287.273 30.5781 287.273 29.8719C287.273 28.3338 286.715 27.5452 285.601 27.5059H283.165ZM283.165 24.9869H284.966C286.323 24.9869 287.002 24.2846 287.002 22.8799C287.002 22.1031 286.845 21.5459 286.531 21.2085C286.217 20.871 285.707 20.7023 285.001 20.7023H283.165V24.9869Z" fill="white"/>
<path d="M305.306 27.9297C305.306 30.2289 304.76 32.0142 303.67 33.2855C302.587 34.5567 301.08 35.1923 299.15 35.1923C297.227 35.1923 295.716 34.5646 294.618 33.309C293.519 32.0456 292.962 30.2799 292.946 28.0121V25.0811C292.946 22.7269 293.492 20.8906 294.582 19.5723C295.673 18.2461 297.188 17.583 299.126 17.583C301.033 17.583 302.536 18.2343 303.634 19.537C304.733 20.8318 305.29 22.6524 305.306 24.9987V27.9297ZM301.833 25.0576C301.833 23.5116 301.614 22.362 301.174 21.6087C300.735 20.8553 300.052 20.4787 299.126 20.4787C298.208 20.4787 297.529 20.8436 297.09 21.5734C296.65 22.2953 296.423 23.3979 296.407 24.881V27.9297C296.407 29.4285 296.631 30.535 297.078 31.2491C297.525 31.9553 298.216 32.3085 299.15 32.3085C300.052 32.3085 300.723 31.9632 301.162 31.2726C301.602 30.5742 301.825 29.4952 301.833 28.0356V25.0576Z" fill="white"/>
<path d="M135.015 55.4478V61.4745H131.555V44.336H137.393C139.088 44.336 140.438 44.8618 141.442 45.9133C142.455 46.9649 142.961 48.3303 142.961 50.0096C142.961 51.6889 142.462 53.0151 141.466 53.9882C140.469 54.9613 139.088 55.4478 137.323 55.4478H135.015ZM135.015 52.5639H137.393C138.052 52.5639 138.562 52.3481 138.923 51.9165C139.284 51.4849 139.465 50.8571 139.465 50.0332C139.465 49.1778 139.28 48.499 138.912 47.9968C138.543 47.4867 138.048 47.2277 137.428 47.2199H135.015V52.5639Z" fill="white"/>
<path d="M154.131 54.0588H148.74V58.6024H155.12V61.4745H145.28V44.336H155.097V47.2199H148.74V51.2691H154.131V54.0588Z" fill="white"/>
<path d="M168.739 55.7656C168.653 57.7196 168.104 59.1988 167.091 60.2033C166.079 61.2077 164.651 61.7099 162.807 61.7099C160.868 61.7099 159.381 61.0743 158.345 59.803C157.317 58.5239 156.803 56.7034 156.803 54.3413V51.4574C156.803 49.1032 157.337 47.2905 158.404 46.0193C159.472 44.7402 160.955 44.1006 162.854 44.1006C164.721 44.1006 166.138 44.6224 167.103 45.6661C168.076 46.7098 168.629 48.2087 168.763 50.1626H165.29C165.259 48.9542 165.071 48.1223 164.725 47.6672C164.388 47.2042 163.764 46.9727 162.854 46.9727C161.928 46.9727 161.272 47.2984 160.888 47.9497C160.503 48.5932 160.299 49.6565 160.276 51.1396V54.3766C160.276 56.0795 160.464 57.2487 160.841 57.8844C161.225 58.52 161.881 58.8378 162.807 58.8378C163.717 58.8378 164.345 58.6181 164.69 58.1786C165.035 57.7314 165.231 56.927 165.279 55.7656H168.739Z" fill="white"/>
<path d="M182.9 61.4745H179.439V47.2199H174.354V61.4745H170.893V44.336H182.9V61.4745Z" fill="white"/>
<path d="M191.116 51.9518L193.423 44.336H197.142L192.446 58.108C191.912 59.4735 191.335 60.4112 190.716 60.9213C190.103 61.4314 189.366 61.6982 188.503 61.7217H188.126L187.302 61.6746L187.243 58.8025C187.322 58.8339 187.577 58.8496 188.008 58.8496C188.448 58.8496 188.777 58.7515 188.997 58.5553C189.225 58.3591 189.421 57.9197 189.586 57.237L189.75 56.6131L184.854 44.336H188.561L191.116 51.9518Z" fill="white"/>
<path d="M208.584 47.2199H202.439V50.4922H204.488C206.222 50.4922 207.603 50.9866 208.631 51.9754C209.659 52.9563 210.173 54.2707 210.173 55.9186C210.173 57.5587 209.671 58.8888 208.666 59.909C207.662 60.9213 206.332 61.4431 204.676 61.4745H198.967V44.336H208.584V47.2199ZM202.439 53.3643V58.6024H204.535C205.209 58.6024 205.739 58.3513 206.124 57.8491C206.516 57.339 206.712 56.6877 206.712 55.8951C206.712 55.1496 206.52 54.5453 206.135 54.0824C205.759 53.6115 205.233 53.3722 204.558 53.3643H202.439Z" fill="white"/>
<path d="M224.157 44.336V61.4745H220.684V47.2199H217.506L217.271 53.2937C217.177 55.2948 216.949 56.8838 216.588 58.0609C216.235 59.2302 215.713 60.0895 215.023 60.6388C214.34 61.1881 213.418 61.4667 212.256 61.4745H211.409V58.6024L211.809 58.5671C212.531 58.4808 213.049 58.0099 213.363 57.1546C213.685 56.2914 213.885 54.769 213.963 52.5874L214.187 44.336H224.157Z" fill="white"/>
<path d="M235.339 44.336H238.8V61.4745H235.339V50.1273L230.289 61.4745H226.817V44.336H230.289V55.695L235.339 44.336Z" fill="white"/>
<path d="M246.557 54.4826H245.05V61.4745H241.59V44.336H245.05V51.1867H246.216L249.194 44.336H253.408L249.217 52.3167L253.878 61.4745H249.759L246.557 54.4826Z" fill="white"/>
<path d="M263.566 44.336H267.027V61.4745H263.566V50.1273L258.516 61.4745H255.044V44.336H258.516V55.695L263.566 44.336Z" fill="white"/>
<path d="M141.16 73.7375H135.015V77.0098H137.064C138.798 77.0098 140.179 77.5042 141.207 78.493C142.235 79.4739 142.749 80.7883 142.749 82.4362C142.749 84.0763 142.247 85.4064 141.242 86.4266C140.238 87.4389 138.908 87.9607 137.252 87.9921H131.543V70.8536H141.16V73.7375ZM135.015 79.8819V85.12H137.111C137.785 85.12 138.315 84.8689 138.7 84.3667C139.092 83.8566 139.288 83.2053 139.288 82.4127C139.288 81.6672 139.096 81.0629 138.711 80.5999C138.335 80.1291 137.809 79.8898 137.134 79.8819H135.015Z" fill="white"/>
<path d="M152.895 84.4844H148.175L147.257 87.9921H143.596L148.952 70.8536H152.119L157.51 87.9921H153.814L152.895 84.4844ZM148.929 81.6005H152.13L150.53 75.4914L148.929 81.6005Z" fill="white"/>
<path d="M162.595 70.8536V85.12H166.079V70.8536H169.54V85.12H172.977V70.8536H176.437V87.9921H159.122V70.8536H162.595Z" fill="white"/>
<path d="M184.194 81.0002H182.688V87.9921H179.227V70.8536H182.688V77.7043H183.853L186.831 70.8536H191.045L186.855 78.8343L191.516 87.9921H187.396L184.194 81.0002Z" fill="white"/>
<path d="M204.499 80.9648C204.499 83.2641 203.954 85.0494 202.863 86.3206C201.78 87.5919 200.274 88.2275 198.343 88.2275C196.421 88.2275 194.91 87.5997 193.811 86.3442C192.713 85.0808 192.156 83.3151 192.14 81.0472V78.1163C192.14 75.7621 192.685 73.9258 193.776 72.6075C194.867 71.2813 196.381 70.6182 198.32 70.6182C200.226 70.6182 201.729 71.2695 202.828 72.5722C203.926 73.867 204.484 75.6875 204.499 78.0339V80.9648ZM201.027 78.0927C201.027 76.5468 200.807 75.3972 200.368 74.6438C199.928 73.8905 199.246 73.5138 198.32 73.5138C197.401 73.5138 196.723 73.8787 196.283 74.6085C195.844 75.3305 195.616 76.433 195.6 77.9162V80.9648C195.6 82.4637 195.824 83.5702 196.271 84.2843C196.719 84.9905 197.409 85.3436 198.343 85.3436C199.246 85.3436 199.916 84.9984 200.356 84.3078C200.795 83.6094 201.019 82.5304 201.027 81.0708V78.0927Z" fill="white"/>
<path d="M210.444 81.9654V87.9921H206.983V70.8536H212.821C214.516 70.8536 215.866 71.3794 216.871 72.4309C217.883 73.4824 218.389 74.8479 218.389 76.5272C218.389 78.2065 217.891 79.5327 216.894 80.5058C215.898 81.4788 214.516 81.9654 212.751 81.9654H210.444ZM210.444 79.0815H212.821C213.481 79.0815 213.991 78.8657 214.352 78.4341C214.713 78.0025 214.893 77.3747 214.893 76.5507C214.893 75.6954 214.709 75.0166 214.34 74.5144C213.971 74.0043 213.477 73.7453 212.857 73.7375H210.444V79.0815Z" fill="white"/>
<path d="M231.808 73.7375H227.57V87.9921H224.098V73.7375H219.931V70.8536H231.808V73.7375Z" fill="white"/>
<path d="M245.533 80.9648C245.533 83.2641 244.987 85.0494 243.897 86.3206C242.814 87.5919 241.307 88.2275 239.377 88.2275C237.454 88.2275 235.943 87.5997 234.845 86.3442C233.746 85.0808 233.189 83.3151 233.173 81.0472V78.1163C233.173 75.7621 233.719 73.9258 234.81 72.6075C235.9 71.2813 237.415 70.6182 239.353 70.6182C241.26 70.6182 242.763 71.2695 243.861 72.5722C244.96 73.867 245.517 75.6875 245.533 78.0339V80.9648ZM242.06 78.0927C242.06 76.5468 241.841 75.3972 241.401 74.6438C240.962 73.8905 240.279 73.5138 239.353 73.5138C238.435 73.5138 237.756 73.8787 237.317 74.6085C236.877 75.3305 236.65 76.433 236.634 77.9162V80.9648C236.634 82.4637 236.858 83.5702 237.305 84.2843C237.752 84.9905 238.443 85.3436 239.377 85.3436C240.279 85.3436 240.95 84.9984 241.389 84.3078C241.829 83.6094 242.053 82.5304 242.06 81.0708V78.0927Z" fill="white"/>
<path d="M259.634 82.2832C259.548 84.2372 258.999 85.7164 257.986 86.7208C256.974 87.7253 255.546 88.2275 253.702 88.2275C251.764 88.2275 250.277 87.5919 249.241 86.3206C248.213 85.0415 247.699 83.2209 247.699 80.8589V77.975C247.699 75.6208 248.232 73.8081 249.3 72.5368C250.367 71.2577 251.85 70.6182 253.749 70.6182C255.617 70.6182 257.033 71.14 257.998 72.1837C258.971 73.2274 259.525 74.7262 259.658 76.6802H256.186C256.154 75.4717 255.966 74.6399 255.621 74.1848C255.283 73.7218 254.659 73.4903 253.749 73.4903C252.823 73.4903 252.168 73.816 251.783 74.4673C251.399 75.1108 251.195 76.1741 251.171 77.6572V80.8942C251.171 82.5971 251.359 83.7663 251.736 84.402C252.121 85.0376 252.776 85.3554 253.702 85.3554C254.612 85.3554 255.24 85.1357 255.585 84.6962C255.931 84.2489 256.127 83.4446 256.174 82.2832H259.634Z" fill="white"/>
<path d="M272.512 73.7375H268.274V87.9921H264.802V73.7375H260.635V70.8536H272.512V73.7375Z" fill="white"/>
<path d="M281.269 84.4844H276.549L275.631 87.9921H271.97L277.326 70.8536H280.493L285.884 87.9921H282.188L281.269 84.4844ZM277.303 81.6005H280.504L278.903 75.4914L277.303 81.6005Z" fill="white"/>
<path d="M299.514 87.9921H296.066V80.6588H290.957V87.9921H287.496V70.8536H290.957V77.7867H296.066V70.8536H299.514V87.9921Z" fill="white"/>
<path d="M37.1618 116.495L27.976 102.987L20.6814 99.4743L13.9271 91.6394L1.76953 64.6224L2.30967 45.1701L15.278 20.3144L27.976 8.69702L40.9441 3.56406L57.4245 1.94289L68.2313 2.75348L77.4172 5.45518L85.7925 11.399L96.5993 20.3144L103.353 30.851L106.866 38.6859L109.027 50.0331L108.487 61.3803L104.704 75.159L100.652 83.5343L96.5993 92.45L92.8168 95.962L88.224 100.015L83.6311 102.176L82.01 104.338L79.5785 107.85L76.6066 113.523L65.7998 108.39L55.2632 107.85L44.4564 109.741L37.1618 116.495Z" fill="white"/>
<path d="M47.6418 102.977C46.6151 109.775 35.0739 106.801 32.932 113.527C32.1001 111.987 30.2237 110.022 29.8697 108.358C29.4625 101.048 48.6862 96.1621 47.6418 102.977Z" fill="url(#paint0_linear_135_4588)"/>
<path d="M42.2281 94.7079C37.9443 93.5217 19.9241 93.1502 19.4816 100.461C18.2956 99.3988 16.5608 98.3013 15.959 96.8675C17.2866 87.9811 38.2453 92.4598 43.715 94.4424C43.3608 94.4424 42.5819 94.6017 42.2281 94.7079Z" fill="url(#paint1_linear_135_4588)"/>
<path d="M66.1872 102.219C65.9924 95.7576 83.5701 100.342 81.4988 108.361C80.8972 109.547 79.7463 111.441 79.1622 112.627C77.8876 106.025 66.3819 108.662 66.1872 102.219Z" fill="url(#paint2_linear_135_4588)"/>
<path d="M90.9676 101C90.9676 96.2203 87.8344 95.1759 83.2322 94.3265C78.6121 93.7244 73.6555 92.68 69.1416 93.9725C68.5222 93.9725 68.1328 94.0256 68.1328 93.707L69.9381 92.9281C74.1688 91.4412 94.3132 87.9185 94.8442 95.7249C94.5964 97.7075 92.2421 99.5308 90.9676 101Z" fill="url(#paint3_linear_135_4588)"/>
<path fill-rule="evenodd" clip-rule="evenodd" d="M52.0013 70.1413C57.3865 69.1357 63.3701 70.3734 68.7666 74.6899L67.7193 74.8312H67.7195L50.7988 77.1191L50.0696 76.7651L49.6507 77.2745L44.2224 78.0082L43.5672 77.1017L42.5717 77.8661L42.2588 78.2737L38.375 78.7988C41.6053 74.458 46.6161 71.1468 52.0013 70.1413Z" fill="#FFF200"/>
<path fill-rule="evenodd" clip-rule="evenodd" d="M98.0908 91.2285C97.4221 90.2235 96.7858 89.7974 95.7414 89.1006C96.9537 87.8883 97.1037 85.4509 97.1037 83.8897C103.15 79.5833 97.5588 76.4617 96.5262 79.3773C95.319 77.7785 95.5728 75.125 97.6394 74.5377C96.6889 72.7107 98.0925 70.7564 100.465 70.9278C99.1608 72.6901 100.982 74.5991 102.854 73.8957C104.725 73.1926 104.222 68.2541 103.27 66.5098C104.574 65.088 105.882 63.7033 105.408 61.2153C105.171 60.5048 105.234 59.568 103.876 59.3633C102.519 59.1585 101.33 60.2653 101.793 61.6529C99.1699 60.7413 99.7943 58.162 100.814 56.8587C99.6363 55.7639 100.352 52.2969 102.193 52.8818C102.193 55.9901 105.063 56.3205 105.828 53.4898C105.828 50.8832 104.631 49.8912 102.979 48.1171C103.69 46.8138 104.612 45.101 104.256 43.3242C103.92 41.0554 99.768 40.1993 100.369 43.8781C98.645 44.2628 97.2908 41.8955 98.1267 39.9862C97.5762 40.2468 95.5755 36.7357 98.3217 35.4275C98.0212 37.5296 100.608 37.6722 101.556 35.7759C102.267 34.4729 101.668 33.1426 100.838 32.195C99.891 30.8915 98.3755 30.1252 96.954 29.4144C97.3095 26.8079 97.4477 24.31 95.5524 23.1257C92.4787 22.1956 91.0864 25.064 93.8083 26.6195C93.6903 26.9748 92.2773 27.7704 91.8036 27.6519C90.382 27.4149 89.1087 25.243 88.828 24.3442C88.558 23.4797 84.114 22.679 86.1614 19.2842C87.6275 20.2288 88.991 20.3876 89.3959 18.0709C89.8008 15.754 86.0388 15.3154 84.1971 15.1108C83.6045 13.0434 82.5754 10.9124 80.2068 10.1522C78.7848 10.0334 78.1434 10.8386 77.5509 11.7861C77.2069 13.5064 78.0251 13.6436 79.2096 14.2356C77.3534 17.0327 75.0149 14.2179 74.426 13.4206C72.8019 13.5079 69.9849 13.7753 70.4036 10.4408C72.9202 11.2639 74.31 8.13764 71.9336 6.86535C70.038 5.91757 68.125 7.04457 66.348 7.51858C64.8077 5.85979 63.0282 3.99129 59.9481 4.70231C57.628 5.73785 58.2793 9.1422 60.798 8.63721C60.6321 10.8669 57.97 11.1228 56.2151 9.81781C54.9983 11.0345 51.4037 11.0975 51.6343 8.54575C53.7041 8.55583 54.5081 5.39882 52.5781 5.06888C50.6482 4.73919 48.2956 6.41173 47.3181 8.08748C45.7778 7.25821 43.7178 6.4796 41.5852 6.83462C40.6374 7.19012 39.5938 8.14452 39.9218 9.66439C40.25 11.1843 41.5515 10.4369 42.3801 10.4452C42.7513 13.0444 40.4253 13.456 38.5022 13.3254C37.6845 16.0807 34.894 15.636 33.9871 14.2621C35.3602 14.0332 36.3618 12.9952 35.7078 11.6863C35.2335 10.857 34.8994 10.5268 33.9517 10.5268C31.4774 10.7164 30.1515 13.1597 29.8518 15.2655C27.482 14.91 24.3579 14.8869 23.0546 16.6639C21.1158 18.6452 24.114 21.3605 26.2301 19.018C28.2486 22.456 25.0185 22.7522 23.5724 23.2287C23.3693 25.4714 21.7737 28.2274 19.4076 25.9407C21.7813 24.0088 18.7991 21.4905 16.9584 23.272C15.1177 25.0537 15.4457 27.1934 15.4331 28.9704C13.7146 29.4449 11.7266 30.2865 10.7754 31.5829C9.57217 34.392 12.6355 37.018 14.253 33.7813C16.3428 34.7246 14.3383 38.5632 13.2743 38.5686C13.8918 40.0398 13.7869 43.4761 10.8305 42.9217C12.0556 39.7027 7.89667 37.819 6.91645 41.2895C6.20593 43.3035 6.80335 45.3726 7.75113 46.7944C5.95417 48.4448 4.08174 50.6143 4.85889 53.3944C5.21415 53.7496 5.98195 54.2581 6.45571 54.4951C8.09729 54.8727 8.57007 52.6499 8.71832 51.5406C12.1355 53.1721 9.53579 55.9353 9.99726 56.6842C11.0525 57.9154 11.1747 61.1184 9.16578 61.6207C9.04776 60.7912 8.91672 59.4348 7.625 59.2531C6.33328 59.0714 4.8552 60.0846 5.36633 62.0426C5.87746 64.0001 6.21896 63.9688 7.69187 65.3053C7.25941 66.7473 6.2696 68.0727 6.63593 70.4538C7.4652 71.283 7.5896 72.3378 9.36664 71.8638C10.1199 71.51 10.8531 71.1004 10.4477 69.107C11.3954 68.9885 12.5996 70.2672 12.9549 70.9782C13.4287 71.9259 12.9878 72.5544 14.2181 73.7713C14.9289 74.3636 15.4075 75.2595 15.4075 76.3258C15.4075 76.7995 15.1231 77.7861 15.0046 78.1417C14.1313 77.7114 12.9153 76.5111 11.4367 78.0949C9.95817 79.6787 12.8784 83.2813 15.4363 83.3233C15.0808 85.1006 15.7168 87.2766 16.1911 88.9354C15.2846 89.4793 13.4675 90.012 13.0999 91.1149C8.08352 84.0562 4.71236 79.903 1.85527 68.0795C-1.79715 52.9661 1.70211 38.1492 9.37918 25.8235C19.8189 9.06156 40.1027 -1.31204 61.1894 0.689217C92.8455 4.02055 114.264 31.0029 110.525 62.4544C109.299 71.757 104.77 84.1521 98.0908 91.2285Z" fill="#FBBD09"/>
<path fill-rule="evenodd" clip-rule="evenodd" d="M95.1326 15.8372C110.889 31.1202 116.102 56.4731 107.453 76.85C105.321 82.0626 102.478 86.683 98.9235 91.1851C98.6867 91.3036 98.5682 91.7773 98.3315 91.7773C98.2127 91.4216 98.0945 91.1851 97.9757 90.8296C98.3315 90.4741 98.6867 90.0001 99.042 89.645C104.847 82.0626 108.875 73.1772 110.297 62.3964C112.311 45.4553 106.861 31.8308 98.5682 21.0498C92.2891 12.8756 83.4041 7.42572 73.6892 3.75314C69.7796 2.44986 65.6332 1.50208 61.1311 1.02832C55.5632 0.554314 49.1659 0.909813 44.19 2.09459C31.2765 5.17466 20.614 12.0461 12.795 21.998C11.2548 24.2486 9.47771 26.3811 8.17468 28.7507C2.36955 39.0579 -1.30303 53.8667 2.25105 67.9646C3.67258 75.0727 6.75266 81.2334 10.4257 86.92C11.2548 88.223 12.321 89.4078 13.2688 90.8296C12.9652 91.1335 12.9162 91.5376 12.6765 91.7773C12.576 91.1344 9.7275 87.7837 9.24096 86.92C3.67258 77.9163 0 67.7276 0 56.4731C0 38.5839 8.52994 22.3533 20.614 12.6383C30.8027 4.1084 45.2563 -1.10422 60.8941 0.199059C74.1632 1.38359 85.6547 6.95196 95.1326 15.8372Z" fill="#E08517"/>
<path fill-rule="evenodd" clip-rule="evenodd" d="M96.1459 89.04C95.9087 88.922 95.6771 88.9269 95.4398 88.8084C96.4088 86.8721 96.3517 85.7306 96.5555 83.4869C97.8586 82.7764 99.7516 82.0501 99.5842 79.9328C99.4173 77.8158 97.0657 78.1772 96.8306 80.1384C95.9067 79.7669 94.2538 76.2811 96.9919 74.3475C96.5518 71.6964 99.2681 69.6458 101.08 70.7231C100.11 71.5214 100.234 73.8668 102.511 73.5662C104.787 73.265 103.879 67.6774 102.629 66.2699C103.5 65.3433 105.56 64.4577 104.849 60.8589C104.362 58.4004 101.267 59.7592 102.278 61.935C99.3991 61.7479 98.8833 58.008 100.391 57.0754C98.5829 53.7235 101.596 51.6157 102.877 52.2663C102.062 54.9456 104.406 55.8385 105.276 53.8953C106.147 51.9521 103.848 49.1604 102.361 48.3011C103.138 46.9413 104.448 44.6236 103.646 42.9968C102.843 41.37 99.8539 41.4019 101.1 44.2514C98.3429 44.615 97.2275 41.9711 97.5839 40.3081C96.0589 38.6715 96.1184 35.4323 98.7754 34.6284C98.2886 36.4578 100.701 37.6998 101.384 35.1132C102.066 32.5268 97.6395 30.0958 96.437 29.8197C96.3475 28.8739 97.3676 24.0623 95.1237 23.3682C92.8798 22.6739 91.8624 25.5581 94.5417 26.1715C93.3693 29.7703 88.4996 27.6026 88.4996 24.5513C84.5079 24.0522 84.338 19.0151 86.4856 18.2094C86.4856 20.209 89.2123 20.0374 89.2374 17.8075C89.262 15.5778 85.1039 15.4726 83.6422 15.9584C83.537 13.5606 82.3894 11.456 80.1926 10.8252C77.9962 10.1948 76.5675 13.5379 79.9072 13.7236C78.8645 16.3304 76.1707 16.2746 74.2897 13.9933C71.8773 14.1226 69.2042 12.7677 70.3516 9.68343C71.7918 11.1094 73.709 9.39972 72.7496 7.92336C71.7903 6.44724 67.6612 7.25782 66.2335 8.21051C65.2658 6.62524 61.9524 4.4246 60.0915 5.25141C58.2309 6.07797 59.0789 9.20229 60.9326 7.82698C62.1162 10.5759 58.9417 11.7816 56.2729 10.3669C54.6948 11.3572 50.5979 11.2092 51.2742 7.71439C53.6855 8.97735 54.561 4.77789 51.1835 5.37188C49.8116 5.61306 48.647 7.174 47.4622 8.83253C46.1936 8.10357 42.4625 5.91055 40.6188 8.11784C39.6239 9.30875 40.9535 11.1878 42.5616 9.62836C43.8686 11.8039 41.5745 14.2438 38.814 13.8045C38.2456 15.9921 34.2991 16.8147 33.4777 13.8937C36.5976 13.6456 35.5746 10.7721 33.7612 10.9845C31.9478 11.1972 30.3566 13.6769 30.1444 15.9604C28.4856 15.4923 26.4067 15.6324 24.6764 16.0516C22.9463 16.4705 22.3813 18.5534 23.5174 19.3023C24.6538 20.0511 25.6618 19.0517 26.0165 18.2291C27.0594 18.6746 27.4919 20.3265 27.2057 21.5268C26.9154 22.7457 25.3822 23.3058 24.1697 23.5408C24.0512 24.7256 23.3665 26.3519 22.3762 26.9262C21.3858 27.5006 19.8591 27.308 18.8963 25.9745C19.9102 25.3931 20.5583 23.5226 19.1471 23.1583C17.7359 22.7939 17.0482 23.5059 16.5179 24.5604C15.9876 25.6148 15.4543 27.922 15.995 29.4411C14.776 29.3759 11.9371 30.4511 11.3247 31.7573C10.7123 33.0638 11.132 34.5524 12.2914 34.8514C13.4511 35.1501 13.7914 33.5983 13.9096 32.8875C16.2912 34.164 15.9606 36.7002 13.8624 38.7049C14.4584 40.7467 13.5566 44.2396 10.2528 43.3255C10.73 42.3399 11.0086 40.0279 9.26003 40.0148C7.51176 40.0015 7.31261 41.7174 7.22829 42.97C7.14396 44.2226 7.86382 46.2718 8.54508 47.0133C6.43245 48.0712 3.69584 52.3725 6.22569 53.7768C8.07452 54.803 8.77447 51.8724 7.70205 51.2632C8.82856 50.9982 9.99956 51.4141 10.6358 52.5551C11.2724 53.6959 10.6208 55.6296 10.3226 56.3531C10.5953 56.9938 11.2851 58.2841 11.2055 59.3823C11.1258 60.4808 10.2658 61.8866 8.81479 62.2804C9.15063 60.7529 7.80285 59.0143 6.39017 59.9736C4.97724 60.9327 6.08088 63.8419 8.64982 65.0055C7.64034 66.4199 6.64709 68.6901 7.35785 70.2061C8.53943 72.7266 11.665 71.1696 9.36083 68.5596C10.3084 68.3228 11.7365 68.6545 12.7077 69.4766C13.6788 70.2988 13.8878 71.3427 13.8878 72.8827C15.8096 74.3731 16.7574 76.5334 14.836 79.1825C14.5228 77.5832 11.636 76.3038 11.4681 79.4517C11.9266 82.4337 15.6788 82.6404 16.2322 82.9003C15.4027 84.6773 16.0884 86.8797 16.5622 88.657C16.2971 88.922 16.0289 88.892 15.7582 88.9368C15.2842 87.278 14.8102 85.2642 15.166 83.4869C13.1173 83.3197 10.134 82.0098 10.6238 78.7023C10.9301 76.6322 13.8482 75.7024 14.8677 77.8227C15.6687 75.5514 14.5747 74.3743 12.9444 73.4821C13.2269 72.2558 13.0519 69.9767 10.8224 69.4289C11.947 72.7231 7.39965 73.6151 6.40934 69.9767C6.0086 68.504 7.15871 65.6157 7.58355 65.3608C5.98598 64.5403 4.1133 61.967 5.39544 59.9598C6.67757 57.9524 9.30429 58.5946 9.45622 61.0826C11.5325 59.4521 9.69765 56.938 9.49679 56.4355C9.68217 55.8907 11.3173 52.8694 8.87699 51.9491C9.0872 52.9411 8.5173 54.4264 7.54569 54.6476C5.81437 55.042 4.28786 53.7957 4.47914 51.6037C4.64091 49.7573 5.99581 47.8999 7.46283 46.8191C6.57062 45.342 6.24904 43.6486 6.50252 41.9716C6.75624 40.2944 7.81465 39.2989 9.14768 39.2551C10.4805 39.2109 11.8351 40.2538 11.1657 42.8104C13.6426 42.6192 13.5598 39.6733 12.8916 38.3961C13.5077 38.2727 15.8435 35.7301 14.3089 34.0624C14.0377 35.0254 13.4499 35.8075 12.0104 35.5734C10.5712 35.3391 9.76551 32.9185 10.6978 31.4357C11.6298 29.953 13.2026 29.2488 15.117 28.7298C14.7603 26.9528 15.2921 25.0617 15.9692 23.8744C16.6463 22.6874 18.2465 21.9526 19.7556 22.6786C21.2649 23.4046 20.5074 25.5249 19.8323 26.0557C20.4464 26.6445 21.3192 26.7859 22.1485 26.1956C22.9775 25.605 23.3613 24.2071 23.4795 22.904C24.3341 22.7516 25.9924 22.4799 26.4023 21.4879C26.8119 20.4956 26.4438 19.5144 26.2299 19.2757C25.4366 20.6965 22.8895 20.5212 22.3926 19.2757C21.8955 18.0302 22.3029 16.7764 23.2632 15.9427C24.2238 15.1092 27.0336 14.6829 29.6195 15.0578C29.9406 13.2171 31.4428 10.4188 33.9515 10.2718C36.4604 10.1252 37.2691 14.0083 34.3815 14.3952C36.1969 16.2261 38.1586 14.1543 38.4093 13.0236C39.8092 13.5711 42.5077 12.4557 42.3563 10.5631C40.4458 11.7717 39.3994 9.82726 39.5506 8.80327C39.7018 7.77928 40.4971 7.01247 41.9098 6.5328C43.3223 6.05338 45.7103 7.00902 47.2714 7.90246C48.1009 6.48092 49.5242 4.91508 50.8973 4.65668C55.2676 3.83356 54.7238 9.22073 51.8202 8.61691C51.9375 10.5965 55.1012 10.4726 56.238 9.49289C57.9268 10.5164 60.3814 10.5889 60.4466 8.88391C57.7252 9.34612 57.4811 5.00137 60.0352 4.40075C62.5226 3.81561 64.9236 5.43875 66.4636 7.09729C68.1998 6.36415 71.959 5.66002 73.2711 7.36822C74.5832 9.07667 73.1059 11.7113 70.7385 10.6981C70.4034 12.4188 72.9554 13.5761 74.6135 13.1392C75.3397 14.2834 77.1448 15.9749 78.9907 14.2054C75.8742 13.6985 77.2874 9.56738 79.9876 9.99615C82.6881 10.4252 83.7605 12.6411 84.353 14.8921C85.8724 14.8139 89.4024 14.8287 89.928 17.3504C90.4537 19.8722 87.8257 21.3515 86.1925 19.5053C84.9273 22.4846 88.2183 24.1198 89.3286 23.8117C88.6638 25.6911 91.691 28.5867 93.4956 26.6209C90.5604 24.7885 92.8284 21.5848 95.4893 22.593C97.3848 23.7776 97.6218 26.6209 97.2665 29.2274C100.638 30.9037 102.568 33.3271 101.994 35.2123C101.039 38.344 98.3535 37.6504 98.1644 35.6801C96.5646 36.9859 97.3312 39.4346 98.4511 39.7712C97.9205 41.3825 98.4941 43.4327 100.228 43.6166C99.6231 40.2897 103.662 40.7067 104.381 42.7288C105.101 44.7507 104.196 46.3994 103.545 48.0644C105.298 49.8576 106.603 51.8697 106.098 54.0266C105.594 56.1837 101.733 56.6302 102.005 53.0402C100.128 53.3829 100.209 55.9654 101.408 57.0486C100.154 57.9337 99.6049 59.9195 101.435 60.9944C101.304 58.4739 104.839 57.8624 105.438 60.5061C106.037 63.1498 105.383 65.2125 103.751 66.4032C104.754 68.3378 105.353 73.0408 103.1 74.096C100.847 75.1509 98.8226 72.5702 100.09 71.1179C98.0852 71.2261 97.4618 73.014 97.7961 74.79C96.8053 75.1143 95.3661 76.4564 96.5376 78.8518C97.6877 76.6524 100.199 77.7132 100.347 79.8143C100.495 81.9156 98.9248 83.2502 97.3848 84.0794C97.3049 85.4506 97.0743 87.7586 96.1459 89.04Z" fill="#E08517"/>
<path fill-rule="evenodd" clip-rule="evenodd" d="M40.8743 34.3193C40.5191 34.5561 40.1638 35.2669 39.5713 35.0299C39.0975 32.8976 38.0312 31.002 38.1498 28.751C38.505 27.9217 38.8603 29.225 39.0975 29.58C39.808 31.1205 39.6898 33.0161 40.8743 34.3193ZM49.2862 33.1346C48.4565 33.3713 48.9305 32.7791 49.049 32.3051C49.9968 31.3573 49.4043 32.7791 49.2862 33.1346ZM47.1537 33.7268C46.5612 33.8451 46.5612 34.6746 46.0874 34.7931C45.9687 34.5561 46.2054 34.3193 45.8502 34.3193C45.8502 34.2006 45.9687 34.0821 45.9687 33.9636C46.4427 33.8451 46.6794 33.4898 47.1537 33.3713C47.2717 33.4898 47.1537 33.6083 47.1537 33.7268ZM49.76 33.8451C49.6413 34.2006 49.049 33.9636 48.6935 33.9636C48.575 33.8451 48.2197 33.8451 48.4565 33.6083C48.9305 33.6083 49.5228 33.6083 49.76 33.8451ZM48.9305 34.5561C48.9305 34.7931 48.4565 34.6746 48.338 34.9116C48.575 35.2669 49.1675 35.2669 48.9305 35.9776C48.9305 36.2146 48.1012 35.9776 48.4565 36.4519C48.338 36.5702 47.6275 36.8072 48.1012 37.0439C48.1012 37.3994 47.5087 36.8072 47.1537 36.8072C46.7979 36.8072 46.5612 36.2146 46.6794 35.8594C46.9164 35.3856 47.0349 36.3331 47.5087 35.9776C47.5087 35.3856 47.5087 34.6746 47.9827 34.2006C48.338 34.0821 48.6935 34.4376 48.9305 34.5561ZM67.5302 47.4696C67.2211 47.4696 67.0173 47.3779 66.7584 47.1965C67.1452 47.1965 67.3278 47.4696 67.5302 47.4696ZM67.7672 47.5881C68.1227 47.4696 68.4782 47.5881 68.4782 47.8249C68.1227 47.7062 67.7672 47.8249 67.7672 47.5881ZM57.6972 49.2469C58.4082 50.4312 59.8297 50.5497 60.185 51.9715C59.711 52.327 58.882 52.6823 58.6447 53.3933C59.1187 53.5118 59.356 52.9193 59.8297 53.0378H60.5405C61.8435 53.9855 61.9623 55.7626 63.5023 56.4734C63.5023 58.0136 65.0424 58.6056 65.0424 60.1457C65.2794 60.7379 65.5161 61.212 65.5161 61.6857C64.5686 62.3967 64.6871 60.6195 63.9761 60.3827C63.1468 59.9089 62.0808 59.4349 61.251 59.0794C61.725 56.5921 59.356 56.4733 58.4082 54.5781C57.9339 54.1035 57.8157 53.2745 57.1047 52.9193C56.9862 52.9193 57.1047 52.801 57.1047 52.801C57.6972 52.801 58.2897 52.5638 58.882 52.4453C58.6447 51.853 57.9339 51.616 57.4602 51.1422C56.8677 50.7867 56.3939 52.0898 55.6834 51.2607C55.4464 51.3792 55.4464 51.4975 55.2094 51.616C54.9726 51.3792 54.7356 50.905 54.6174 50.5497C54.6174 49.0097 56.5124 49.3649 57.1047 48.4172C57.6972 48.2987 57.3419 49.0097 57.6972 49.2469ZM63.8576 50.5497C63.9761 51.2607 63.3836 50.4312 63.2651 50.5497C63.0283 50.4312 63.0283 50.076 62.5545 50.076C62.1988 49.8387 61.725 49.4834 61.3698 49.1282C62.3173 48.7724 63.5023 49.6019 63.8576 50.5497Z" fill="#FFFFFA"/>
<path fill-rule="evenodd" clip-rule="evenodd" d="M90.748 36.6888L91.103 37.3998L80.0499 52.8402L79.8527 52.3114L90.748 36.6888ZM79.4261 51.6916L79.0977 51.0954L89.959 35.1065L90.3251 35.9621L79.4261 51.6916ZM91.8411 38.9175L80.6161 53.9198L80.3791 53.446L91.5256 38.1246L91.8411 38.9175ZM90.984 44.6277L79.8864 58.9611L79.7322 58.208L90.7096 43.8334L90.984 44.6277ZM91.7752 47.0747L80.3606 60.8212L80.2842 60.1048L91.3816 46.2811L91.7752 47.0747ZM92.3276 49.6048L79.6501 64.0557L79.256 63.4634L92.0916 48.7706L92.3276 49.6048Z" fill="#FFF200"/>
<path fill-rule="evenodd" clip-rule="evenodd" d="M51.2977 50.9042C51.4162 51.6152 50.3499 50.6674 50.5867 51.4967C50.2314 51.4967 50.1129 51.2599 50.1129 51.0229C50.1129 50.6674 50.5866 50.6674 50.8239 50.5489C51.0607 50.4304 51.2977 50.7859 51.2977 50.9042ZM74.6362 55.8803C74.5174 56.1173 74.3992 56.1173 74.2807 56.1173C74.1624 56.2355 74.0437 56.2355 74.0437 56.354C73.9252 56.354 73.8072 56.4725 73.6884 56.4725C73.8072 56.4725 73.8072 56.354 73.9252 56.2355C74.0437 56.2355 74.1624 56.1173 74.2807 56.1173C74.5174 55.8803 74.5174 55.8803 74.6362 55.8803ZM73.4512 56.5913C73.3332 56.8278 73.2144 56.8278 73.2144 56.8278V56.5913C73.3332 56.5913 73.4512 56.4725 73.4512 56.5913ZM73.0962 56.8278C72.9776 57.0648 72.8589 57.0648 72.7409 56.9465C72.9776 56.8278 72.9776 56.8278 73.0962 56.8278ZM45.9663 59.4341C46.4403 59.9081 46.3218 60.6186 46.3218 61.2111C45.4925 62.0407 46.4403 63.2249 46.085 64.173C45.2555 65.2392 45.0185 66.4238 44.9 67.727C44.7815 67.8455 44.663 68.3195 44.3078 68.2008C43.9525 67.49 44.1893 66.5423 43.9525 65.8317C43.36 66.0683 43.5967 67.0163 43.123 67.3718C42.8862 66.5423 42.1752 65.3575 41.1089 64.7655C40.5167 64.5285 39.5689 64.2912 39.3317 63.5807H39.4504C40.1614 63.8174 40.8719 64.0545 41.7015 64.2912C42.1752 64.173 43.4787 65.7132 43.0042 64.2912C42.6492 62.2772 40.7537 61.6849 39.2136 60.9744C38.8579 60.7371 38.3841 60.3819 38.2656 59.9081C39.4504 60.5004 41.1089 60.5004 42.2937 61.3296C42.7677 60.7371 41.9382 60.1449 41.9382 59.5524C41.7014 59.1971 41.4644 59.0786 41.2274 58.7231C41.1089 58.7231 40.9904 58.7231 40.8719 58.6048C40.8719 58.6048 40.7537 58.3681 40.8719 58.3681C41.1089 58.2498 41.1089 58.6048 41.3457 58.6048C41.4644 58.7231 41.7014 58.8418 41.82 58.9598C44.1893 59.3158 43.5967 62.1587 44.663 63.6992C45.2555 62.6329 45.7293 61.5666 45.2555 60.2634C44.663 59.3158 44.3078 58.1311 43.834 57.1835C44.7815 57.7758 45.0185 58.8418 45.9663 59.4341ZM77.7163 62.1587C77.598 62.5144 77.4795 62.8697 77.2425 63.1069H77.124C77.124 62.7512 77.0057 62.3959 77.0057 61.9219C77.2425 62.0406 77.7163 61.8036 77.7163 62.1587ZM76.65 63.936C76.5317 64.2912 76.5317 64.5285 76.4132 64.8837C76.295 65.2392 75.9395 65.3575 75.584 65.3575C75.7025 64.8837 76.295 64.5285 76.5317 63.936H76.65Z" fill="#FFFFFA"/>
<path fill-rule="evenodd" clip-rule="evenodd" d="M52.8397 44.2724C52.2474 44.6276 52.1287 45.5756 51.1809 45.6939C50.9439 45.8124 50.8259 46.4049 50.4701 46.1677C50.3519 45.5756 50.8259 45.5756 50.8259 45.1014C51.4181 45.1014 51.5364 44.5091 51.7734 44.0351C52.0102 44.0351 53.1949 43.4431 52.8397 44.2724ZM72.0319 55.6456C70.9656 55.7641 70.6103 56.9489 69.544 57.0672C68.9518 57.5412 67.7668 57.3039 67.056 57.3039V56.9489C68.2408 57.1859 69.0698 56.7121 69.7808 56.3564C70.2548 55.6456 71.0841 55.2901 72.0319 55.2901C72.1504 55.5274 71.9133 55.4086 72.0319 55.6456Z" fill="#FBBD0B"/>
<path fill-rule="evenodd" clip-rule="evenodd" d="M53.4052 14.7635L53.8905 38.4664H53.061L52.4958 14.8904L53.4052 14.7635ZM55.4864 14.8296L55.4458 40.3251L54.7348 40.3617L54.6173 14.7561L55.4864 14.8296ZM57.8953 15.004L57.0264 40.2498L56.3161 40.2835L56.9861 14.8904L57.8953 15.004ZM60.106 15.3644L58.4858 40.165L57.8935 40.1239L59.3559 15.1276L60.106 15.3644ZM39.4131 19.3526L41.9405 30.647L41.348 30.7655L38.6234 19.6292L39.4131 19.3526ZM73.8095 19.7477L69.505 36.3326L68.793 36.415L72.9792 19.3925L73.8095 19.7477ZM48.3876 19.5429L49.2417 29.3041L48.4901 29.4627L47.4395 19.6292L48.3876 19.5429ZM63.976 19.8665L61.5678 39.7694L60.8563 39.7335L63.1467 19.8665H63.976ZM45.9002 19.8665L47.1642 29.6994L46.3327 29.8565L44.952 19.9847L45.9002 19.8665ZM37.9127 22.3543L37.3201 22.4728L36.6091 20.1032L37.3597 19.9036L37.9127 22.3543ZM63.739 38.2294L62.9085 38.3479L65.3975 20.1032L66.227 20.2217L63.739 38.2294ZM71.2826 35.9363L70.6183 36.0108L74.8362 20.0214L75.632 20.5625L71.2826 35.9363ZM68.3589 20.9598L65.3975 37.2816L64.7647 37.405L67.5684 20.891L68.3589 20.9598ZM36.1723 22.2483L35.6616 22.7095L34.9907 21.0099L35.6348 20.6237L36.1723 22.2483ZM43.363 20.8531L44.9023 29.9364L44.0728 30.2917L42.4536 21.0508L43.363 20.8531ZM77.4437 21.8331L72.9438 35.7426L72.3488 35.7057L76.6921 21.2841L77.4437 21.8331ZM34.1191 21.5936L34.7947 23.6558L34.2034 24.0202L33.3697 22.1187L34.1191 21.5936ZM78.9825 22.9478L74.5197 35.9783L74.046 35.8601L78.1926 22.5913L78.9825 22.9478ZM34.5953 34.4358L34.2411 35.3101L31.5133 28.5572L32.1729 28.0638L34.5953 34.4358ZM81.3144 29.5372L78.0743 36.5708L77.4808 36.1794L80.4436 29.1069L81.3144 29.5372ZM30.3125 29.7685L35.134 40.9972L34.6959 41.6158L29.602 30.361L30.3125 29.7685ZM83.0514 30.8441L80.0883 37.0446L79.4162 36.7316L82.3797 30.2519L83.0514 30.8441ZM84.827 32.069L81.9042 37.7554L81.4307 37.4001L84.116 31.7132L84.827 32.069ZM38.0321 51.9346L37.4386 52.4445L27.7239 32.4243L28.3177 31.5124L38.0321 51.9346ZM35.4239 53.1533L34.7131 53.2718L23.3932 34.6458L23.9742 33.7275L35.4239 53.1533ZM89.4473 34.4383L83.9979 42.4942L83.7177 41.9069L88.8551 33.9643L89.4473 34.4383ZM22.7075 35.4635L33.8846 53.6307L33.2923 53.9862L22.117 36.295L22.7075 35.4635ZM32.5813 54.5787L31.9883 54.9726L20.8909 38.7009L21.3691 37.7529L32.5813 54.5787ZM20.378 39.9255L31.278 55.5265L30.686 56L19.9453 40.8772L20.378 39.9255ZM40.5986 50.7355L40.0457 50.9748L39.1395 48.2898L39.7386 47.9112L40.5986 50.7355ZM38.1091 47.8521L39.4151 51.2917L38.7822 51.5712L37.2016 48.098L38.1091 47.8521ZM20.7724 48.6133L28.5534 57.6588L28.0017 58.094L20.4973 49.6026L20.7724 48.6133ZM27.4862 58.9992L27.0525 59.6726L19.8632 52.0904L20.0614 51.1405L27.4862 58.9992ZM95.4833 52.5408L79.0993 67.7285L78.626 67.2523L95.2249 51.5832L95.4833 52.5408ZM95.9116 54.458L79.9263 68.4022L79.4926 67.9722L95.7272 53.4707L95.9116 54.458ZM26.6577 60.5019L26.3833 61.2139L19.4295 54.5768L19.4696 53.5085L26.6577 60.5019ZM96.1968 56.4062L80.7185 69.1127L80.2814 68.6839L96.0621 55.3984L96.1968 56.4062ZM96.4387 58.299L81.5057 69.7864L81.0698 69.315L96.346 57.3053L96.4387 58.299ZM16.6624 57.1369L33.6488 71.3625L33.4511 72.1141L16.5065 58.2469L16.6624 57.1369ZM33.8054 73.5324L33.5291 74.2444L16.2324 60.9759V59.9069L33.8054 73.5324ZM16.3819 63.295L33.9625 75.1514L33.6481 75.9044L16.5877 64.3303L16.3819 63.295ZM57.2231 65.3629L56.9861 67.7979L56.5123 67.6772L56.6308 65.3081L57.2231 65.3629ZM55.1279 65.2761L55.1449 67.7182L54.7114 67.7278L54.6173 65.2818L55.1279 65.2761ZM58.2525 65.6402L57.9339 67.9405L57.4768 67.879L57.6971 65.4817L58.2525 65.6402ZM50.939 65.4755L51.4241 68.0607L50.8102 68.2217L50.1811 65.5805L50.939 65.4755ZM53.1916 65.342L53.4018 67.8426L52.8565 67.8441L52.5693 65.3956L53.1916 65.342ZM52.0247 65.3814L52.4124 67.8989L51.8403 67.9958L51.4693 65.4775L52.0247 65.3814ZM54.1538 65.3216L54.3129 67.7349L53.8391 67.7507L53.6021 65.3098L54.1538 65.3216ZM49.6549 65.7288L50.3873 68.3707L49.6955 68.5467L48.9127 65.8332L49.6549 65.7288ZM59.3965 66.1184L58.9964 68.1372L58.4039 67.998L58.7634 65.8332L59.3965 66.1184ZM64.5862 69.7502L66.2275 65.805L66.851 66.0892L65.2151 70.0651L64.5862 69.7502ZM65.6564 65.5259L64.0438 69.6506L63.4277 69.3814L65.1241 65.2562L65.6564 65.5259ZM65.7715 70.3405L67.4998 66.4353L68.0963 66.8916L66.2543 70.6063L65.7715 70.3405ZM49.3026 68.7093L48.7121 68.9136L47.68 66.4253L48.3067 66.1093L49.3026 68.7093ZM60.4463 66.6451L60.0347 68.31L59.4456 68.1735L59.837 66.3761L60.4463 66.6451ZM90.5136 67.136L84.2718 71.7591L83.7953 71.3286L90.1896 66.4914L90.5136 67.136ZM17.0551 66.4206L33.6869 76.5739L33.4106 77.3248L17.2987 67.61L17.0551 66.4206ZM61.4105 67.3482L61.0125 68.5492L60.5608 68.4103L60.8994 66.8585L61.4105 67.3482ZM62.3005 67.879L62.0065 68.8523L61.5499 68.6207L61.7736 67.5813L62.3005 67.879ZM69.1559 67.8139L67.2933 71.2504L66.8031 70.9478L68.6819 67.3398L69.1559 67.8139ZM63.1467 68.5578L62.9304 69.243L62.436 69.0436L62.673 68.2023L63.1467 68.5578ZM91.0284 68.5578L85.1608 72.4113L84.7321 71.9764L90.7474 67.8372L91.0284 68.5578ZM47.6987 69.361L48.2044 69.0967L47.2859 66.7368L46.7135 67.121L47.6987 69.361ZM70.3073 68.9856L68.3542 71.8341L67.8703 71.5204L69.8298 68.4388L70.3073 68.9856ZM45.8919 68.9013L46.506 69.9422L46.1724 70.1593L45.5302 69.2479L45.8919 68.9013ZM71.3089 70.0688L69.4015 72.533L68.9273 72.178L70.8759 69.5336L71.3089 70.0688ZM90.3501 70.5269L85.967 73.0147L85.6056 72.6535L89.9661 70.0022L90.3501 70.5269ZM72.0155 71.2258L70.4108 73.1828L70.0181 72.8227L71.6231 70.7474L72.0155 71.2258ZM72.8248 71.9897L71.0438 73.8523L70.7286 73.5337L72.4818 71.6335L72.8248 71.9897ZM29.4501 78.5936L29.1764 79.1696L23.018 76.3261L22.7164 75.261L29.4501 78.5936ZM28.9918 79.8974L28.7909 80.4046L23.9392 78.4596L23.4446 77.4614L28.9918 79.8974ZM28.5357 81.133L28.4182 81.5898L24.7798 80.4218L24.3533 79.4755L28.5357 81.133Z" fill="#FFF200"/>
<path fill-rule="evenodd" clip-rule="evenodd" d="M70.4922 94.149C75.5865 95.097 79.9699 96.6373 83.2872 99.8358C84.1162 100.902 84.3535 102.324 84.235 103.982C84.3535 102.324 84.1162 100.902 83.2872 99.8358C79.9699 96.6373 75.5865 95.097 70.4922 94.149Z" fill="#6B6155"/>
<path fill-rule="evenodd" clip-rule="evenodd" d="M55.4875 67.6965L55.545 65.3112L56.1552 65.313L56.0367 67.7479L55.4875 67.6965ZM47.2705 69.4416L46.8142 69.7285L46.0078 68.1135L46.559 67.8485L47.2705 69.4416Z" fill="#FFF200"/>
<path fill-rule="evenodd" clip-rule="evenodd" d="M72.8217 103.707L73.8083 104.069L73.4053 105.317L74.0463 105.552L74.983 102.651L74.3421 102.415L73.99 103.505L73.0036 103.143L73.3552 102.053L72.7142 101.818L71.7778 104.719L72.419 104.954L72.8217 103.707ZM69.9171 103.128L70.532 102.078L70.6456 103.308L69.9171 103.128ZM70.3649 101.214L68.6685 103.945L69.3655 104.117L69.6627 103.601L70.6798 103.851L70.7383 104.455L71.4395 104.628L71.0336 101.379L70.3649 101.214ZM67.3964 101.184L67.0335 103.626L67.7037 103.739L68.0656 101.297L68.9222 101.442L69.0092 100.854L66.6237 100.45L66.5364 101.039L67.3964 101.184ZM65.3688 102.204C65.3337 102.345 65.2776 102.458 65.1945 102.546C65.0699 102.677 64.9118 102.73 64.7114 102.708C64.4752 102.681 64.3045 102.56 64.2018 102.346C64.1093 102.155 64.0786 101.922 64.1064 101.639C64.1322 101.378 64.1904 101.164 64.2809 100.998C64.4216 100.744 64.6224 100.635 64.8921 100.665C65.0386 100.686 65.1547 100.725 65.239 100.792C65.3693 100.895 65.4323 101.052 65.4364 101.264L66.0983 101.338C66.1293 101.024 66.056 100.76 65.8795 100.538C65.6702 100.272 65.3511 100.117 64.9177 100.069C64.411 100.016 64.0294 100.154 63.7659 100.486C63.5485 100.757 63.4221 101.122 63.3767 101.584C63.3238 102.16 63.4335 102.595 63.7103 102.891C63.9276 103.118 64.2322 103.254 64.6244 103.298C65.0949 103.346 65.4524 103.24 65.7015 102.977C65.8714 102.803 65.9808 102.572 66.0385 102.279L65.3688 102.204ZM61.3452 102.398C61.1399 102.386 60.983 102.311 60.8709 102.173C60.7232 101.994 60.659 101.714 60.6774 101.333C60.7 100.965 60.7782 100.706 60.9176 100.548C61.0482 100.401 61.2242 100.336 61.446 100.349C61.6508 100.365 61.8079 100.435 61.9205 100.569C62.0719 100.748 62.1363 101.028 62.1174 101.413C62.0933 101.825 61.9888 102.109 61.7961 102.265C61.6761 102.363 61.5254 102.408 61.3452 102.398ZM61.3159 102.994C61.8167 103.017 62.198 102.875 62.4648 102.561C62.7003 102.284 62.825 101.918 62.8478 101.454C62.8668 100.986 62.778 100.608 62.5752 100.311C62.3328 99.9639 61.9674 99.7808 61.475 99.7532C60.9375 99.7235 60.5385 99.8939 60.2691 100.266C60.0704 100.539 59.9635 100.88 59.9431 101.292C59.9268 101.704 60.0001 102.054 60.171 102.349C60.4062 102.749 60.7866 102.964 61.3159 102.994ZM58.0347 100.272L57.9944 102.744L58.6722 102.757L58.713 100.285L59.5794 100.301L59.589 99.7048L57.1737 99.6596L57.1639 100.256L58.0347 100.272ZM55.0702 100.28L55.6 100.271L55.6573 100.27C55.7768 100.272 55.8675 100.287 55.9295 100.322C56.0374 100.381 56.0883 100.494 56.0912 100.661C56.0893 100.818 56.0502 100.928 55.9651 100.996C55.8837 101.059 55.7694 101.087 55.6133 101.09L55.0837 101.1L55.0702 100.28ZM54.3825 99.6972L54.4327 102.765L55.1105 102.752L55.0933 101.696L55.7379 101.684C56.108 101.673 56.3813 101.584 56.5593 101.41C56.7413 101.231 56.8276 100.976 56.8222 100.642C56.8177 100.38 56.757 100.175 56.6395 100.019C56.4588 99.7766 56.153 99.664 55.7217 99.6721L54.3825 99.6972ZM52.3496 102.405C52.1445 102.421 51.9805 102.367 51.853 102.244C51.686 102.086 51.5904 101.816 51.5655 101.436C51.5456 101.068 51.5941 100.801 51.714 100.625C51.8269 100.463 51.9941 100.375 52.2158 100.359C52.4209 100.348 52.5844 100.397 52.7117 100.515C52.8826 100.673 52.9787 100.944 53.004 101.328C53.0267 101.739 52.9551 102.035 52.7818 102.215C52.6739 102.329 52.5295 102.392 52.3496 102.405ZM52.3887 103.001C52.8882 102.959 53.2504 102.769 53.4795 102.422C53.6816 102.117 53.7637 101.738 53.7332 101.274C53.6988 100.806 53.5673 100.443 53.332 100.175C53.052 99.8617 52.6684 99.7277 52.1767 99.7641C51.6398 99.8044 51.2629 100.026 51.0382 100.429C50.8725 100.727 50.8046 101.079 50.8319 101.49C50.8626 101.901 50.9755 102.239 51.1786 102.51C51.4581 102.876 51.8601 103.04 52.3887 103.001ZM48.2121 103.349L48.885 103.26L48.7222 101.772L49.9045 103.127L50.7284 103.019L49.327 101.524L50.3127 99.9821L49.521 100.086L48.6819 101.494L48.5346 100.215L47.3238 100.374L47.3914 100.965L47.9298 100.895L48.2121 103.349ZM43.9836 103.562L43.5413 101.135L42.8721 101.274L43.4209 104.286L47.1874 103.505L46.6384 100.493L45.9694 100.631L46.4117 103.059L45.532 103.241L45.0897 100.814L44.4205 100.953L44.8628 103.38L43.9836 103.562ZM41.0405 103.951L41.0811 102.714L41.7554 103.718L41.0405 103.951ZM40.5311 102.054L40.342 105.325L41.0262 105.101L41.0417 104.496L42.0399 104.171L42.374 104.662L43.0614 104.438L41.1873 101.841L40.5311 102.054ZM37.9998 104.99L38.518 104.756C38.6783 104.688 38.8032 104.665 38.8971 104.689C38.9969 104.715 39.0665 104.789 39.1145 104.909C39.1587 105.032 39.1511 105.136 39.0874 105.222C39.0287 105.3 38.9274 105.371 38.7762 105.439L38.2697 105.668L37.9998 104.99ZM37.5828 103.941L39.0156 103.292L38.7973 102.743L36.7402 103.675L37.8638 106.5L39.1272 105.927C39.3709 105.812 39.5592 105.679 39.688 105.521C39.8965 105.26 39.9304 104.963 39.7942 104.62C39.6843 104.356 39.5366 104.175 39.3431 104.082C39.0945 103.961 38.7872 103.986 38.4207 104.152L37.7817 104.442L37.5828 103.941Z" fill="#231F20"/>
<path d="M72.8217 103.707L73.8083 104.069L73.4053 105.317L74.0463 105.552L74.983 102.651L74.3421 102.415L73.99 103.505L73.0036 103.143L73.3552 102.053L72.7142 101.818L71.7778 104.719L72.419 104.954L72.8217 103.707V103.707ZM69.9171 103.128L70.532 102.078L70.6456 103.308L69.9171 103.128V103.128ZM70.3649 101.214L68.6685 103.945L69.3655 104.117L69.6627 103.601L70.6798 103.851L70.7383 104.455L71.4395 104.628L71.0336 101.379L70.3649 101.214V101.214ZM67.3964 101.184L67.0335 103.626L67.7037 103.739L68.0656 101.297L68.9222 101.442L69.0092 100.854L66.6237 100.45L66.5364 101.039L67.3964 101.184V101.184ZM65.3688 102.204C65.3337 102.345 65.2776 102.458 65.1945 102.546C65.0699 102.677 64.9118 102.73 64.7114 102.708C64.4752 102.681 64.3045 102.56 64.2018 102.346C64.1093 102.155 64.0786 101.922 64.1064 101.639C64.1322 101.378 64.1904 101.164 64.2809 100.998C64.4216 100.744 64.6224 100.635 64.8921 100.665C65.0386 100.686 65.1547 100.725 65.239 100.792C65.3693 100.895 65.4323 101.052 65.4364 101.264L66.0983 101.338C66.1293 101.024 66.056 100.76 65.8795 100.538C65.6702 100.272 65.3511 100.117 64.9177 100.069C64.411 100.016 64.0294 100.154 63.7659 100.486C63.5485 100.757 63.4221 101.122 63.3767 101.584C63.3238 102.16 63.4335 102.595 63.7103 102.891C63.9276 103.118 64.2322 103.254 64.6244 103.298C65.0949 103.346 65.4524 103.24 65.7015 102.977C65.8714 102.803 65.9808 102.572 66.0385 102.279L65.3688 102.204V102.204ZM61.3452 102.398C61.1399 102.386 60.983 102.311 60.8709 102.173C60.7232 101.994 60.659 101.714 60.6774 101.333C60.7 100.965 60.7782 100.706 60.9176 100.548C61.0482 100.401 61.2242 100.336 61.446 100.349C61.6508 100.365 61.8079 100.435 61.9205 100.569C62.0719 100.748 62.1363 101.028 62.1174 101.413C62.0933 101.825 61.9888 102.109 61.7961 102.265C61.6761 102.363 61.5254 102.408 61.3452 102.398ZM61.3159 102.994C61.8167 103.017 62.198 102.875 62.4648 102.561C62.7003 102.284 62.825 101.918 62.8478 101.454C62.8668 100.986 62.778 100.608 62.5752 100.311C62.3328 99.9639 61.9674 99.7808 61.475 99.7532C60.9375 99.7235 60.5385 99.8939 60.2691 100.266C60.0704 100.539 59.9635 100.88 59.9431 101.292C59.9268 101.704 60.0001 102.054 60.171 102.349C60.4062 102.749 60.7866 102.964 61.3159 102.994ZM58.0347 100.272L57.9944 102.744L58.6722 102.757L58.713 100.285L59.5794 100.301L59.589 99.7048L57.1737 99.6596L57.1639 100.256L58.0347 100.272V100.272ZM55.0702 100.28L55.6 100.271L55.6573 100.27C55.7768 100.272 55.8675 100.287 55.9295 100.322C56.0374 100.381 56.0883 100.494 56.0912 100.661C56.0893 100.818 56.0502 100.928 55.9651 100.996C55.8837 101.059 55.7694 101.087 55.6133 101.09L55.0837 101.1L55.0702 100.28V100.28ZM54.3825 99.6972L54.4327 102.765L55.1105 102.752L55.0933 101.696L55.7379 101.684C56.108 101.673 56.3813 101.584 56.5593 101.41C56.7413 101.231 56.8276 100.976 56.8222 100.642C56.8177 100.38 56.757 100.175 56.6395 100.019C56.4588 99.7766 56.153 99.664 55.7217 99.6721L54.3825 99.6972V99.6972ZM52.3496 102.405C52.1445 102.421 51.9805 102.367 51.853 102.244C51.686 102.086 51.5904 101.816 51.5655 101.436C51.5456 101.068 51.5941 100.801 51.714 100.625C51.8269 100.463 51.9941 100.375 52.2158 100.359C52.4209 100.348 52.5844 100.397 52.7117 100.515C52.8826 100.673 52.9787 100.944 53.004 101.328C53.0267 101.739 52.9551 102.035 52.7818 102.215C52.6739 102.329 52.5295 102.392 52.3496 102.405V102.405ZM52.3887 103.001C52.8882 102.959 53.2504 102.769 53.4795 102.422C53.6816 102.117 53.7637 101.738 53.7332 101.274C53.6988 100.806 53.5673 100.443 53.332 100.175C53.052 99.8617 52.6684 99.7277 52.1767 99.7641C51.6398 99.8044 51.2629 100.026 51.0382 100.429C50.8725 100.727 50.8046 101.079 50.8319 101.49C50.8626 101.901 50.9755 102.239 51.1786 102.51C51.4581 102.876 51.8601 103.04 52.3887 103.001V103.001ZM48.2121 103.349L48.885 103.26L48.7222 101.772L49.9045 103.127L50.7284 103.019L49.327 101.524L50.3127 99.9821L49.521 100.086L48.6819 101.494L48.5346 100.215L47.3238 100.374L47.3914 100.965L47.9298 100.895L48.2121 103.349V103.349ZM43.9836 103.562L43.5413 101.135L42.8721 101.274L43.4209 104.286L47.1874 103.505L46.6384 100.493L45.9694 100.631L46.4117 103.059L45.532 103.241L45.0897 100.814L44.4205 100.953L44.8628 103.38L43.9836 103.562V103.562ZM41.0405 103.951L41.0811 102.714L41.7554 103.718L41.0405 103.951V103.951ZM40.5311 102.054L40.342 105.325L41.0262 105.101L41.0417 104.496L42.0399 104.171L42.374 104.662L43.0614 104.438L41.1873 101.841L40.5311 102.054V102.054ZM37.9998 104.99L38.518 104.756C38.6783 104.688 38.8032 104.665 38.8971 104.689C38.9969 104.715 39.0665 104.789 39.1145 104.909C39.1587 105.032 39.1511 105.136 39.0874 105.222C39.0287 105.3 38.9274 105.371 38.7762 105.439L38.2697 105.668L37.9998 104.99V104.99ZM37.5828 103.941L39.0156 103.292L38.7973 102.743L36.7402 103.675L37.8638 106.5L39.1272 105.927C39.3709 105.812 39.5592 105.679 39.688 105.521C39.8965 105.26 39.9304 104.963 39.7942 104.62C39.6843 104.356 39.5366 104.175 39.3431 104.082C39.0945 103.961 38.7872 103.986 38.4207 104.152L37.7817 104.442L37.5828 103.941Z" stroke="white" stroke-width="0.245857" stroke-miterlimit="2.613"/>
<path fill-rule="evenodd" clip-rule="evenodd" d="M98.3315 92.8C96.0008 96.1168 93.7304 98.8876 90.8676 101.376C90.8676 101.189 91.0331 100.852 91.1218 100.673C91.8328 99.844 92.6447 99.0064 93.3554 98.1771C94.0664 97.4663 94.4217 96.6373 94.5405 95.6891C93.7343 87.4824 70.3599 92.4689 68.2396 93.7938C68.6947 94.0212 69.9832 94.149 70.4904 94.149C75.5848 95.097 79.9681 96.6373 83.2855 99.8359C84.1145 100.902 84.3517 102.324 84.2332 103.982C83.2854 105.76 82.3379 107.655 81.3897 109.432C80.7976 110.498 79.9067 112.038 79.0776 113.105C79.1959 112.631 79.2151 112.342 79.3336 111.986C79.9258 110.801 80.6791 109.551 81.2717 108.366C83.9107 99.4688 59.6477 97.7346 55.4003 97.8216C50.5238 97.9214 30.0962 100.645 30.5341 108.548C30.8896 110.206 32.1594 111.267 32.9884 112.807C32.9884 113.163 33.0172 113.455 33.0172 113.811C31.1347 111.35 28.1053 107.342 27.2885 102.942C27.2394 98.6378 38.1293 94.9896 43.5976 94.386C41.5838 93.4385 39.096 92.9645 36.6077 92.609C32.0372 91.7173 17.4949 89.8018 16.231 96.7553C16.3037 97.5379 18.3633 99.1251 19.5478 100.191C19.6663 100.428 19.6663 100.784 19.785 101.02C17.0025 98.9341 14.806 96.2944 12.6766 93.5565C11.4914 89.1744 17.372 87.8613 20.9698 88.2254C29.381 88.9364 37.2002 90.8319 44.5453 94.149C51.6538 92.3722 59.5309 92.609 66.8759 93.6753C73.8874 89.5624 100.132 83.4184 98.3315 92.8Z" fill="#1082CF"/>
<path fill-rule="evenodd" clip-rule="evenodd" d="M79.5949 112.35C78.7054 114.112 77.7805 115.718 76.0566 116.896C73.647 111.102 64.5668 108.929 56.0954 108.913C47.6239 108.897 34.1811 113.651 36.843 118.08C35.4649 118.08 33.2699 114.581 32.879 113.643C32.8252 107.163 50.4016 104.125 55.9447 104.134C61.4877 104.143 76.9626 105.394 79.5949 112.35Z" fill="#00A870"/>
<path fill-rule="evenodd" clip-rule="evenodd" d="M66.9813 110.303C70.2162 110.4 78.1837 113.868 76.2451 116.606C74.3063 119.344 67.9615 111.198 66.9813 110.303ZM36.5481 118.061C33.0975 114.789 42.7946 111.028 44.8162 110.849C42.754 113.599 40.2922 118.755 36.5481 118.061Z" fill="#6B5F52"/>
<path fill-rule="evenodd" clip-rule="evenodd" d="M42.5297 94.5389C42.1511 94.5938 41.9475 94.6889 41.5846 94.7405C40.3996 94.859 39.0968 94.9775 37.9121 95.096C33.41 95.6881 29.3819 96.6363 26.1833 98.8869C25.3543 99.7164 24.406 100.545 24.6433 101.967C25.2355 103.034 26.3338 102.96 27.3998 103.434C26.8075 103.552 26.5386 103.626 25.946 103.626C23.6955 103.389 21.2072 102.678 19.7859 101.019C19.6672 100.783 19.6672 100.427 19.5487 100.19C19.3119 98.8869 20.1412 97.8206 21.0889 97.1098C26.2231 93.3527 36.5778 93.05 42.5297 94.5389Z" fill="#00A870"/>
<path fill-rule="evenodd" clip-rule="evenodd" d="M41.9728 94.6711C37.1117 95.5304 26.3787 99.1752 27.3933 103.432C26.4972 103.263 24.567 102.835 24.5625 101.666C24.2945 96.484 37.7797 94.7724 41.9728 94.6711Z" fill="#6B5F52"/>
<path fill-rule="evenodd" clip-rule="evenodd" d="M90.8663 101.373C89.4782 103.454 86.6533 104.107 84.2319 103.98C84.3504 102.321 84.1132 100.9 83.2842 99.8333C79.9668 96.6347 75.6017 95.2346 70.5078 94.2866C69.9544 94.2158 69.1637 94.0683 68.6895 93.9498C73.1716 92.7886 95.2944 93.0037 90.8663 101.373Z" fill="#00A870"/>
<path fill-rule="evenodd" clip-rule="evenodd" d="M70.3145 94.2713C72.905 95.0083 76.7531 95.5482 79.8787 97.4531C82.1595 98.8434 84.4022 99.5483 84.2254 103.895C85.0653 103.895 86.7531 103.52 87.1142 102.43C88.6803 97.0032 74.0623 94.3234 70.3145 94.2713Z" fill="#6B5F52"/>
<path fill-rule="evenodd" clip-rule="evenodd" d="M56.4475 88.8736L58.5507 85.231C58.6503 85.2543 58.7551 85.2654 58.8615 85.2654C59.617 85.2654 60.2344 84.6481 60.2344 83.8926C60.2344 83.1368 59.617 82.5197 58.8615 82.5197C58.4977 82.5205 58.149 82.6655 57.8917 82.9227C57.6344 83.18 57.4895 83.5287 57.4886 83.8926C57.4886 84.2048 57.5934 84.4939 57.7704 84.7255L55.6553 88.3892V84.2414C56.1836 84.0499 56.5642 83.5432 56.5642 82.9504C56.5642 82.1947 55.9469 81.5776 55.1911 81.5776C54.4356 81.5776 53.8183 82.1947 53.8183 82.9504C53.8183 83.5429 54.1986 84.0497 54.7267 84.2414V88.4913L52.5809 84.7742C52.8317 84.5181 52.9721 84.174 52.972 83.8156C52.9712 83.4518 52.8263 83.1031 52.569 82.8458C52.3117 82.5885 51.963 82.4436 51.5992 82.4428C50.8437 82.4428 50.2263 83.0598 50.2263 83.8156C50.2263 84.5711 50.8437 85.1885 51.5992 85.1885C51.6479 85.1885 51.6963 85.186 51.7435 85.1813L53.8876 88.8945L50.348 86.8507C50.3753 86.7425 50.3893 86.6289 50.3893 86.5121C50.3893 85.7566 49.772 85.1393 49.0165 85.1393C48.2607 85.1393 47.6436 85.7566 47.6436 86.5121C47.6445 86.876 47.7894 87.2247 48.0467 87.482C48.3039 87.7392 48.6526 87.8842 49.0165 87.885C49.3177 87.885 49.5982 87.7874 49.8253 87.6214L53.3381 89.6495H49.4074C49.3198 89.37 49.1454 89.1256 48.9095 88.952C48.6736 88.7783 48.3884 88.6844 48.0955 88.6838C47.34 88.6838 46.7227 89.3011 46.7227 90.0566C46.7227 90.8122 47.34 91.4295 48.0955 91.4295C48.6666 91.4295 49.1588 91.0764 49.3654 90.5781H54.7267V91.8779H55.6553V90.5781H61.0698C61.2763 91.0764 61.7687 91.4295 62.3396 91.4295C63.0951 91.4295 63.7125 90.8122 63.7125 90.0566C63.7125 89.3011 63.0951 88.6838 62.3396 88.6838C62.0467 88.6843 61.7616 88.7782 61.5257 88.9519C61.2898 89.1256 61.1154 89.3699 61.028 89.6495H56.9608L60.609 87.5433C60.8441 87.7155 61.128 87.8081 61.4194 87.8078C62.1751 87.8078 62.7922 87.1907 62.7922 86.4352C62.7915 86.0713 62.6466 85.7226 62.3893 85.4653C62.132 85.208 61.7832 85.0631 61.4194 85.0623C60.6639 85.0623 60.0465 85.6792 60.0465 86.4352C60.0465 86.5507 60.0603 86.6641 60.0876 86.772L56.4475 88.8736Z" fill="#00A870"/>
<path fill-rule="evenodd" clip-rule="evenodd" d="M43.584 36.522C43.6912 35.766 44.2493 34.8657 44.7813 34.4386C45.4924 34.0831 45.2554 33.0171 46.0849 32.6616C47.0324 32.4246 47.6249 32.1878 48.3354 31.7136C48.8094 31.4768 49.7575 31.1215 50.2312 31.7136C50.2312 32.3061 49.5202 33.1356 50.1127 33.6094C49.9942 34.3204 49.9942 34.7941 49.2837 34.9126C49.0464 35.2679 49.6387 36.5712 48.8094 36.5712C47.8617 37.7557 49.2837 38.2297 49.9942 38.822C51.416 39.296 51.6527 40.7178 52.3638 41.784C53.9038 42.2578 55.3253 42.9686 56.9836 42.4946C57.4576 42.7318 58.1684 42.7318 58.2871 43.3241C58.6422 43.7981 58.6422 44.2718 58.4056 44.7456C57.9314 44.8641 57.3394 45.3381 56.8651 44.8641C56.3914 44.6271 56.2731 43.9166 55.5623 44.2718C55.3253 44.5086 55.4438 44.9826 55.0886 44.9826C55.9178 45.4566 56.6284 45.8119 57.1021 46.7597C58.0499 46.0491 59.1162 44.9826 59.5899 43.7981C60.4194 43.0871 61.7225 42.8503 62.1962 41.6655C62.6705 41.1918 63.381 41.3098 64.092 41.3098C64.9213 40.4808 65.5136 38.7035 66.9353 39.0592C67.7646 38.4667 68.7124 37.8742 69.7787 38.4667C70.0157 37.9929 70.6082 37.993 70.9634 37.993C71.6744 38.1115 72.8587 37.5192 73.5697 38.3482C74.0435 37.9929 74.873 38.2297 75.4655 38.2297C75.8208 39.0592 76.6498 38.7035 77.3611 38.9405C77.9533 39.0592 78.3086 39.6515 78.6641 40.1255C79.8486 39.7697 81.0334 39.7697 82.2182 39.8882C82.3369 40.7178 81.2707 40.836 80.9149 41.4283C81.2707 42.2578 82.2182 42.7318 82.2182 43.5608C81.8627 43.6796 81.2707 43.4426 81.1522 43.9166C81.3887 44.3903 81.7444 45.2194 81.2707 45.5751C80.5594 45.8119 80.0859 46.6411 79.6119 47.2334C79.3749 47.3522 79.0196 47.3522 78.9009 46.9967C78.7824 47.8259 78.0718 48.4182 77.2423 48.8922C76.7683 49.603 76.413 50.5507 75.5838 51.0247C75.5334 51.3286 72.7481 53.0051 72.622 51.617C72.385 50.6692 73.6882 51.0247 73.6882 50.1955C73.451 49.9585 73.096 50.077 72.8587 50.077C72.385 50.4322 72.385 51.617 71.5557 51.0247H71.5505C71.4372 50.7351 71.2818 50.3231 71.4244 50.1102C71.9387 49.3441 73.8746 48.2611 72.9775 46.9967C71.7925 47.1152 72.385 49.366 70.8449 48.7735C70.7262 49.0107 71.0819 49.0107 71.2004 49.1292C71.4372 49.4845 71.0819 49.603 70.8449 49.4845C70.9376 49.7623 71.09 50.5709 71.2095 51.0247H71.2004C71.3184 51.854 71.3184 52.5648 71.3184 53.3943C72.9743 53.8078 77.2258 52.5141 77.8346 52.9203C78.3086 53.3943 78.6641 53.8681 78.9009 54.3418C78.9009 55.0528 78.9009 55.8821 78.5456 56.3559C78.1901 58.2516 78.9009 59.9099 79.2564 61.6867C77.8346 62.8715 78.0718 65.5966 75.8208 65.8336C75.7023 66.0701 75.3468 66.0701 74.9913 66.0701C74.873 64.7673 74.9913 63.701 74.9913 62.5163C75.3468 62.0425 76.2948 62.1605 76.4131 61.45C75.2285 60.3837 76.5316 59.3177 76.4131 58.1329C76.4131 57.3034 76.413 56.5931 76.2948 55.7636C75.8208 56.2374 74.9913 56.1191 74.873 56.7116C73.096 57.5406 72.1482 58.6067 70.3709 59.6729C69.3046 59.9099 68.9496 60.5022 67.8831 60.739C68.2386 61.6867 69.1864 62.1605 69.8972 62.8715C70.0157 62.6348 70.0157 62.3978 70.0157 62.279C70.6082 62.1605 70.6082 63.1088 71.4372 62.753C71.3184 61.6867 70.2527 61.213 69.6599 60.5022C69.4231 60.028 70.1342 60.2652 70.2527 60.3837C70.8449 60.8575 70.1342 59.5542 70.8449 59.7912C71.4372 61.0942 72.2667 62.3978 73.096 63.5825C73.451 64.7673 74.5173 65.3593 74.636 66.5441C75.7023 68.3214 77.1238 69.6242 78.5456 70.9277C79.3749 71.8755 81.1522 70.9277 81.7444 72.1125C82.1147 72.4085 82.2042 73.2242 82.2619 73.5581L83.1298 73.4359C83.4853 74.1469 83.0475 75.074 83.166 75.9036L75.3468 77.4436L84.943 76.9698C85.7725 78.2729 86.602 79.5761 87.1938 80.8792C86.4833 82.6562 86.1278 84.4335 85.417 86.0918C78.5456 87.5138 72.0297 89.5279 66.1058 93.0819C65.7508 92.9634 65.3951 92.9634 65.1583 92.8452C66.1058 89.5279 64.9213 85.9735 62.552 83.4855C59.8272 80.6424 55.9178 79.5761 52.1265 80.7604C48.6909 81.5902 46.0849 85.144 45.3739 88.3428C45.0184 89.8831 45.1369 91.6602 45.3739 93.0819C45.2554 93.2002 45.1369 93.2002 44.8998 93.2002C38.7392 90.9494 32.6976 87.9876 25.8262 87.3953C26.2999 85.9735 27.2477 84.6703 28.0767 83.2487C29.4988 83.1302 31.0388 83.0117 32.4603 82.8932C32.6976 82.0639 32.4751 81.2526 32.4751 80.3051L41.2209 79.1225C40.9738 78.9251 40.919 78.321 40.8108 77.9142C40.6687 77.3384 40.4361 76.8803 39.4502 77.4436C39.2135 77.0881 38.9765 76.8513 38.621 76.4961C38.1472 75.1928 37.5547 73.7713 36.3702 72.5862C35.4189 71.8369 35.0123 71.4592 35.6591 70.4537C36.3057 69.4484 38.384 68.3214 38.7392 66.6628C37.4362 64.7673 36.0146 62.99 35.5406 60.6205C35.1126 60.1927 34.1287 60.6898 34.0004 61.3315C34.1189 62.1605 34.0004 63.1088 33.7636 63.9378C33.4081 64.2931 32.8161 63.9378 32.4603 64.2931C33.0526 64.8856 33.2898 65.7151 33.1713 66.6628C32.4603 66.7811 31.5126 67.1364 30.8018 66.7811C30.4463 66.5441 30.4463 67.2551 30.091 67.2551C29.854 67.2551 29.6173 67.1364 29.38 67.1364C28.7877 66.0701 29.6173 65.4778 30.091 64.5303C29.9725 64.5303 29.9725 64.4116 29.854 64.4116C29.38 64.6486 28.551 64.5303 27.9585 64.7673C27.3092 64.4425 28.2255 62.99 28.4322 62.99C27.5263 60.7259 30.658 57.3248 32.6976 58.4882C33.0526 58.8437 33.7636 58.8437 34.3561 58.8437C34.7114 58.2517 36.1329 59.0804 35.7776 57.8959C36.7252 55.4081 38.621 54.1046 40.9903 53.157C41.1088 53.0388 41.1088 53.0388 41.2273 53.0388C41.7013 52.9203 42.0565 52.802 42.5303 52.6833C44.7813 52.4463 46.7954 52.2093 48.5724 51.1432C48.5724 50.7877 47.9802 50.906 47.8617 50.6692C46.7954 50.4322 46.2029 50.5507 45.1369 50.6692C45.0184 50.6692 44.8998 50.6692 44.7813 50.5507H44.4261C44.3076 50.1955 44.3076 49.603 43.8338 49.7217C43.3598 49.248 43.0041 48.7734 43.0041 48.2997C44.4261 47.8259 44.8998 46.1671 45.7291 44.9826C45.6106 44.7456 45.2554 45.1009 45.0184 44.8641C44.5443 43.5608 47.1511 44.3903 45.9661 43.2056C45.2352 42.8926 44.0369 41.784 43.5459 41.5134C43.4274 41.7504 43.1228 42.0208 43.0041 42.2578C42.2935 42.8503 41.938 43.7981 41.4643 44.3903C41.2273 44.3903 40.9903 44.2718 40.9903 44.0346C40.9903 43.4426 41.5828 43.2056 41.7013 42.6133C41.938 41.784 42.5303 40.9545 42.5303 40.1255C41.938 40.362 41.5828 39.0592 41.1088 39.8882C40.2797 40.362 39.4502 40.836 38.621 41.4283C38.621 41.5468 38.621 41.9023 38.384 41.784C38.1472 41.6655 37.7914 41.3098 38.0287 41.073C39.095 40.4808 39.6872 39.533 40.8718 38.9405C41.1088 38.7035 40.9903 38.4667 40.8718 38.2297C40.0427 38.1115 39.4502 37.9929 38.9765 37.1634C39.4502 35.9787 38.2654 35.0309 38.2654 33.8461C38.1472 33.0171 37.9102 32.1878 37.7914 31.4768C37.1992 32.0693 37.5547 33.0171 37.3177 33.8461C37.0807 34.7941 35.8961 34.0831 35.5406 35.0309C35.5406 36.3342 36.7252 37.1634 36.9624 38.3482C36.7252 40.4808 36.6067 42.7318 37.9102 44.3903C38.0287 44.7456 38.0287 45.2194 37.9102 45.4566C37.6729 45.6934 37.1992 45.6934 36.9624 45.4566C36.7252 45.2194 36.7252 44.6271 36.9624 44.3903C36.9624 44.2718 37.0807 44.1533 37.1992 44.1533C36.2514 42.6133 36.3702 40.5993 36.4887 38.7035C36.2514 37.1634 34.0004 35.2679 36.0146 33.9646C36.1329 33.9646 36.4887 33.9646 36.6067 33.7279C36.7252 31.9508 36.7252 30.1735 37.1992 28.6332C36.7252 28.1595 36.0146 27.6857 35.8961 26.8565C36.0146 25.9084 36.0146 24.9607 36.3702 24.2499C36.4887 24.2499 36.7252 24.1316 36.8439 24.2499C37.3177 24.9607 37.3177 25.9084 37.6729 26.738C37.7914 26.1457 38.1472 25.7904 38.0287 25.0794C38.384 24.9607 38.5025 25.1979 38.8577 25.4347C38.7392 26.3824 38.621 27.449 39.095 28.2782C38.8577 28.752 39.4502 28.989 39.4502 29.3445C40.2797 31.003 40.635 32.7801 41.8198 34.3204C41.8864 34.4755 41.9021 34.5866 41.8864 34.6653C41.8739 34.7287 42.981 35.3611 43.1199 35.6155C43.0881 35.7822 43.5779 36.567 43.584 36.522ZM43.035 35.7832C42.8172 35.9659 42.7191 36.0047 42.649 36.2157C41.938 36.0972 41.7013 36.5712 41.3455 36.9267C41.3455 37.0449 41.1088 37.2819 41.3455 37.4004C41.8198 37.6372 42.4118 36.6894 42.5303 37.5192C42.2935 37.5192 42.175 37.6372 42.175 37.8742C42.4118 38.1115 42.7675 38.5852 43.1228 38.4667C43.3598 38.3482 43.1228 37.7557 43.5966 37.8742C44.3076 38.3482 43.7153 39.296 44.0703 40.007C44.5443 40.4808 43.2413 40.244 43.9523 40.836C44.7813 41.1918 45.4924 41.9023 46.3216 41.784C46.0849 40.9545 44.8998 41.1918 44.5443 40.4808C45.9661 40.4808 46.7954 41.784 48.3354 41.6655C49.1649 42.0208 50.1127 42.6133 50.9417 42.0208C51.416 41.5468 50.8237 40.9545 50.705 40.362C50.468 40.007 49.8755 39.8882 49.7575 39.533C48.5724 39.296 48.5724 37.4004 47.0324 37.5192C46.3216 37.5192 46.3216 35.6234 45.6106 36.9267C45.7291 37.2819 46.3216 37.4004 46.6769 37.7557C47.1511 37.9929 47.7429 38.3482 47.6249 38.9405C47.8617 39.1775 48.0987 39.296 47.9802 39.6515C47.3879 39.6515 47.2692 38.9405 46.7954 38.5852C45.7291 37.8742 44.6628 37.2819 43.5966 36.6894C43.5494 36.6449 43.1971 36.1635 43.035 35.7832ZM64.9213 62.5163C66.1058 62.1605 66.6983 63.701 67.7646 64.1748C70.2527 65.2411 70.7262 68.0841 73.333 69.0322C74.9913 70.0984 74.7545 73.0602 77.2423 72.9417C77.5978 73.2972 77.5978 73.7713 77.7161 74.2448L51.5239 77.7295C51.4057 77.137 51.0605 76.6141 50.5865 76.2591C48.3354 75.7851 46.5586 74.4815 44.6628 73.6525C44.5443 73.4153 44.4261 73.2972 44.4261 73.0602C44.3076 72.9417 44.1891 72.823 44.0703 72.5862V70.8092C44.6628 69.1507 45.7291 67.7289 45.8476 65.7151C46.0851 65.0028 47.3845 63.8193 48.0987 63.8193C48.9279 63.8193 49.7575 63.9378 50.5865 63.9378C53.0743 63.9378 55.5623 63.464 58.0499 63.5825C58.4056 63.464 58.8794 63.3453 59.1162 63.464C59.1162 63.8193 59.1162 64.2931 59.3534 64.5303C61.012 64.6486 61.4857 66.3073 62.7887 67.1364C63.0258 67.1364 63.4998 67.2551 63.6183 66.8996C63.6183 65.2411 61.9597 64.0563 61.841 62.3978C62.3147 61.9237 63.0258 62.0425 63.6183 61.5685C64.2105 61.5685 64.3288 62.3978 64.9213 62.5163ZM53.9038 44.0346C54.0479 44.4675 54.4166 44.7847 54.7331 45.1009C55.0886 45.4566 54.9701 45.8119 55.3253 46.0491C55.9178 46.1671 56.1548 46.7596 56.6284 46.9967C57.5761 47.7072 56.2731 47.9444 56.0363 48.4182C54.4963 48.1814 54.6148 51.0247 53.0743 49.9585C52.719 49.9585 52.6005 49.0107 52.3638 49.603C52.4823 50.1955 53.0743 50.314 53.0743 51.0247C52.3638 50.906 51.6527 50.7877 51.416 50.1955C51.7712 49.7217 52.008 49.1292 52.4823 48.7735C53.43 48.8922 53.6668 48.0629 54.1406 47.4707C54.4963 47.4707 54.8513 47.2334 54.9701 46.8782C55.0886 46.7596 55.2068 46.4044 54.9701 46.1671C54.6148 47.1152 53.1928 46.2859 53.0743 47.4707C52.4823 47.5892 51.7713 47.8259 51.5342 48.5367C51.2975 49.603 49.9942 49.7217 49.0464 49.7217C48.8094 50.077 48.3354 49.7217 48.0987 49.7217C48.5724 49.0107 49.8755 49.7217 50.468 49.1292C51.1787 48.2997 51.7713 46.9967 52.719 46.2859C52.956 45.6934 52.6005 45.8119 52.3638 46.1671C51.7713 46.7596 50.3497 46.6411 50.1127 47.8259L49.9942 47.9444C49.5202 48.0629 49.0464 48.1814 48.5724 48.1814C47.8617 48.2997 47.3879 47.8259 46.9139 47.4707C47.2692 46.9967 47.9802 46.8782 48.3354 46.4044C48.6909 45.9304 49.0464 45.4566 49.1649 44.9826C48.9279 44.7456 48.8094 44.9826 48.5724 45.1009C48.0987 45.2194 47.7429 45.5751 47.3879 45.5751C47.7429 44.6271 48.0987 43.5608 49.4017 43.5608C50.1127 43.2056 51.2975 43.3241 51.7712 42.376C52.719 42.8503 52.956 43.7981 53.9038 44.0346ZM45.9661 59.4359C46.4401 59.9099 46.3216 60.6205 46.3216 61.213C45.4924 62.0425 46.4401 63.2268 46.0849 64.1748C45.2554 65.2411 45.0183 66.4256 44.8998 67.7289C44.7813 67.8474 44.6628 68.3214 44.3076 68.2026C43.9523 67.4919 44.1891 66.5441 43.9523 65.8336C43.3598 66.0701 43.5966 67.0181 43.1228 67.3736C42.886 66.5441 42.175 65.3593 41.1088 64.7673C40.5165 64.5303 39.5687 64.293 39.3315 63.5825H39.4502C40.1612 63.8193 40.8718 64.0563 41.7013 64.2931C42.175 64.1748 43.4786 65.7151 43.0041 64.2931C42.649 62.279 40.7535 61.6867 39.2135 60.9762C38.8577 60.739 38.384 60.3837 38.2654 59.9099C39.4502 60.5022 41.1088 60.5022 42.2935 61.3315C42.7675 60.739 41.938 60.1467 41.938 59.5542C41.8259 59.3858 40.7056 58.3699 40.8718 58.3699C40.9822 58.3146 41.7072 58.8496 41.8198 58.9617C44.1891 59.3177 43.5966 62.1605 44.6628 63.701C45.2554 62.6348 45.7291 61.5685 45.2554 60.2652C44.6628 59.3177 44.3076 58.1329 43.8338 57.1854C44.7813 57.7776 45.0184 58.8437 45.9661 59.4359ZM70.1342 62.99C70.7262 63.464 71.3184 64.0563 72.1482 64.1748C72.9775 64.7673 73.925 65.5966 73.807 66.6628C75.2285 68.4399 76.6498 70.0984 78.3086 71.6387C78.9009 71.9937 79.4934 72.1125 80.3226 71.9937C80.2044 72.705 79.1381 72.231 78.6641 72.4677C77.9533 72.3492 77.3611 71.4015 76.5316 71.9937C76.176 69.7429 73.925 68.2026 72.385 66.6628C72.385 65.7151 71.3184 65.3593 70.9634 64.6486C70.9634 64.0563 70.1342 63.701 70.1342 62.99ZM74.399 38.9405C75.2285 38.5852 75.2285 39.6515 75.9393 39.6515C76.5316 39.533 77.3611 39.6515 77.5978 40.244C78.1901 42.1393 79.7301 40.1255 80.9149 40.362C80.9149 40.836 80.0859 40.9545 80.0859 41.4283C80.6781 41.784 81.0334 42.3761 81.3887 42.8503C81.3887 43.2056 81.0334 42.9686 80.9149 43.0871C80.3226 43.4426 80.7966 44.2718 80.9149 44.8641C80.5594 44.7456 80.2044 44.2718 80.2044 43.7981C80.2044 43.6796 80.0859 43.5608 79.9671 43.4426C79.7301 43.4426 79.4934 43.6796 79.6119 43.9166C79.7301 44.5086 80.5594 44.9826 79.9671 45.4566C79.7301 44.8641 79.2564 44.2718 78.7824 43.7981C78.6641 43.2056 79.4934 41.784 78.5456 42.2578C78.1901 43.4426 77.8346 45.1009 79.0196 45.9304C78.5456 46.9967 78.0718 47.9444 77.0056 48.4182C76.8871 48.5367 77.0056 48.6552 76.8871 48.7735C76.4131 48.8922 75.9393 49.7217 75.2285 49.4845C75.2285 48.5367 76.5316 48.2997 76.4131 47.3522C77.1238 46.7597 76.7683 48.4182 77.3611 47.4707C77.7161 46.6411 76.7683 46.2859 77.0056 45.5751C76.6498 45.3381 76.6498 45.6934 76.5316 45.9304C76.5316 46.5229 76.2948 47.2334 75.5838 47.4707C74.9913 47.4707 75.7023 46.9967 75.4655 46.5229C75.1098 46.0491 75.3468 45.5751 75.4655 44.9826C74.9913 44.9826 74.9913 45.4566 74.7545 45.5751C74.5173 45.4566 74.7545 45.1009 74.7545 44.8641C74.9913 44.7456 75.2285 44.5086 75.3468 44.2718C75.1098 44.1533 75.1098 43.7981 75.3468 43.7981C75.8208 42.8503 77.1238 43.0871 77.8346 42.376C76.5316 41.9023 75.1098 42.2578 73.925 42.8503C73.6882 42.2578 74.5173 42.0208 74.9913 41.6655C75.3468 41.6655 75.7023 41.3098 75.8208 40.9545C75.7023 39.7697 75.1098 41.1918 74.5173 40.9545C73.6882 41.4283 72.9775 41.4283 72.1482 41.9023C72.0297 41.1918 73.333 40.362 72.8587 39.533C72.5035 41.073 70.3709 40.5993 69.8972 42.0208C68.8309 41.6655 70.1342 40.836 70.1342 40.1255C70.0157 40.007 70.2527 39.533 69.8972 39.6515C69.6599 40.4808 68.7124 40.9545 68.5936 41.6655C68.0016 41.784 67.4093 42.1393 67.2908 42.7318C66.5798 42.4946 67.5276 41.784 67.5276 41.3098C67.5276 41.073 67.6461 40.836 67.4093 40.5993C67.0538 40.7178 67.1721 41.073 66.9353 41.3098C65.6323 41.9023 65.5136 43.2056 65.1583 44.3903C64.4473 44.1533 64.2105 43.6796 63.6183 43.6796C63.1443 43.6796 62.7888 44.0346 62.4335 43.6796C61.7225 43.7981 62.6705 44.1533 62.552 44.3903C62.7888 44.5086 63.0258 44.5086 63.2625 44.6271C63.2625 44.8641 62.7888 45.1009 62.4335 44.9826C61.7225 44.7456 61.3672 45.1009 60.7747 44.8641C60.6562 45.2194 61.012 45.3381 61.3672 45.5751C61.841 45.4566 61.9597 46.5229 62.6705 46.1671C63.4998 46.8782 64.566 46.2859 65.5136 46.7597C65.0398 47.1152 64.4473 46.9967 64.092 47.3522C63.0258 46.9967 61.9597 46.9967 60.7747 46.6411C60.1824 47.2334 59.2347 47.3522 58.1684 47.5892C57.8131 46.0491 59.9457 46.0491 59.7084 44.5086C60.6562 44.3903 61.6042 44.0346 62.0782 43.2056C62.1962 42.7318 62.6705 42.4946 63.0258 42.1393C64.8033 42.3761 65.1583 40.244 66.5798 39.8882C66.9353 40.007 67.5276 40.007 67.8831 39.6515C68.0016 39.1775 68.3571 39.0592 68.7124 39.0592C69.4231 38.7035 70.1342 40.007 70.7262 38.9405C71.2004 38.822 71.7924 39.4145 72.1482 38.822C73.096 38.3482 73.5697 39.8882 74.399 38.9405ZM57.6946 49.2479C58.4056 50.4322 59.8272 50.5507 60.1824 51.9725C59.7084 52.328 58.8794 52.6833 58.6422 53.3943C58.9652 53.2662 59.9681 52.6904 60.5379 53.0388C61.841 53.9866 61.9597 55.7636 63.4998 56.4744C63.4998 58.0147 65.0398 58.6067 65.0398 60.1467C65.2768 60.739 65.5136 61.213 65.5136 61.6867C64.566 62.3978 64.6845 60.6205 63.9735 60.3837C63.1443 59.9099 62.0782 59.4359 61.2485 59.0804C61.7225 56.5931 59.3534 56.4744 58.4056 54.5791C57.9314 54.1046 57.8131 53.2755 57.1021 52.9203C56.9836 52.9203 57.1021 52.802 57.1021 52.802C57.6946 52.802 58.2871 52.5648 58.8794 52.4463C58.6422 51.854 57.9314 51.617 57.4576 51.1432C56.8651 50.7877 56.3914 52.0908 55.6808 51.2617C55.4438 51.3803 55.4438 51.4985 55.2068 51.617C54.9701 51.3802 54.7331 50.906 54.6148 50.5507C54.6148 49.0107 56.5099 49.366 57.1021 48.4182C57.6946 48.2997 57.3394 49.0107 57.6946 49.2479ZM57.6946 57.4221C57.3394 58.2517 56.9836 59.1989 56.1548 59.5542C56.0363 59.6729 56.0363 59.7912 55.9178 59.7912C55.6808 59.9099 55.7991 59.6729 55.7991 59.6729C55.7991 59.5542 55.9178 59.5542 56.0363 59.5542C56.2731 59.0804 56.5099 58.7249 56.8651 58.2517C57.1021 57.6591 57.2206 57.0666 57.4576 56.4744C57.8131 56.5931 57.8131 57.0666 57.6946 57.4221ZM57.9314 59.6729C57.3394 60.739 56.2731 61.6867 54.8513 61.8055C55.0886 61.3315 55.7991 61.0942 56.2731 60.739C56.7469 59.7912 57.3394 58.8437 58.0499 58.0146C58.2871 58.4882 58.1684 59.1989 57.9314 59.6729ZM63.855 50.5507C63.9735 51.2617 63.381 50.4322 63.2625 50.5507C63.0258 50.4322 63.0258 50.077 62.552 50.077C62.1962 49.8397 61.7225 49.4845 61.3672 49.1292C62.3147 48.7734 63.4998 49.603 63.855 50.5507ZM67.7646 47.5892C68.1201 47.4707 68.4756 47.5892 68.4756 47.8259C68.1201 47.7072 67.7646 47.8259 67.7646 47.5892ZM51.2975 50.906C51.416 51.617 50.3497 50.6692 50.5865 51.4985C50.2312 51.4985 50.1127 51.2617 50.1127 51.0247C50.1127 50.6692 50.5865 50.6692 50.8237 50.5507C51.0605 50.4322 51.2975 50.7877 51.2975 50.906ZM47.1511 33.7279C46.5586 33.8461 46.5586 34.6756 46.0849 34.7941C45.9661 34.5571 46.2029 34.3204 45.8476 34.3204C45.8476 34.2016 45.9661 34.0831 45.9661 33.9646C46.4401 33.8461 46.6769 33.4909 47.1511 33.3724C47.2692 33.4909 47.1511 33.6094 47.1511 33.7279ZM40.8718 34.3204C40.5165 34.5571 40.1612 35.2679 39.5687 35.0309C39.095 32.8986 38.0287 31.003 38.1472 28.752C38.5025 27.9227 38.8577 29.226 39.095 29.581C39.8055 31.1215 39.6872 33.0171 40.8718 34.3204ZM48.9279 34.5571C48.9279 34.7941 48.4539 34.6756 48.3354 34.9126C48.5724 35.2679 49.1649 35.2679 48.9279 35.9787C48.9279 36.2157 48.0987 35.9787 48.4539 36.4529C48.3354 36.5712 47.6249 36.8082 48.0987 37.0449C48.0987 37.4004 47.5062 36.8082 47.1511 36.8082C46.7954 36.8082 46.5586 36.2157 46.6769 35.8604C46.9139 35.3866 47.0324 36.3342 47.5062 35.9787C47.5062 35.3866 47.5062 34.6756 47.9802 34.2016C48.3354 34.0831 48.6909 34.4386 48.9279 34.5571ZM49.2837 33.1356C48.4539 33.3723 48.9279 32.7801 49.0464 32.3061C49.9942 31.3583 49.4017 32.7801 49.2837 33.1356ZM49.7575 33.8461C49.6387 34.2016 49.0464 33.9646 48.6909 33.9646C48.5724 33.8461 48.2172 33.8461 48.4539 33.6094C48.9279 33.6094 49.5202 33.6094 49.7575 33.8461ZM40.8718 69.5062C40.5165 68.9139 40.7535 68.0841 40.1612 67.6104C40.0427 67.3736 40.1612 66.8996 40.3978 67.3736C40.9903 67.8474 40.9903 68.6766 40.8718 69.5062ZM43.9523 77.9176C43.8338 78.3914 43.0041 78.2729 42.5303 78.2729C42.5303 77.9176 43.1228 77.6803 43.4786 77.5623C43.7153 77.4436 43.8338 77.6803 43.9523 77.9176ZM50.7881 77.5682C50.6221 78.0076 49.6419 77.7984 49.1649 77.9176C49.0464 77.5623 49.9942 77.6803 50.1127 76.9698C50.3497 76.9698 50.6696 77.3312 50.7881 77.5682ZM40.635 73.8893C41.3455 74.1265 42.0565 74.008 42.649 74.4815C43.7613 74.9789 46.2843 77.5117 46.5899 77.1849C46.8266 77.5409 47.2913 77.8601 47.0548 78.3338L44.9537 78.618C44.5979 77.5518 43.9523 76.7328 43.2413 76.1403C42.649 75.9036 41.5828 76.2591 41.3455 75.785C41.2273 75.6665 41.1088 75.6665 40.8718 75.6665C40.0427 74.3635 38.384 72.9417 39.3315 71.283C39.6872 71.4015 39.6872 70.6904 40.0427 70.9277C40.0427 71.4882 39.2393 74.1995 40.635 73.8893ZM43.9523 73.0602C44.0703 73.1785 44.1891 73.2972 44.1891 73.4153C43.5966 73.534 43.3598 73.0602 43.1228 72.705C42.886 71.9937 43.0041 71.52 43.0041 70.8092C43.7153 70.3352 43.4786 71.0462 43.4786 71.4015C43.4786 72.4869 43.9523 72.2939 43.9523 73.0602ZM40.0427 69.6242C38.9765 70.4537 37.5547 70.8092 37.1992 72.231C36.9624 71.7567 36.8439 71.283 36.8439 70.8092C37.9102 70.3352 38.8577 69.8614 39.5687 69.0322C40.0427 68.3214 40.1612 69.3877 40.0427 69.6242ZM69.0676 50.7877C69.3046 51.854 69.7787 52.9203 69.6599 54.1046C69.4231 54.3418 69.0676 53.9866 68.8309 54.2233C68.4756 54.3418 68.1201 54.2233 67.7646 54.5791C68.1201 55.1708 68.9496 54.8158 69.5419 54.9341C71.6744 53.6311 74.5173 54.6973 76.7683 53.3943C77.8346 53.0388 77.8346 54.3418 78.3086 54.9341C77.8346 57.0666 77.7161 59.1989 78.1901 61.3315C78.0718 61.5685 77.9533 61.8055 77.5978 61.6867C77.0056 61.5685 77.7161 61.3315 77.5978 60.9762C77.2423 60.5022 76.7683 60.1467 77.1238 59.5542C77.5978 58.3699 77.3611 56.8296 77.1238 55.6451C76.6498 55.0528 76.0575 55.4081 75.7023 55.1708C73.5697 55.5268 71.5557 56.1191 70.1342 57.6591C69.5419 58.3699 68.5936 58.6067 67.6461 58.6067C66.8171 58.0147 66.9353 56.9484 66.1058 56.4744C65.3951 56.4744 64.8033 55.8821 64.3288 55.5268C64.3288 55.1708 64.2105 54.9341 64.092 54.6973C65.0398 54.9341 66.2246 54.8158 66.9353 55.5268C67.0538 55.6451 67.1721 55.4081 67.1721 55.2896C67.0538 53.7496 65.6323 53.3943 64.8033 52.4463C66.1058 52.5648 67.2908 53.157 68.3571 53.9866C68.8309 53.0388 68.9496 51.9725 68.8309 50.7877H69.0676ZM81.2707 73.534V73.7713C80.6781 73.7713 80.0859 74.008 79.4934 74.008C79.6119 73.4153 80.4411 73.4153 80.7966 73.0602C81.1521 73.0602 81.0334 73.4153 81.2707 73.534ZM42.6503 35.3141C42.4032 35.1388 42.0056 34.8155 41.8264 34.7767C41.4712 35.1319 40.1612 35.8604 40.0427 36.3342C40.0427 36.4529 40.0427 36.6894 40.1612 36.6894C40.7535 35.6234 41.7603 35.5981 42.6503 35.3141Z" fill="#FBBD09"/>
<defs>
<linearGradient id="paint0_linear_135_4588" x1="28.466" y1="110.662" x2="48.0732" y2="100.237" gradientUnits="userSpaceOnUse">
<stop stop-color="#A4D3E8"/>
<stop offset="0.2" stop-color="#A9D4E8"/>
<stop offset="0.3" stop-color="white"/>
<stop offset="1" stop-color="white"/>
</linearGradient>
<linearGradient id="paint1_linear_135_4588" x1="17.8857" y1="104.121" x2="40.4474" y2="86.4941" gradientUnits="userSpaceOnUse">
<stop stop-color="#A4D3E8"/>
<stop offset="0.13" stop-color="#B0D9E9"/>
<stop offset="0.28" stop-color="white"/>
<stop offset="1" stop-color="white"/>
</linearGradient>
<linearGradient id="paint2_linear_135_4588" x1="65.5863" y1="100.926" x2="83.0494" y2="109.07" gradientUnits="userSpaceOnUse">
<stop stop-color="white"/>
<stop offset="0.8" stop-color="#ABD7EB"/>
<stop offset="1" stop-color="#A4D3E8"/>
</linearGradient>
<linearGradient id="paint3_linear_135_4588" x1="71.2276" y1="85.9249" x2="93.6615" y2="103.452" gradientUnits="userSpaceOnUse">
<stop stop-color="white"/>
<stop offset="0.83" stop-color="#AED8EB"/>
<stop offset="1" stop-color="#A4D3E8"/>
</linearGradient>
</defs>
</svg>
