<svg  viewBox="0 0 102 102"  xmlns="http://www.w3.org/2000/svg">
<path d="M68.8603 64.8798C66.2772 64.8798 64.1019 66.5105 63.2862 68.774H38.8388C38.0231 66.5105 35.8478 64.8798 33.2646 64.8798C29.9893 64.8798 27.332 67.4962 27.332 70.7211C27.332 73.9461 29.9893 76.5625 33.2646 76.5625C35.8478 76.5625 38.0231 74.9318 38.8388 72.6683H63.2985C64.1143 74.9318 66.2895 76.5625 68.8727 76.5625C72.148 76.5625 74.8053 73.9461 74.8053 70.7211C74.8053 67.4962 72.1356 64.8798 68.8603 64.8798Z" />
<path d="M33.2646 60.9857C33.8208 60.9857 34.3647 60.7423 34.7354 60.3407C35.9961 58.9534 47.1074 46.5648 47.1074 39.5673C47.1074 32.0466 40.9029 25.9375 33.2646 25.9375C25.6264 25.9375 19.4219 32.0466 19.4219 39.5673C19.4219 46.5648 30.5332 58.9534 31.7939 60.3407C32.1646 60.7423 32.7085 60.9857 33.2646 60.9857ZM27.332 39.5673C27.332 36.3424 29.9893 33.726 33.2646 33.726C36.5399 33.726 39.1973 36.3424 39.1973 39.5673C39.1973 42.7923 36.5399 45.4087 33.2646 45.4087C29.9893 45.4087 27.332 42.7923 27.332 39.5673Z" />
<path d="M68.8604 60.9857C69.4165 60.9857 69.9604 60.7423 70.3311 60.3407C71.5918 58.9534 82.7031 46.5648 82.7031 39.5673C82.7031 32.0466 76.4986 25.9375 68.8604 25.9375C61.2221 25.9375 55.0176 32.0466 55.0176 39.5673C55.0176 46.5648 66.1289 58.9534 67.3896 60.3407C67.7603 60.7423 68.3042 60.9857 68.8604 60.9857ZM62.9277 39.5673C62.9277 36.3424 65.5851 33.726 68.8604 33.726C72.1357 33.726 74.793 36.3424 74.793 39.5673C74.793 42.7923 72.1357 45.4087 68.8604 45.4087C65.5851 45.4087 62.9277 42.7923 62.9277 39.5673Z" />
</svg>
