<svg  viewBox="0 0 82 82" xmlns="http://www.w3.org/2000/svg">
<path d="M56.8511 42.3743L56.5202 39.1145L54.7008 42.3743H56.8511Z"/>
<path d="M28.5275 42.3743L28.1968 39.1145L26.3773 42.3743H28.5275Z"/>
<path fill-rule="evenodd" clip-rule="evenodd" d="M19.375 26.0625C17.3039 26.0625 15.625 27.6575 15.625 29.625V54.5625C15.625 56.53 17.3039 58.125 19.375 58.125H62.5C64.5711 58.125 66.25 56.53 66.25 54.5625V29.625C66.25 27.6575 64.5711 26.0625 62.5 26.0625H19.375ZM49.5736 46.1016L55.3624 36.75H58.8957L60.625 46.1016H57.2117L57.0314 44.2047H53.6633L52.6411 46.1016H49.5736ZM50.2082 40.7842L48.0743 40.7846L48.5398 38.6469H53.0642L54.2384 36.75H45.5374L45.992 40.7846H44.9919L43.8337 46.1016H46.9158L47.7858 42.1086L49.3965 42.1079L50.2082 40.7842ZM21.25 46.1016L27.0389 36.75H30.5724L31.896 43.9088C33.904 43.8939 34.7735 42.3993 36.015 36.75H44.6405L42.4281 40.7846H43.4283L42.2698 46.1016H39.1726L40.7965 38.6471H38.5261C37.7081 41.7995 36.9214 43.8298 35.5539 44.9626C34.4674 45.8624 33.1115 46.1016 31.7169 46.1016H28.8881L28.7078 44.2047H25.34L24.3175 46.1016H21.25Z"/>
</svg>
