<svg viewBox="0 0 121 120"  xmlns="http://www.w3.org/2000/svg">
<path fill-rule="evenodd" clip-rule="evenodd" d="M31.2594 63.4071C30.1194 62.2138 30.1191 60.2859 31.2594 59.0927L31.2618 59.0901L48.6215 41.0278C48.711 40.9228 48.8068 40.8253 48.9075 40.7355C50.1401 39.6369 51.9948 39.7861 53.0506 41.0686C54.096 42.3385 53.9662 44.2429 52.7694 45.3474L40.4345 58.1816L87.4655 58.1816C89.0871 58.1816 90.4043 59.5497 90.4043 61.2408C90.4043 62.9317 89.0873 64.3001 87.4655 64.3001L40.432 64.3001L52.7696 77.1526C52.8704 77.2456 52.9641 77.3451 53.0503 77.4499C54.1071 78.7336 53.9632 80.6659 52.73 81.7647C51.5107 82.8513 49.6828 82.7168 48.6216 81.4722L31.2594 63.4071Z"/>
</svg>
