<svg viewBox="0 0 82 82" xmlns="http://www.w3.org/2000/svg">
<path d="M38.7743 18.0216C39.4797 17.5196 40.3233 17.25 41.1883 17.25C42.0532 17.25 42.8968 17.5196 43.6022 18.0216L61.9126 31.0466C64.1874 32.6653 63.0484 36.2603 60.2606 36.2666H22.1253C19.3281 36.2666 18.1829 32.6684 20.467 31.0466L38.7743 18.0216ZM41.1898 29.6004C41.8815 29.6004 42.5448 29.3249 43.0339 28.8346C43.523 28.3442 43.7978 27.6791 43.7978 26.9857C43.7978 26.2922 43.523 25.6271 43.0339 25.1368C42.5448 24.6464 41.8815 24.3709 41.1898 24.3709C40.4981 24.3709 39.8348 24.6464 39.3457 25.1368C38.8566 25.6271 38.5819 26.2922 38.5819 26.9857C38.5819 27.6791 38.8566 28.3442 39.3457 28.8346C39.8348 29.3249 40.4981 29.6004 41.1898 29.6004Z" />
<path d="M23.9808 39.4036V51.9518H30.2386V39.4036H23.9808Z" />
<path d="M19.2874 61.8868C19.2874 58.1318 22.3224 55.0889 26.0646 55.0889H56.3119C60.0572 55.0889 63.0922 58.1318 63.0922 61.8868V62.9315C63.0922 63.3475 62.9274 63.7464 62.634 64.0406C62.3406 64.3347 61.9427 64.5 61.5278 64.5H20.8519C20.4369 64.5 20.039 64.3347 19.7456 64.0406C19.4522 63.7464 19.2874 63.3475 19.2874 62.9315V61.8868Z" />
<path d="M58.3989 39.4036V51.9518H52.141V39.4036H58.3989Z" />
<path d="M49.0121 39.4036V51.9518H42.7543V39.4036H49.0121Z" />
<path d="M39.6254 39.4036V51.9518H33.3675V39.4036H39.6254Z" />
</svg>
