<svg  viewBox="0 0 82 81"  xmlns="http://www.w3.org/2000/svg">
<path fill-rule="evenodd" clip-rule="evenodd" d="M31.7808 22.0874C30.7618 22.3498 30.0145 22.7815 29.1812 23.589C28.5754 24.176 28.3807 24.4319 28.0962 25.0155C27.5264 26.1841 27.4767 26.5525 27.4767 29.6132V32.2953H24.321C20.552 32.2953 20.5141 32.3014 19.7544 33.0431C18.985 33.7942 18.9784 33.8341 19.0088 37.5805C19.0336 40.6389 19.0382 40.712 19.2275 41.0578C19.7258 41.9682 20.4004 42.3811 21.537 42.4712C22.2068 42.5243 22.2422 42.5373 22.286 42.7454C22.3112 42.8655 22.9338 46.202 23.6693 50.1598C24.405 54.1176 25.0582 57.4759 25.121 57.6228C25.2799 57.9941 25.9014 58.6315 26.3158 58.8481L26.6625 59.0294L40.8011 59.0513C56.4948 59.0755 55.3783 59.1145 56.0928 58.5174C56.8585 57.8777 56.6864 58.6274 59.2994 44.5536L59.6722 42.5454L60.2636 42.4811C61.0982 42.3903 61.4256 42.2899 61.8379 41.9984C62.2354 41.7172 62.6604 41.1227 62.7904 40.6657C62.8381 40.4977 62.8747 39.0831 62.875 37.3937C62.8756 33.8325 62.8662 33.7789 62.111 33.0416C61.353 32.3017 61.3137 32.2953 57.5458 32.2953H54.3901V29.6669C54.3901 26.7351 54.3199 26.1248 53.876 25.1988C53.1707 23.7275 52.067 22.7385 50.5102 22.1827L49.8902 21.9614L41.1477 21.9439C32.7648 21.9272 32.3794 21.9331 31.7808 22.0874ZM49.7188 27.0107L49.7686 32.2953H32.1051V29.7808C32.1051 27.0013 32.1199 26.9145 32.645 26.602C32.912 26.443 33.1368 26.4386 40.999 26.4384L49.0785 26.438L49.7188 27.0107ZM34.5728 39.5668C34.9748 39.7681 35.2321 40.0366 35.4009 40.4311C35.5157 40.6991 35.5336 41.4179 35.5336 45.7465V50.7519L35.3407 51.1204C35.2346 51.3231 35.0018 51.6024 34.8233 51.741C34.2031 52.2227 33.127 52.1207 32.5592 51.5266C32.1005 51.0464 32.105 51.1042 32.107 45.7068C32.1088 41.0225 32.1189 40.6833 32.2671 40.3699C32.6659 39.5264 33.7429 39.1513 34.5728 39.5668ZM41.6433 39.5203C42.0194 39.6741 42.541 40.2577 42.6037 40.595C42.6319 40.7473 42.6438 43.1527 42.6299 45.9404L42.6048 51.009L42.3982 51.3032C42.0656 51.7769 41.6749 51.9893 41.0662 52.0271C40.2187 52.0798 39.586 51.6647 39.3167 50.8795C39.2481 50.6796 39.2194 49.1369 39.22 45.6917L39.2209 40.7882L39.4244 40.3616C39.6215 39.9482 39.9284 39.6604 40.3459 39.4971C40.6459 39.3798 41.3294 39.392 41.6433 39.5203ZM48.9125 39.6024C49.1606 39.7303 49.3785 39.9363 49.5474 40.2024L49.8045 40.6078V50.8292L49.6076 51.1892C49.4865 51.4106 49.2557 51.6463 49.0077 51.8018C48.6442 52.0296 48.5488 52.0517 48.0379 52.0255C47.3109 51.9883 46.8687 51.7225 46.5793 51.1485L46.3761 50.7455V45.8506C46.3761 43.1583 46.4072 40.8122 46.4452 40.6368C46.5253 40.2675 47.0281 39.6842 47.4046 39.5238C47.8211 39.3463 48.4827 39.3808 48.9125 39.6024Z" />
</svg>
