<svg  viewBox="0 0 102 102"  xmlns="http://www.w3.org/2000/svg">
<path d="M73.9229 37.2942C73.4656 32.7444 72.7034 29.136 71.6363 27.8809C66.9104 22.0761 33.9821 21.6055 30.1709 27.7241C29.2563 29.2929 28.6465 32.7444 28.1891 37.2942C26.8171 37.4511 25.75 38.7062 25.75 40.1181V45.7661C25.75 47.0212 26.5122 48.1194 27.5794 48.4332C27.2745 57.2188 27.5794 66.3183 27.8842 70.868C27.8842 74.3195 30.1709 73.8489 30.1709 73.8489H32.3052V77.6142C32.3052 79.183 33.8296 80.2812 35.659 80.2812C37.4883 80.2812 39.0128 79.0261 39.0128 77.6142V73.8489H64.014V77.6142C64.014 79.183 65.5384 80.2812 67.3678 80.2812C69.1971 80.2812 70.7216 79.0261 70.7216 77.6142V73.8489H71.4838C71.4838 73.8489 74.2278 74.1627 74.3803 72.5938C74.3803 68.0441 74.6852 58.0033 74.3803 48.4332C75.4474 48.1194 76.3621 47.0212 76.3621 45.7661V40.1181C76.5145 38.5493 75.295 37.4511 73.9229 37.2942ZM38.2506 28.6654H63.5566V32.5876H38.2506V28.6654ZM38.5555 69.2991C36.5737 69.2991 34.8968 67.5734 34.8968 65.5339C34.8968 63.4943 36.5737 61.7686 38.5555 61.7686C40.5373 61.7686 42.2142 63.4943 42.2142 65.5339C42.2142 67.7303 40.5373 69.2991 38.5555 69.2991ZM63.4042 69.2991C61.4224 69.2991 59.7455 67.5734 59.7455 65.5339C59.7455 63.4943 61.4224 61.7686 63.4042 61.7686C65.386 61.7686 67.0629 63.4943 67.0629 65.5339C67.0629 67.7303 65.386 69.2991 63.4042 69.2991ZM67.9776 53.1398H33.8296V34.784H67.9776V53.1398Z" />
</svg>
