<svg  viewBox="0 0 82 82"  xmlns="http://www.w3.org/2000/svg">
<path d="M64.1113 26.0625H32.4456C31.2276 26.0625 29.6829 26.7985 28.929 27.7383L24.1208 33.732C23.4944 34.5128 22.1895 35.5252 21.2714 35.9427L17.905 37.4741C16.7665 37.9916 15.875 39.3621 15.875 40.5939V49.3615C15.875 50.6553 16.9467 51.7077 18.2641 51.7077H19.3281C20.1378 54.4368 22.7062 56.4375 25.7429 56.4375C28.7796 56.4375 31.3479 54.4368 32.1576 51.7077H46.447C47.2568 54.4368 49.8251 56.4375 52.8618 56.4375C55.8985 56.4375 58.4666 54.4368 59.2761 51.7077H64.1109C65.4283 51.7077 66.5 50.6553 66.5 49.3615V28.4089C66.5006 27.1151 65.4287 26.0625 64.1113 26.0625ZM25.7431 53.1353C23.9102 53.1353 22.4241 51.6759 22.4241 49.8759C22.4241 48.0759 23.9102 46.6165 25.7431 46.6165C27.576 46.6165 29.0621 48.0757 29.0621 49.8759C29.0621 51.6759 27.576 53.1353 25.7431 53.1353ZM39.5402 35.7408C39.5402 36.3985 38.9923 36.9294 38.3228 36.9206L27.5677 36.7787C26.8982 36.77 26.6853 36.3371 27.0952 35.817L31.4936 30.2313C31.9036 29.7111 32.7865 29.2854 33.4562 29.2854H38.3226C38.9923 29.2854 39.5402 29.8235 39.5402 30.4812V35.7408ZM43.056 36.9366C42.3863 36.9366 41.8384 36.3985 41.8384 35.7408V30.4929C41.8384 29.8353 42.3863 29.2972 43.056 29.2972H50.2196C50.8893 29.2972 51.4372 29.8353 51.4372 30.4929V35.7408C51.4372 36.3985 50.8893 36.9366 50.2196 36.9366H43.056ZM52.8622 53.1353C51.0295 53.1353 49.5434 51.6759 49.5434 49.8759C49.5434 48.0759 51.0293 46.6165 52.8622 46.6165C54.6951 46.6165 56.1812 48.0757 56.1812 49.8759C56.1812 51.6759 54.6951 53.1353 52.8622 53.1353ZM63.1 35.7408C63.1 36.3985 62.5521 36.9366 61.8824 36.9366H54.7189C54.0492 36.9366 53.5013 36.3985 53.5013 35.7408V30.4929C53.5013 29.8353 54.0492 29.2972 54.7189 29.2972H61.8824C62.5521 29.2972 63.1 29.8353 63.1 30.4929V35.7408Z" />
</svg>
