<svg viewBox="0 0 102 102"  xmlns="http://www.w3.org/2000/svg">
<path d="M71.0796 46.4988C71.1473 38.7665 64.3844 31.678 56.0041 30.6978C55.8374 30.6786 55.6559 30.6493 55.4637 30.6183C55.0488 30.5514 54.6197 30.4826 54.1869 30.4826C52.4693 30.4826 52.0102 31.6574 51.8893 32.3581C51.7718 33.0394 51.8839 33.6115 52.222 34.0593C52.7908 34.8125 53.7916 34.9462 54.5954 35.0533C54.831 35.085 55.0533 35.1145 55.2394 35.1552C62.7688 36.7935 65.304 39.3693 66.5431 46.6389C66.5733 46.8166 66.587 47.0354 66.6015 47.2676C66.6555 48.1366 66.7682 49.9445 68.7642 49.9445C68.9303 49.9445 69.1091 49.9306 69.295 49.903C71.1537 49.6279 71.0955 47.9753 71.0675 47.1812C71.0596 46.9576 71.0521 46.7461 71.0715 46.6054C71.0768 46.5699 71.0794 46.5343 71.0796 46.4988Z" />
<path d="M53.6996 27.8596C53.9226 27.8753 54.1337 27.8903 54.3095 27.9165C66.6734 29.7681 72.3594 35.4725 73.9351 47.6065C73.9618 47.8128 73.966 48.0643 73.9704 48.3307C73.9862 49.2787 74.0185 51.2509 76.1935 51.2918L76.261 51.2925C76.9431 51.2925 77.4857 51.0922 77.8738 50.6967C78.5508 50.007 78.5036 48.9826 78.4655 48.1592C78.4562 47.9572 78.4473 47.767 78.4496 47.6004C78.6068 35.1904 67.5755 23.9371 54.8429 23.5186C54.7901 23.5169 54.7397 23.5196 54.6888 23.5266C54.6388 23.5328 54.5884 23.5354 54.5381 23.5346C54.4111 23.5346 54.2549 23.5239 54.0893 23.513C53.889 23.4997 53.662 23.4844 53.4318 23.4844C51.4041 23.4844 51.0186 24.8878 50.9693 25.7244C50.8556 27.6579 52.7764 27.794 53.6996 27.8596ZM73.3385 63.2891C73.0728 63.0932 72.8098 62.894 72.5493 62.6916C71.1994 61.6337 69.7632 60.6586 68.3743 59.7155C68.0861 59.5202 67.7982 59.3244 67.5106 59.1281C65.7315 57.9112 64.132 57.3198 62.6208 57.3198C60.5854 57.3198 58.8108 58.415 57.3462 60.5745C56.6973 61.5319 55.91 61.9973 54.9398 61.9973C54.3661 61.9973 53.7143 61.8379 53.0026 61.5233C47.2599 58.9874 43.1592 55.0993 40.8143 49.967C39.6807 47.4864 40.0482 45.865 42.0432 44.5453C43.176 43.7966 45.2847 42.4027 45.1353 39.7334C44.9662 36.7022 38.098 27.5816 35.2042 26.5457C33.979 26.107 32.6917 26.1029 31.3711 26.5355C28.0444 27.6246 25.6571 29.5371 24.4667 32.066C23.3164 34.5096 23.3683 37.3789 24.617 40.3636C28.2267 48.9931 33.3017 56.5169 39.7017 62.7256C45.9661 68.8034 53.6656 73.7819 62.5862 77.5223C63.3902 77.8592 64.2336 78.043 64.8494 78.1771C65.0593 78.223 65.2405 78.2622 65.3726 78.2975C65.4452 78.3167 65.52 78.3271 65.5951 78.3278L65.6656 78.3281C69.8612 78.3281 74.8993 74.5947 76.4466 70.3383C77.8021 66.6114 75.3272 64.7692 73.3385 63.2891ZM55.5553 37.7171C54.837 37.7348 53.3421 37.771 52.8175 39.2536C52.5721 39.9465 52.6015 40.5481 52.905 41.0416C53.3503 41.7659 54.2035 41.9878 54.9795 42.1096C57.7939 42.5493 59.2393 44.0649 59.5285 46.8786C59.6628 48.1906 60.57 49.1067 61.7349 49.1067C61.821 49.1067 61.9091 49.1018 61.9967 49.0914C63.3977 48.9291 64.0769 47.9267 64.0155 46.1125C64.0379 44.219 63.0203 42.0694 61.2896 40.3571C59.553 38.6396 57.4595 37.6723 55.5553 37.7171Z" />
</svg>
