<svg viewBox="0 0 82 82" xmlns="http://www.w3.org/2000/svg">
<path d="M33.2031 27.9687H48.6719C49.5227 27.9687 50.2188 27.2568 50.2188 26.3867V20.0586C50.2188 19.1885 49.5227 18.4766 48.6719 18.4766H45.3074C44.679 16.6375 42.9581 15.3125 40.9375 15.3125C38.9169 15.3125 37.196 16.6375 36.5579 18.4766H33.2031C32.3523 18.4766 31.6562 19.1885 31.6562 20.0586V26.3867C31.6562 27.2568 32.3523 27.9687 33.2031 27.9687Z" />
<path d="M56.4062 21.6406H53.3125V26.3867C53.3125 29.007 51.2339 31.1328 48.6719 31.1328H33.2031C30.6411 31.1328 28.5625 29.007 28.5625 26.3867V21.6406H25.4688C23.7672 21.6406 22.375 23.0645 22.375 24.8047V62.7734C22.375 64.5532 23.7285 65.9375 25.4688 65.9375H56.4062C58.1465 65.9375 59.5 64.5532 59.5 62.7734V24.8047C59.5 23.0249 58.1465 21.6406 56.4062 21.6406ZM40.4831 49.6525L34.2956 55.9806C33.9959 56.2871 33.5995 56.4453 33.2031 56.4453C32.8067 56.4453 32.4104 56.2871 32.1106 55.9806L29.0169 52.8165C28.4175 52.2035 28.4175 51.1949 29.0169 50.5819C29.6163 49.9689 30.6024 49.9689 31.2019 50.5819L33.2031 52.6287L38.2981 47.4178C38.8976 46.8048 39.8837 46.8048 40.4831 47.4178C41.0825 48.0309 41.0922 49.0394 40.4831 49.6525ZM40.4831 36.9962L34.2956 43.3243C33.9959 43.6309 33.5995 43.7891 33.2031 43.7891C32.8067 43.7891 32.4104 43.6309 32.1106 43.3243L29.0169 40.1603C28.4175 39.5472 28.4175 38.5387 29.0169 37.9257C29.6163 37.3126 30.6024 37.3126 31.2019 37.9257L33.2031 39.9724L38.2981 34.7616C38.8976 34.1486 39.8837 34.1486 40.4831 34.7616C41.0825 35.3746 41.0922 36.3832 40.4831 36.9962ZM51.7656 53.2812H45.5781C44.7273 53.2812 44.0312 52.5693 44.0312 51.6992C44.0312 50.8291 44.7273 50.1172 45.5781 50.1172H51.7656C52.6164 50.1172 53.3125 50.8291 53.3125 51.6992C53.3125 52.5693 52.6164 53.2812 51.7656 53.2812ZM51.7656 40.625H45.5781C44.7273 40.625 44.0312 39.9131 44.0312 39.043C44.0312 38.1729 44.7273 37.4609 45.5781 37.4609H51.7656C52.6164 37.4609 53.3125 38.1729 53.3125 39.043C53.3125 39.9131 52.6164 40.625 51.7656 40.625Z" />
</svg>
