<svg  viewBox="0 0 102 102"  xmlns="http://www.w3.org/2000/svg">
<path fill-rule="evenodd" clip-rule="evenodd" d="M39.5097 24.0695C39.1002 23.9458 38.6678 23.9203 38.2468 23.9951C37.8259 24.0699 37.4281 24.2429 37.0853 24.5003C36.7424 24.7578 36.464 25.0925 36.2721 25.4777C36.0803 25.863 35.9804 26.2882 35.9805 26.7193V78.7969H45.5781V69.116C45.5781 68.3824 45.867 67.6789 46.3813 67.1602C46.8956 66.6414 47.593 66.35 48.3203 66.35H53.8047C54.532 66.35 55.2294 66.6414 55.7437 67.1602C56.258 67.6789 56.5469 68.3824 56.5469 69.116V78.7969H66.1445V34.1874C66.1446 33.5923 65.9544 33.0131 65.6021 32.5358C65.2499 32.0584 64.7545 31.7084 64.1894 31.5376L39.5097 24.0695ZM45.5781 40.0734C45.2145 40.0734 44.8657 40.2191 44.6086 40.4784C44.3515 40.7378 44.207 41.0896 44.207 41.4563V44.2223C44.207 44.5891 44.3515 44.9409 44.6086 45.2002C44.8657 45.4596 45.2145 45.6053 45.5781 45.6053H48.3203C48.6839 45.6053 49.0327 45.4596 49.2898 45.2002C49.547 44.9409 49.6914 44.5891 49.6914 44.2223V41.4563C49.6914 41.0896 49.547 40.7378 49.2898 40.4784C49.0327 40.2191 48.6839 40.0734 48.3203 40.0734H45.5781ZM44.207 49.7542C44.207 49.3875 44.3515 49.0357 44.6086 48.7763C44.8657 48.517 45.2145 48.3713 45.5781 48.3713H48.3203C48.6839 48.3713 49.0327 48.517 49.2898 48.7763C49.547 49.0357 49.6914 49.3875 49.6914 49.7542V52.5202C49.6914 52.887 49.547 53.2388 49.2898 53.4981C49.0327 53.7575 48.6839 53.9032 48.3203 53.9032H45.5781C45.2145 53.9032 44.8657 53.7575 44.6086 53.4981C44.3515 53.2388 44.207 52.887 44.207 52.5202V49.7542ZM45.5781 56.6692C45.2145 56.6692 44.8657 56.8149 44.6086 57.0742C44.3515 57.3336 44.207 57.6853 44.207 58.0521V60.8181C44.207 61.1849 44.3515 61.5367 44.6086 61.796C44.8657 62.0554 45.2145 62.2011 45.5781 62.2011H48.3203C48.6839 62.2011 49.0327 62.0554 49.2898 61.796C49.547 61.5367 49.6914 61.1849 49.6914 60.8181V58.0521C49.6914 57.6853 49.547 57.3336 49.2898 57.0742C49.0327 56.8149 48.6839 56.6692 48.3203 56.6692H45.5781ZM52.4336 41.4563C52.4336 41.0896 52.578 40.7378 52.8352 40.4784C53.0923 40.2191 53.441 40.0734 53.8047 40.0734H56.5469C56.9105 40.0734 57.2593 40.2191 57.5164 40.4784C57.7735 40.7378 57.918 41.0896 57.918 41.4563V44.2223C57.918 44.5891 57.7735 44.9409 57.5164 45.2002C57.2593 45.4596 56.9105 45.6053 56.5469 45.6053H53.8047C53.441 45.6053 53.0923 45.4596 52.8352 45.2002C52.578 44.9409 52.4336 44.5891 52.4336 44.2223V41.4563ZM53.8047 48.3713C53.441 48.3713 53.0923 48.517 52.8352 48.7763C52.578 49.0357 52.4336 49.3875 52.4336 49.7542V52.5202C52.4336 52.887 52.578 53.2388 52.8352 53.4981C53.0923 53.7575 53.441 53.9032 53.8047 53.9032H56.5469C56.9105 53.9032 57.2593 53.7575 57.5164 53.4981C57.7735 53.2388 57.918 52.887 57.918 52.5202V49.7542C57.918 49.3875 57.7735 49.0357 57.5164 48.7763C57.2593 48.517 56.9105 48.3713 56.5469 48.3713H53.8047ZM52.4336 58.0521C52.4336 57.6853 52.578 57.3336 52.8352 57.0742C53.0923 56.8149 53.441 56.6692 53.8047 56.6692H56.5469C56.9105 56.6692 57.2593 56.8149 57.5164 57.0742C57.7735 57.3336 57.918 57.6853 57.918 58.0521V60.8181C57.918 61.1849 57.7735 61.5367 57.5164 61.796C57.2593 62.0554 56.9105 62.2011 56.5469 62.2011H53.8047C53.441 62.2011 53.0923 62.0554 52.8352 61.796C52.578 61.5367 52.4336 61.1849 52.4336 60.8181V58.0521Z" />
<path d="M33.2383 78.7969V31.7755H29.125C28.3977 31.7755 27.7002 32.0669 27.186 32.5856C26.6717 33.1043 26.3828 33.8079 26.3828 34.5414V76.0309H25.0117C24.6481 76.0309 24.2993 76.1766 24.0422 76.436C23.7851 76.6953 23.6406 77.0471 23.6406 77.4139C23.6406 77.7807 23.7851 78.1325 24.0422 78.3918C24.2993 78.6512 24.6481 78.7969 25.0117 78.7969H33.2383ZM77.1133 78.7969H68.8867V42.2336L74.3601 45.3868C74.7806 45.6291 75.13 45.9794 75.3728 46.402C75.6155 46.8247 75.743 47.3047 75.7422 47.7932V76.0309H77.1133C77.4769 76.0309 77.8257 76.1766 78.0828 76.436C78.3399 76.6953 78.4844 77.0471 78.4844 77.4139C78.4844 77.7807 78.3399 78.1325 78.0828 78.3918C77.8257 78.6512 77.4769 78.7969 77.1133 78.7969ZM53.8047 78.7969V69.116H48.3203V78.7969H53.8047Z" />
</svg>
