<svg  viewBox="0 0 82 81"  xmlns="http://www.w3.org/2000/svg">
<path d="M24.7062 56.6688C25.1771 57.1396 25.7939 57.375 26.4107 57.375C27.0275 57.375 27.6443 57.1396 28.1151 56.6688L40.875 43.9089L53.6348 56.6687C54.1056 57.1395 54.7224 57.3749 55.3392 57.3749C55.956 57.3749 56.5728 57.1395 57.0437 56.6687C57.9854 55.727 57.9854 54.2015 57.0437 53.2598L44.2839 40.5L57.0437 27.7402C57.9854 26.7985 57.9854 25.273 57.0437 24.3313C56.1032 23.3896 54.5754 23.3896 53.6348 24.3313L40.875 37.0911L28.1152 24.3313C27.1747 23.3896 25.6468 23.3896 24.7063 24.3313C23.7646 25.273 23.7646 26.7985 24.7062 27.7402L37.4661 40.5L24.7062 53.2598C23.7646 54.2015 23.7646 55.7271 24.7062 56.6688Z" />
</svg>
