<svg  viewBox="0 0 82 82"  xmlns="http://www.w3.org/2000/svg">
<path fill-rule="evenodd" clip-rule="evenodd" d="M44.7868 16.5285C43.651 17.2855 42.8284 17.9908 41.9796 18.9356C38.3414 22.9851 36.3003 29.4493 36.2931 36.9452L36.291 38.9828L35.6869 38.6664C34.5316 38.0614 33.2424 36.654 32.6098 35.307C32.0707 34.1591 31.6471 32.248 31.6462 30.9601L31.6459 30.5508L31.0895 30.8979C29.3577 31.9785 27.3476 33.8172 26.1443 35.4216C19.6557 44.0726 21.7634 56.1442 30.7819 61.9831C36.1983 65.4899 43.13 65.9396 48.9542 63.1622C55.7431 59.9247 59.7981 53.2045 59.4829 45.7131C59.2988 41.3388 57.982 37.7215 55.1316 33.76C54.7532 33.2341 53.658 31.8409 52.6979 30.6642C49.1601 26.3279 48.3014 25.1237 47.2688 23.0501C46.2792 21.0625 45.7743 19.2271 45.6065 17.0066L45.5329 16.0312L44.7868 16.5285ZM49.6836 39.8322C50.0977 42.3282 50.1739 43.2327 50.1747 45.6653C50.1754 47.4424 50.134 48.2736 50.0031 49.1078C49.2878 53.6642 47.5264 56.4794 44.4684 57.9539C41.6139 59.3303 38.801 59.1008 36.5079 57.3044C34.8571 56.0111 33.9392 54.0826 33.9491 51.9287C33.9587 49.8543 34.8489 47.9806 36.4413 46.6826C37.2768 46.0017 38.1814 45.5769 39.6943 45.1553C43.0046 44.2328 45.4715 42.9613 47.1868 41.2937C47.9999 40.503 48.811 39.3974 49.1208 38.6573C49.2226 38.414 49.3356 38.2454 49.3718 38.2825C49.4081 38.3196 49.5484 39.017 49.6836 39.8322Z" />
</svg>
