<svg  viewBox="0 0 82 82"  xmlns="http://www.w3.org/2000/svg">
<path d="M51.3231 32.5442L51.2725 32.5688C51.8547 33.2315 52.3609 34.0169 52.7406 34.8269L52.9684 35.2933C54.7656 39.4415 53.5 44.2278 50.1841 47.2224C47.1719 49.8978 42.97 50.6097 39.0719 50.1188C35.3763 49.6769 31.9844 47.4187 30.0353 44.3015C29.4531 43.3442 28.9469 42.2642 28.6937 41.1597C28.3647 40.2515 28.2634 39.3678 28.1875 38.4597C27.9597 34.5324 29.5797 30.3597 32.6425 27.9051C31.2503 30.8751 31.5794 34.5815 33.6297 37.1588L33.9081 37.4778C34.2625 37.7724 34.6928 37.8706 35.0978 37.6988C35.4775 37.5515 35.7812 37.1833 35.7812 36.7415L35.6041 36.2015C33.3766 30.5069 35.2497 23.8551 39.9831 20.0997C41.2741 19.0688 42.8687 18.136 44.5394 17.7188C42.8181 21.0569 43.375 25.426 46.1341 28.0524C47.2984 29.206 48.6906 29.9669 49.9056 31.0469L51.3231 32.5442ZM45.5519 43.9333L45.5266 43.9088C46.6656 42.9515 47.2984 41.3069 47.2478 39.8342L47.1719 39.0487C46.6656 36.5942 44.4634 35.7842 43.0459 33.9924C42.6156 33.4524 42.2359 32.7651 41.9575 32.0778C41.4006 33.3051 41.35 34.4587 41.5778 35.7842C41.8309 37.1833 42.4131 38.386 42.1094 39.8342C41.7044 41.4297 40.4134 43.0251 38.1606 43.5406C39.4262 44.7433 41.4766 45.7006 43.5269 45.0133C44.185 44.8415 45.0203 44.3751 45.5519 43.9333ZM38.3125 55.1506V57.6051C38.3125 58.9551 39.4516 60.0597 40.8438 60.0597C42.2359 60.0597 43.375 58.9551 43.375 57.6051V55.1506H48.4375V57.6051C48.4375 58.9551 49.5766 60.0597 50.9688 60.0597C52.3609 60.0597 53.5 58.9551 53.5 57.6051V55.1506C56.3097 55.1506 61.0938 57.3597 61.0938 60.0597V64.9688H20.5938V60.0597C20.5938 57.3597 25.4031 55.1506 28.1875 55.1506V57.6051C28.1875 58.9551 29.3266 60.0597 30.7188 60.0597C32.1109 60.0597 33.25 58.9551 33.25 57.6051V55.1506H38.3125Z" />
</svg>
