<svg  viewBox="0 0 102 102" xmlns="http://www.w3.org/2000/svg">
<path fill-rule="evenodd" clip-rule="evenodd" d="M31.4724 21.5039C30.8129 21.8526 30.5484 22.3603 30.5484 23.2772C30.5484 23.6693 30.5169 24.0724 30.4784 24.1727C30.4062 24.3606 29.4982 24.8162 29.1958 24.8162C29.1022 24.8162 28.7592 24.5768 28.4338 24.2842C27.753 23.6721 27.4846 23.5478 26.8433 23.5478C26.2204 23.5478 26.0166 23.6693 25.0338 24.6274C24.0573 25.5793 23.8603 25.8989 23.8603 26.5327C23.8603 27.1719 23.985 27.441 24.5967 28.1213C24.8893 28.4467 25.1287 28.7897 25.1287 28.8833C25.1287 29.1857 24.6731 30.0937 24.4852 30.1659C24.3849 30.2044 23.9818 30.2359 23.5897 30.2359C22.6728 30.2359 22.1651 30.5004 21.8164 31.1599C21.4512 31.8505 21.4326 33.8329 21.7847 34.5601C22.1034 35.2185 22.7017 35.5402 23.6071 35.5402C24.5328 35.5402 24.6522 35.6008 24.9093 36.2006C25.2148 36.9133 25.1913 37.0467 24.6713 37.5545C24.101 38.1115 23.8603 38.6075 23.8603 39.2264C23.8603 39.8696 23.9768 40.0668 24.9399 41.0548C25.9047 42.0446 26.2096 42.2283 26.8878 42.2283C27.4296 42.2283 28.1747 41.8308 28.6946 41.2644C29.0287 40.9005 29.2099 40.8886 29.901 41.1849C30.4838 41.4346 30.516 41.5065 30.5757 42.6923C30.6209 43.5879 30.8467 43.9608 31.5567 44.3122C31.9855 44.5245 32.209 44.5497 33.3648 44.5157C34.4848 44.4828 34.7326 44.4406 35.0087 44.2357C35.6182 43.7835 35.8527 43.3036 35.8527 42.509C35.8527 41.5538 35.9104 41.4376 36.5131 41.1793C37.1907 40.8889 37.3737 40.9019 37.7065 41.2644C38.2272 41.8318 38.9715 42.2283 39.5153 42.2283C40.1837 42.2283 40.3731 42.118 41.3673 41.1488C42.3571 40.184 42.5408 39.8791 42.5408 39.2008C42.5408 38.6591 42.1433 37.9139 41.5769 37.394C41.2144 37.0612 41.2014 36.8782 41.4918 36.2006C41.7501 35.5979 41.8663 35.5402 42.8215 35.5402C43.6161 35.5402 44.096 35.3057 44.5482 34.6962C44.7531 34.4201 44.7953 34.1723 44.8282 33.0523C44.8622 31.8965 44.837 31.673 44.6247 31.2442C44.2733 30.5342 43.9004 30.3084 43.0048 30.2632C41.819 30.2035 41.7471 30.1713 41.4974 29.5885C41.2011 28.8974 41.213 28.7162 41.5769 28.3821C42.1433 27.8622 42.5408 27.1171 42.5408 26.5753C42.5408 25.8971 42.3571 25.5922 41.3673 24.6274C40.3793 23.6643 40.1821 23.5478 39.5389 23.5478C38.92 23.5478 38.424 23.7885 37.867 24.3588C37.3592 24.8788 37.2258 24.9023 36.5131 24.5968C35.9133 24.3397 35.8527 24.2203 35.8527 23.2946C35.8527 22.3892 35.531 21.7909 34.8726 21.4722C34.1454 21.1201 32.163 21.1387 31.4724 21.5039ZM34.6297 29.642C36.6176 30.5214 37.3309 32.9814 36.1309 34.8188C34.6064 37.153 31.0927 36.8463 29.9321 34.2777C29.6042 33.5521 29.6042 32.224 29.9321 31.4984C30.7506 29.6869 32.853 28.8561 34.6297 29.642ZM55.5869 35.6981C55.029 35.9 54.339 36.5177 54.0477 37.0761C53.8352 37.4834 53.7859 37.8178 53.7303 39.2302C53.6491 41.2964 53.5967 41.3973 52.2873 42.0061C50.0315 43.0551 49.7836 43.0307 48.3144 41.6144C46.7896 40.1445 46.0326 39.844 44.7755 40.2094C44.1452 40.3927 43.9807 40.5238 42.4085 42.096C40.8363 43.6682 40.7052 43.8327 40.5219 44.463C40.1546 45.7268 40.4461 46.4517 41.9613 48.0422C42.7 48.8177 43.0067 49.2273 43.0596 49.5092C43.1448 49.9639 42.946 50.6257 42.3186 51.9748C41.7098 53.2842 41.6089 53.3366 39.5427 53.4178C37.7184 53.4896 37.2752 53.6237 36.6379 54.2966C35.9536 55.0192 35.858 55.4521 35.8553 57.8397C35.8538 59.1664 35.905 60.1918 35.9866 60.464C36.1761 61.0966 36.8365 61.8167 37.5183 62.1342C38.0322 62.3735 38.2723 62.4058 39.5446 62.4068C41.4574 62.4083 41.6262 62.493 42.267 63.7727C42.9 65.0374 43.1583 65.8796 43.0559 66.346C43.0024 66.5896 42.6275 67.0799 41.9556 67.7852C40.4464 69.3694 40.1549 70.096 40.5219 71.3585C40.7053 71.9894 40.8348 72.1515 42.4082 73.7207C43.882 75.1905 44.1765 75.4314 44.7165 75.6086C45.9542 76.0146 46.7619 75.7057 48.2713 74.2489C49.7886 72.7844 49.9998 72.7618 52.2875 73.8186C53.5968 74.4235 53.6491 74.524 53.7303 76.5913C53.8054 78.5 53.9493 78.923 54.759 79.6161C55.4433 80.2019 55.8568 80.2812 58.2232 80.2812C60.7617 80.2812 61.072 80.2078 61.8595 79.4203C62.5928 78.6871 62.7204 78.2605 62.7204 76.5433C62.7204 74.6995 62.9115 74.3716 64.3659 73.7199C66.4654 72.7791 66.6711 72.8078 68.181 74.2512C69.7107 75.7136 70.4929 76.0131 71.73 75.61C72.2717 75.4333 72.5594 75.1977 74.0348 73.7223C75.5102 72.2469 75.7458 71.9592 75.9225 71.4175C76.3211 70.1942 75.9914 69.3463 74.526 67.8263C73.1446 66.3932 73.1098 66.1908 73.9222 64.3167C74.6724 62.586 74.946 62.4079 76.8558 62.4079C78.573 62.4079 78.9996 62.2803 79.7328 61.547C80.5203 60.7595 80.5938 60.4492 80.5938 57.9107C80.5938 55.5443 80.5144 55.1308 79.9286 54.4465C79.2355 53.6368 78.8125 53.4929 76.9038 53.4178C74.8365 53.3366 74.736 53.2843 74.1311 51.975C73.0683 49.6741 73.084 49.5203 74.538 47.984C76.0332 46.4043 76.2954 45.7387 75.9245 44.463C75.7413 43.8327 75.6102 43.6682 74.038 42.096C72.4658 40.5238 72.3013 40.3927 71.671 40.2094C70.4162 39.8447 69.7009 40.1275 68.1532 41.6003C66.914 42.7798 66.5812 42.9163 65.6562 42.6253C65.3147 42.518 64.6078 42.2161 64.0852 41.9545C62.8055 41.3137 62.7208 41.1449 62.7193 39.2321C62.7183 37.9598 62.686 37.7197 62.4467 37.2058C62.1292 36.524 61.4091 35.8636 60.7765 35.6741C60.1665 35.4913 56.1063 35.5101 55.5869 35.6981ZM59.9457 50.0909C62.8436 50.6422 65.414 53.2215 66.0723 56.2387C66.2415 57.014 66.2407 58.7379 66.0707 59.5544C65.4305 62.6307 62.9432 65.118 59.8669 65.7582C59.0504 65.9282 57.3265 65.929 56.5512 65.7598C53.5294 65.1004 51.0336 62.6046 50.3742 59.5828C50.2039 58.8023 50.2063 57.0847 50.3788 56.2387C50.7001 54.6641 51.8886 52.7173 53.1344 51.7252C55.1101 50.1519 57.3904 49.6047 59.9457 50.0909Z" />
</svg>
