<svg  viewBox="0 0 82 81"  xmlns="http://www.w3.org/2000/svg">
<path d="M53.7344 36.8839C56.7633 36.8839 59.2188 34.4015 59.2188 31.3393C59.2188 28.2771 56.7633 25.7946 53.7344 25.7946C50.7054 25.7946 48.25 28.2771 48.25 31.3393C48.25 34.4015 50.7054 36.8839 53.7344 36.8839Z" />
<path d="M28.1406 36.8839C31.1696 36.8839 33.625 34.4015 33.625 31.3393C33.625 28.2771 31.1696 25.7946 28.1406 25.7946C25.1117 25.7946 22.6562 28.2771 22.6562 31.3393C22.6562 34.4015 25.1117 36.8839 28.1406 36.8839Z" />
<path d="M40.9375 35.0357C44.9761 35.0357 48.25 31.7258 48.25 27.6429C48.25 23.5599 44.9761 20.25 40.9375 20.25C36.8989 20.25 33.625 23.5599 33.625 27.6429C33.625 31.7258 36.8989 35.0357 40.9375 35.0357Z" />
<path d="M59.2187 38.7321H55.815C54.4588 38.7321 53.5594 40.3039 53.6974 41.681C53.7222 41.9287 53.7346 42.1782 53.7344 42.4286V53.5747C53.7344 54.5641 54.5201 55.3661 55.4894 55.3661H61.0469C61.5317 55.3661 61.9967 55.1714 62.3396 54.8247C62.6824 54.4781 62.875 54.008 62.875 53.5179V42.4286C62.875 41.4482 62.4898 40.508 61.8041 39.8148C61.1184 39.1216 60.1884 38.7321 59.2187 38.7321ZM28.1777 41.6819C28.3159 40.3045 27.4165 38.7321 26.06 38.7321H22.6562C21.6866 38.7321 20.7566 39.1216 20.0709 39.8148C19.3852 40.508 19 41.4482 19 42.4286V53.5179C19 54.008 19.1926 54.4781 19.5354 54.8247C19.8783 55.1714 20.3433 55.3661 20.8281 55.3661H26.3856C27.3549 55.3661 28.1406 54.5641 28.1406 53.5747V42.4286C28.1404 42.1785 28.1529 41.9293 28.1777 41.6819ZM46.4219 35.0357H45.8548C45.1013 35.0357 44.4319 35.5267 44.1915 36.2557L42.6008 41.0802C42.0645 42.7068 39.8105 42.7068 39.2742 41.0802L37.6835 36.2557C37.4431 35.5267 36.7737 35.0357 36.0202 35.0357H35.4531C33.9986 35.0357 32.6036 35.6199 31.5751 36.6597C30.5466 37.6995 29.9688 39.1098 29.9688 40.5804V57.2143C29.9688 57.7045 30.1614 58.1746 30.5042 58.5212C30.847 58.8678 31.312 59.0625 31.7969 59.0625H50.0781C50.563 59.0625 51.028 58.8678 51.3708 58.5212C51.7136 58.1746 51.9062 57.7045 51.9062 57.2143V40.5804C51.9062 39.1098 51.3284 37.6995 50.2999 36.6597C49.2714 35.6199 47.8764 35.0357 46.4219 35.0357Z" />
</svg>
