<svg  viewBox="0 0 96 96"  xmlns="http://www.w3.org/2000/svg">
<path d="M75.0384 37.2024L70.4049 32.5717L73.8881 29.0919C74.0406 28.9397 74.1617 28.7589 74.2443 28.5599C74.3268 28.3609 74.3694 28.1475 74.3694 27.9321C74.3694 27.7166 74.3269 27.5033 74.2443 27.3043C74.1618 27.1053 74.0407 26.9244 73.8882 26.7722L69.2247 22.1115C68.6091 21.4963 67.5189 21.4963 66.9033 22.1115L63.4214 25.5926L58.7872 20.961C57.5051 19.6797 55.4263 19.6797 54.1441 20.961C52.8617 22.2423 52.8617 24.3199 54.1441 25.6013L70.3951 41.8428C71.6775 43.1241 73.7563 43.1241 75.0384 41.8428C76.3205 40.5615 76.3205 38.4839 75.0384 37.2024ZM41.856 70.3986L25.6049 54.1571C24.3225 52.8758 22.2439 52.8758 20.9616 54.1571C19.6795 55.4387 19.6795 57.5162 20.9616 58.7976L25.5959 63.4291L22.1195 66.9019C21.8116 67.2096 21.6385 67.6261 21.6385 68.0619C21.6385 68.4976 21.8116 68.9142 22.1195 69.2218L26.783 73.8809C27.1036 74.2015 27.5236 74.3618 27.9436 74.3618C28.3637 74.3618 28.7837 74.2015 29.1043 73.8811L32.5792 70.4082L37.2128 75.039C38.4949 76.3203 40.5737 76.3203 41.856 75.039C43.1383 73.7575 43.1383 71.6799 41.856 70.3986ZM49.5008 39.5226L39.5344 49.5169L46.4992 56.4775L56.4656 46.483L49.5008 39.5226ZM70.3952 46.4831L49.5008 25.6013C48.2187 24.32 46.1397 24.32 44.8576 25.6013C43.5753 26.8829 43.5753 28.9603 44.8576 30.2418L65.7521 51.1236C67.0342 52.4049 69.113 52.4049 70.3952 51.1236C71.6776 49.8423 71.6776 47.7647 70.3952 46.4831ZM51.1425 65.7582L30.2479 44.8763C28.9658 43.595 26.887 43.595 25.6049 44.8763C24.3225 46.1579 24.3225 48.2354 25.6049 49.5168L46.4993 70.3986C47.7814 71.6799 49.8603 71.6799 51.1425 70.3986C52.4248 69.1172 52.4248 67.0396 51.1425 65.7582Z" />
</svg>
