<svg  viewBox="0 0 82 82" xmlns="http://www.w3.org/2000/svg">
<path d="M64.1587 47.9966C64.1263 47.9522 64.0939 47.9078 64.0724 47.8634C63.4141 47.1084 62.3025 47.0085 61.5256 47.6302C59.3672 49.4398 56.2161 52.0488 54.1765 53.7474C52.3743 55.224 50.1512 56.0788 47.8418 56.1676L42.3166 56.3563C41.3021 56.3897 40.3525 55.8568 39.8345 54.9575L39.2194 53.8806C39.0575 53.6031 38.9496 53.2922 38.8848 52.9703C38.6043 51.4271 39.5863 49.9283 41.0863 49.6397L46.7951 48.5295C47.7123 48.3407 48.3383 47.4526 48.2303 46.4978C48.1224 45.5875 47.367 44.9102 46.4821 44.8991C46.4497 44.8991 46.4066 44.8991 46.3958 44.8991C46.3526 44.8991 46.2986 44.8991 46.2555 44.8991L38.5719 44.5772C35.9064 44.4773 33.6078 45.0102 30.8883 46.3646L26.2695 48.6627V61.3189L30.1437 60.5862C30.1545 60.5751 30.1652 60.5751 30.176 60.5751C31.6761 60.3531 32.6689 60.2531 34.2984 60.3308L45.8994 60.8859C49.5361 61.0414 53.1081 59.8091 55.9031 57.411L63.9321 50.5611C64.6767 49.9172 64.7738 48.7626 64.1587 47.9966Z" />
<path d="M22.9349 46.6201H18.4888C17.8413 46.6201 17.3125 47.1641 17.3125 47.8302V64.7274C17.3125 65.3935 17.8413 65.9375 18.4888 65.9375H22.9349C23.5824 65.9375 24.1112 65.3935 24.1112 64.7274V47.8302C24.1112 47.1641 23.5824 46.6201 22.9349 46.6201Z" />
<path d="M49.5037 15.3125C42.8993 15.3236 37.5575 20.8302 37.5467 27.6135C37.5467 27.6246 37.5467 27.6246 37.5467 27.6246C37.5467 34.419 42.9101 39.9255 49.5145 39.9255C56.119 39.9255 61.4716 34.4079 61.4716 27.6135C61.4716 20.8191 56.1082 15.3125 49.5037 15.3125Z" />
</svg>
