<svg viewBox="0 0 96 96"  xmlns="http://www.w3.org/2000/svg">
<path d="M28.8096 40.9304H23.5234C22.6821 40.9304 22 41.6125 22 42.4539V74H28.8096V40.9304ZM72.4766 40.9304H67.1904V74H74V42.4539C74 41.6125 73.3179 40.9304 72.4766 40.9304ZM50.6492 63.8206V74H45.3508V63.8206H50.6492Z"/>
<path d="M62.6201 28.2573H57.8239V23.5234C57.8239 22.6821 57.1418 22 56.3005 22H39.9152C39.0739 22 38.3918 22.6821 38.3918 23.5234V28.2573H33.3799C32.5385 28.2573 31.8564 28.9394 31.8564 29.7807V74H42.304V62.2972C42.304 61.4558 42.9861 60.7737 43.8274 60.7737H52.1726C53.0139 60.7737 53.696 61.4558 53.696 62.2972V74H64.1436V29.7807C64.1436 28.9394 63.4615 28.2573 62.6201 28.2573ZM41.1016 55.509H39.4609C38.6196 55.509 37.9375 54.8269 37.9375 53.9856C37.9375 53.1442 38.6196 52.4621 39.4609 52.4621H41.1016C41.9429 52.4621 42.625 53.1442 42.625 53.9856C42.625 54.8269 41.9429 55.509 41.1016 55.509ZM41.1016 49.4153H39.4609C38.6196 49.4153 37.9375 48.7332 37.9375 47.8918C37.9375 47.0505 38.6196 46.3684 39.4609 46.3684H41.1016C41.9429 46.3684 42.625 47.0505 42.625 47.8918C42.625 48.7332 41.9429 49.4153 41.1016 49.4153ZM41.1016 43.3215H39.4609C38.6196 43.3215 37.9375 42.6394 37.9375 41.7981C37.9375 40.9567 38.6196 40.2746 39.4609 40.2746H41.1016C41.9429 40.2746 42.625 40.9567 42.625 41.7981C42.625 42.6394 41.9429 43.3215 41.1016 43.3215ZM48.8203 55.509H47.1797C46.3383 55.509 45.6562 54.8269 45.6562 53.9856C45.6562 53.1442 46.3383 52.4621 47.1797 52.4621H48.8203C49.6617 52.4621 50.3438 53.1442 50.3438 53.9856C50.3438 54.8269 49.6617 55.509 48.8203 55.509ZM48.8203 49.4153H47.1797C46.3383 49.4153 45.6562 48.7332 45.6562 47.8918C45.6562 47.0505 46.3383 46.3684 47.1797 46.3684H48.8203C49.6617 46.3684 50.3438 47.0505 50.3438 47.8918C50.3438 48.7332 49.6617 49.4153 48.8203 49.4153ZM48.8203 43.3215H47.1797C46.3383 43.3215 45.6562 42.6394 45.6562 41.7981C45.6562 40.9567 46.3383 40.2746 47.1797 40.2746H48.8203C49.6617 40.2746 50.3438 40.9567 50.3438 41.7981C50.3438 42.6394 49.6617 43.3215 48.8203 43.3215ZM51.0703 34.211H49.5234V35.7579C49.5234 36.5992 48.8413 37.2813 48 37.2813C47.1587 37.2813 46.4766 36.5992 46.4766 35.7579V34.211H44.9297C44.0883 34.211 43.4062 33.5289 43.4062 32.6875C43.4062 31.8462 44.0883 31.1641 44.9297 31.1641H46.4766V29.6172C46.4766 28.7758 47.1587 28.0938 48 28.0938C48.8413 28.0938 49.5234 28.7758 49.5234 29.6172V31.1641H51.0703C51.9117 31.1641 52.5938 31.8462 52.5938 32.6875C52.5938 33.5289 51.9117 34.211 51.0703 34.211ZM56.5391 55.509H54.8984C54.0571 55.509 53.375 54.8269 53.375 53.9856C53.375 53.1442 54.0571 52.4621 54.8984 52.4621H56.5391C57.3804 52.4621 58.0625 53.1442 58.0625 53.9856C58.0625 54.8269 57.3804 55.509 56.5391 55.509ZM56.5391 49.4153H54.8984C54.0571 49.4153 53.375 48.7332 53.375 47.8918C53.375 47.0505 54.0571 46.3684 54.8984 46.3684H56.5391C57.3804 46.3684 58.0625 47.0505 58.0625 47.8918C58.0625 48.7332 57.3804 49.4153 56.5391 49.4153ZM56.5391 43.3215H54.8984C54.0571 43.3215 53.375 42.6394 53.375 41.7981C53.375 40.9567 54.0571 40.2746 54.8984 40.2746H56.5391C57.3804 40.2746 58.0625 40.9567 58.0625 41.7981C58.0625 42.6394 57.3804 43.3215 56.5391 43.3215Z" />
</svg>
