<svg viewBox="0 0 82 82"  xmlns="http://www.w3.org/2000/svg">
<path d="M43.0938 27.4963C43.0938 26.8252 42.5565 26.2813 41.8937 26.2813H39.2313C38.5685 26.2813 38.0312 26.8252 38.0312 27.4963V28.3906C38.0312 28.9501 38.2979 29.4866 38.7726 29.8822C39.2473 30.2778 39.8912 30.5 40.5625 30.5C41.2338 30.5 41.8777 30.2778 42.3524 29.8822C42.8271 29.4866 43.0938 28.9501 43.0938 28.3906V27.4963Z" />
<path fill-rule="evenodd" clip-rule="evenodd" d="M28.2625 17C27.5998 17 27.0625 17.544 27.0625 18.215V20.4172C27.0625 21.0463 27.5662 21.5563 28.1875 21.5563C28.8088 21.5563 29.3125 22.0662 29.3125 22.6953V28.3906C29.3125 31.4116 30.4978 34.3089 32.6075 36.445C34.7173 38.5812 37.5788 39.7812 40.5625 39.7812C37.5788 39.7812 34.7173 40.9813 32.6075 43.1175C30.4978 45.2536 29.3125 48.1509 29.3125 51.1719V56.8672C29.3125 57.4963 28.8088 58.0063 28.1875 58.0063C27.5662 58.0063 27.0625 58.5162 27.0625 59.1453V61.3475C27.0625 62.0185 27.5998 62.5625 28.2625 62.5625H52.8625C53.5252 62.5625 54.0625 62.0185 54.0625 61.3475V59.1453C54.0625 58.5162 53.5588 58.0063 52.9375 58.0063C52.3162 58.0063 51.8125 57.4963 51.8125 56.8672V51.1719C51.8125 48.1509 50.6272 45.2536 48.5175 43.1175C46.4077 40.9813 43.5462 39.7812 40.5625 39.7812C42.0399 39.7812 43.5028 39.4866 44.8677 38.9142C46.2326 38.3418 47.4728 37.5027 48.5175 36.445C49.5621 35.3873 50.3908 34.1316 50.9561 32.7496C51.5215 31.3677 51.8125 29.8865 51.8125 28.3906V22.6953C51.8125 22.0662 52.3162 21.5563 52.9375 21.5563C53.5588 21.5563 54.0625 21.0463 54.0625 20.4172V18.215C54.0625 17.544 53.5252 17 52.8625 17H28.2625ZM33.8125 22.7713C33.8125 22.1002 34.3498 21.5563 35.0125 21.5563H46.1125C46.7752 21.5563 47.3125 22.1002 47.3125 22.7713V28.3906C47.3125 30.2032 46.6013 31.9416 45.3355 33.2233C44.0696 34.505 42.3527 35.225 40.5625 35.225C38.7723 35.225 37.0554 34.505 35.7895 33.2233C34.5237 31.9416 33.8125 30.2032 33.8125 28.3906V22.7713ZM33.8125 51.1719V56.7913C33.8125 57.4623 34.3498 58.0063 35.0125 58.0063H46.1125C46.7752 58.0063 47.3125 57.4623 47.3125 56.7913V51.1719C47.3125 49.3593 46.6013 47.6209 45.3355 46.3392C44.0696 45.0575 42.3527 44.3375 40.5625 44.3375C38.7723 44.3375 37.0554 45.0575 35.7895 46.3392C34.5237 47.6209 33.8125 49.3593 33.8125 51.1719Z" />
</svg>
