<svg  viewBox="0 0 82 82"  xmlns="http://www.w3.org/2000/svg">
<path d="M62.1385 39.146L55.4891 32.5544V24.94C55.4891 23.5632 54.3636 22.4474 52.9727 22.4474C51.5849 22.4474 50.4595 23.5632 50.4595 24.94V27.5687L45.5084 22.6605C43.0605 20.2353 38.8045 20.2396 36.3623 22.6649L19.7361 39.146C18.7546 40.1209 18.7546 41.6983 19.7361 42.6717C20.718 43.6463 22.3124 43.6463 23.2939 42.6717L39.9185 26.1901C40.4601 25.6561 41.4146 25.6561 41.9534 26.1885L58.5808 42.6717C59.0738 43.159 59.7166 43.4014 60.3593 43.4014C61.0032 43.4014 61.6471 43.1588 62.1386 42.6717C63.1205 41.6984 63.1205 40.121 62.1385 39.146Z" />
<path d="M41.8109 30.9216C41.3279 30.4431 40.5457 30.4431 40.0641 30.9216L25.4397 45.4145C25.2088 45.6433 25.0779 45.9557 25.0779 46.2816V56.8522C25.0779 59.3326 27.1068 61.3438 29.6089 61.3438H36.8495V50.2281H45.0239V61.3438H52.2646C54.7666 61.3438 56.7955 59.3326 56.7955 56.8523V46.2816C56.7955 45.9557 56.6657 45.6433 56.4337 45.4145L41.8109 30.9216Z" />
</svg>
