<svg viewBox="0 0 82 82" xmlns="http://www.w3.org/2000/svg">
<path d="M62.3001 54L60.8617 24.8295C60.8388 24.3651 60.4431 24 59.9627 24H51.9451C51.4599 24 51.062 24.3723 51.0456 24.8416L50.06 53.1584C50.0437 53.6277 49.6458 54 49.1605 54H48.1756C47.6672 54 47.2597 53.5928 47.276 53.1011L47.7385 39.1652C47.7548 38.6735 47.3473 38.2663 46.8389 38.2663H44.1434C43.6464 38.2663 43.2434 37.8764 43.2434 37.3953V32.954C43.2434 32.2776 42.4815 31.8594 41.8816 32.2065L32.7711 37.4783C32.1712 37.8254 31.4092 37.4071 31.4092 36.7307V32.9157C31.4092 32.2478 30.6643 31.8284 30.0643 32.1586L19.4209 38.0159C19.1396 38.1707 18.9658 38.4598 18.9658 38.773V53.2815C18.9658 53.7234 18.5957 54.0815 18.1392 54.0815C17.6826 54.0815 17.3125 54.4397 17.3125 54.8815V56.879C17.3125 57.3601 17.7154 57.75 18.2125 57.75H63.6625C64.1596 57.75 64.5625 57.3601 64.5625 56.879V54.9525C64.5625 54.4715 64.1596 54.0815 63.6625 54.0815H62.3843C62.3378 54.0815 62.3001 54.045 62.3001 54Z" />
</svg>
