<svg viewBox="0 0 82 82" xmlns="http://www.w3.org/2000/svg">
<path d="M37.0229 22.9936L37.1696 22.6842C37.3156 22.3761 37.6226 22.1803 37.9594 22.1803H43.9155C44.2523 22.1803 44.5593 22.3761 44.7054 22.6842L44.8521 22.9936C45.9439 25.3036 48.179 26.8641 50.659 27.1196C51.1258 27.1677 51.51 26.7691 51.4971 26.2929C51.105 11.8 30.758 11.8378 30.3771 26.2938C30.3646 26.7696 30.7486 27.1677 31.2152 27.1197C33.6955 26.8644 35.9309 25.3039 37.0229 22.9936Z" />
<path d="M27.9836 36.4719H29.5809C30.0361 36.4719 30.4131 36.8338 30.4784 37.2911C32.2526 49.7051 49.6137 49.6925 51.3827 37.2914C51.4479 36.834 51.825 36.4719 52.2803 36.4719H53.8773C54.7541 36.4719 55.5479 36.1112 56.1231 35.5276C58.1049 33.5385 56.7013 30.0179 53.8773 30.026H51.3675C48.0519 30.0527 44.8142 28.2788 42.9922 25.483C42.8206 25.2197 42.5356 25.0507 42.2247 25.0507H39.6363C39.3254 25.0507 39.0403 25.2197 38.8688 25.4829C37.0465 28.2789 33.8093 30.0526 30.4935 30.026C30.4777 30.027 28.212 30.0261 27.9996 30.026C27.9879 30.026 27.9774 30.0263 27.9657 30.0268C23.7708 30.2133 23.7794 36.3034 27.9836 36.4719ZM38.1094 37.6804C38.5794 37.6804 38.9395 38.0764 39.1444 38.5058C39.77 39.817 41.7136 39.8163 42.3392 38.5061C42.5443 38.0767 42.9044 37.6804 43.3746 37.6804H44.448C44.9463 37.6804 45.3523 38.1078 45.2549 38.6039C44.2756 43.5931 37.2062 43.5896 36.2285 38.6036C36.1312 38.1076 36.5371 37.6804 37.0354 37.6804H38.1094ZM35.8934 47.8256C35.8934 47.2897 35.4291 46.8738 34.9101 46.9715C27.0836 48.4439 21.0918 55.2184 20.6885 63.4853C20.6646 63.9761 21.0593 64.375 21.5434 64.375H34.6868C35.171 64.375 35.5634 63.9766 35.5634 63.4852V57.8179C35.5634 57.6613 35.6041 57.5075 35.6814 57.372L37.1192 54.8515C37.3729 54.4068 37.0568 53.8502 36.5505 53.8502C36.1876 53.8502 35.8934 53.5516 35.8934 53.1832V47.8256Z" />
<path d="M38.7218 47.564C38.7218 47.0726 39.1143 46.6743 39.5984 46.6743H42.2765C42.7606 46.6743 43.1531 47.0726 43.1531 47.564V50.0901C43.1531 50.5815 42.7606 50.9798 42.2765 50.9798H39.5984C39.1143 50.9798 38.7218 50.5815 38.7218 50.0901V47.564ZM38.5099 58.1432C38.4326 58.2787 38.3919 58.4325 38.3919 58.5891V63.4852C38.3919 63.9766 38.7843 64.375 39.2684 64.375H42.6065C43.0906 64.375 43.4831 63.9766 43.4831 63.4852V58.5891C43.4831 58.4325 43.4424 58.2787 43.3651 58.1432L41.696 55.2173C41.3584 54.6255 40.5165 54.6255 40.1789 55.2173L38.5099 58.1432ZM60.3316 64.375C60.8157 64.375 61.2104 63.9762 61.1865 63.4854C60.7854 55.261 54.8391 48.4581 46.9657 46.9723C46.4464 46.8744 45.9815 47.2903 45.9815 47.8265V53.1832C45.9815 53.5516 45.6873 53.8502 45.3244 53.8502C44.8182 53.8502 44.502 54.4068 44.7557 54.8515L46.1935 57.372C46.2708 57.5075 46.3115 57.6613 46.3115 57.8179V63.4852C46.3115 63.9766 46.704 64.375 47.1881 64.375H60.3316ZM50.1771 56.6536C50.1771 56.1622 50.5695 55.7638 51.0536 55.7638H53.7318C54.2159 55.7638 54.6083 56.1622 54.6083 56.6536V57.7444C54.6083 58.2359 54.2159 58.6342 53.7318 58.6342H51.0536C50.5695 58.6342 50.1771 58.2359 50.1771 57.7444V56.6536Z" />
</svg>
