<svg  viewBox="0 0 82 82"  xmlns="http://www.w3.org/2000/svg">
<path d="M59.5605 18.5171C57.4529 16.536 54.0703 16.536 51.9627 18.5171L45.2365 24.8788C43.5062 26.5154 43.2069 29.0133 44.3518 30.9452L40.5789 34.5137C40.3057 34.7721 40.1496 35.129 40.1496 35.4981V41.0108C38.3152 42.7827 39.2909 41.8475 36.3897 44.5916C36.1034 44.8623 35.7262 44.9976 35.3489 44.9976C34.0609 44.9976 33.3844 43.5087 34.3081 42.6351L38.081 39.0666L34.0479 35.252C33.2933 34.5383 32.0313 34.7967 31.654 35.7319L20.7256 62.397C20.2702 63.5168 21.4411 64.6243 22.6251 64.1813L50.7267 53.7589C51.7025 53.3897 51.9757 52.1961 51.2211 51.4947L43.0638 43.7794V36.0641L46.4074 32.9017C48.45 33.9846 51.078 33.7016 52.8214 32.065L59.5475 25.7033C61.6552 23.7098 61.6422 20.4982 59.5605 18.5171Z" />
</svg>
