<svg  viewBox="0 0 82 82"  xmlns="http://www.w3.org/2000/svg">
<path d="M61.5896 44.4812H57.6477V35.4834C57.6477 34.7729 57.0728 34.198 56.3623 34.198H42.2229V31.4971C45.1528 30.8999 47.3645 28.3037 47.3645 25.2002C47.3645 21.6565 44.4812 18.6875 40.9375 18.6875C37.3938 18.6875 34.5105 21.6565 34.5105 25.2002C34.5105 28.3037 36.7222 30.8999 39.6521 31.4971V34.198H25.5127C24.8022 34.198 24.2273 34.7729 24.2273 35.4834V39.4697C21.2974 40.0669 19 42.6631 19 45.7666C19 48.8701 21.2974 51.4663 24.2273 52.0635V57.4209H20.2854C19.5749 57.4209 19 57.9958 19 58.7063V61.2771C19 61.9876 19.5749 62.5625 20.2854 62.5625H30.6543C31.3648 62.5625 31.9397 61.9876 31.9397 61.2771V58.7063C31.9397 57.9958 31.3648 57.4209 30.6543 57.4209H26.7981V52.0635C29.3126 51.5511 31.2972 49.5665 31.8096 47.052H39.6521V52.1936H35.7959C35.0854 52.1936 34.5105 52.7685 34.5105 53.479V56.1355C34.5105 56.846 35.0854 57.4209 35.7959 57.4209H46.0791C46.7896 57.4209 47.3645 56.846 47.3645 56.1355V53.479C47.3645 52.7685 46.7896 52.1936 46.0791 52.1936H42.2229V45.7666C42.2229 45.0561 41.648 44.4812 40.9375 44.4812H31.8096C31.2972 41.9667 29.3126 39.9821 26.7981 39.4697V36.7688H55.0769V44.4812H51.2207C50.5102 44.4812 49.9353 45.0561 49.9353 45.7666V48.3374C49.9353 49.0479 50.5102 49.6228 51.2207 49.6228H55.0769V57.4209H51.2207C50.5102 57.4209 49.9353 57.9958 49.9353 58.7063V61.2771C49.9353 61.9876 50.5102 62.5625 51.2207 62.5625H61.5896C62.3001 62.5625 62.875 61.9876 62.875 61.2771V58.7063C62.875 57.9958 62.3001 57.4209 61.5896 57.4209H57.6477V49.6228H61.5896C62.3001 49.6228 62.875 49.0479 62.875 48.3374V45.7666C62.875 45.0561 62.3001 44.4812 61.5896 44.4812Z" />
</svg>
