<svg  viewBox="0 0 96 96"  xmlns="http://www.w3.org/2000/svg">
<path d="M46.25 34.7H49.75L48 29.5667L46.25 34.7Z" />
<path d="M61.4167 43.5667V23.15C61.4167 21.4 60.0167 20 58.2667 20H37.7333C35.9833 20 34.5833 21.4 34.5833 23.15V43.5667C34.5833 45.3167 35.9833 46.7167 37.7333 46.7167H58.15C59.9 46.7167 61.4167 45.3167 61.4167 43.5667ZM53.8333 42.1667C53.7167 42.1667 53.6 42.2833 53.3667 42.2833C52.9 42.2833 52.3167 41.9333 52.2 41.4667L50.6833 37.2667H45.3167L43.8 41.4667C43.5667 42.1667 42.8667 42.5167 42.1667 42.2833C41.4667 42.05 41.1167 41.35 41.35 40.65L46.8333 25.25C47.0667 24.7833 47.5333 24.4333 48 24.4333C48.4667 24.4333 49.05 24.7833 49.1667 25.25L54.5333 40.5333C54.7667 41.2333 54.4167 41.9333 53.8333 42.1667ZM72.85 49.2833H52.4333C50.6833 49.2833 49.2833 50.6833 49.2833 52.4333V72.85C49.2833 74.6 50.6833 76 52.4333 76H72.85C74.6 76 76 74.6 76 72.85V52.4333C76 50.6833 74.6 49.2833 72.85 49.2833ZM59.3167 67.1333C61.7667 69.5833 65.85 69.5833 68.3 67.1333C68.7667 66.6667 69.5833 66.6667 70.05 67.1333C70.5167 67.6 70.5167 68.4167 70.05 68.8833C68.3 70.6333 66.0833 71.45 63.75 71.45C61.4167 71.45 59.2 70.6333 57.45 68.8833C55.8167 67.25 54.8833 64.9167 54.8833 62.5833C54.8833 60.25 55.8167 57.9167 57.45 56.2833C59.0833 54.65 61.4167 53.7167 63.75 53.7167C66.0833 53.7167 68.4167 54.65 70.05 56.2833C70.5167 56.75 70.5167 57.5667 70.05 58.0333C69.5833 58.5 68.7667 58.5 68.3 58.0333C67.1333 56.8667 65.5 56.1667 63.75 56.1667C62 56.1667 60.4833 56.8667 59.2 58.0333C58.0333 59.2 57.3333 60.8333 57.3333 62.5833C57.45 64.3333 58.0333 65.9667 59.3167 67.1333ZM23.15 76H43.5667C45.3167 76 46.7167 74.6 46.7167 72.85V52.4333C46.7167 50.6833 45.3167 49.2833 43.5667 49.2833H23.15C21.4 49.2833 20 50.6833 20 52.4333V72.85C20 74.6 21.4 76 23.15 76ZM27.8167 55C27.8167 54.3 28.4 53.7167 29.1 53.7167H33.8833C36.6833 53.7167 39.0167 56.05 39.0167 58.85C39.0167 60.3667 38.3167 61.7667 37.2667 62.7C38.3167 63.6333 39.0167 65.0333 39.0167 66.55C39.0167 69.35 36.6833 71.6833 33.8833 71.6833H29.1C28.4 71.6833 27.8167 71.1 27.8167 70.4V55Z" />
<path d="M36.3333 58.85C36.3333 57.45 35.1667 56.2833 33.7667 56.2833H30.2667V61.4167H33.7667C35.2833 61.4167 36.3333 60.25 36.3333 58.85ZM36.3333 66.4333C36.3333 65.0333 35.1667 63.8667 33.7667 63.8667H30.2667V69H33.7667C35.2833 69 36.3333 67.8333 36.3333 66.4333Z"/>
</svg>
