<svg viewBox="0 0 60 61" xmlns="http://www.w3.org/2000/svg">
<path d="M24.2708 21.125H35.7292C36.3594 21.125 36.875 20.5977 36.875 19.9531V15.2656C36.875 14.6211 36.3594 14.0938 35.7292 14.0938H33.237C32.7715 12.7314 31.4967 11.75 30 11.75C28.5033 11.75 27.2285 12.7314 26.7559 14.0938H24.2708C23.6406 14.0938 23.125 14.6211 23.125 15.2656V19.9531C23.125 20.5977 23.6406 21.125 24.2708 21.125Z"/>
<path d="M41.4583 16.4375H39.1667V19.9531C39.1667 21.894 37.627 23.4688 35.7292 23.4688H24.2708C22.373 23.4688 20.8333 21.894 20.8333 19.9531V16.4375H18.5417C17.2813 16.4375 16.25 17.4922 16.25 18.7812V46.9062C16.25 48.2246 17.2526 49.25 18.5417 49.25H41.4583C42.7474 49.25 43.75 48.2246 43.75 46.9062V18.7812C43.75 17.4629 42.7474 16.4375 41.4583 16.4375ZM38.0208 39.875H21.875C21.2448 39.875 20.7292 39.3477 20.7292 38.7031C20.7292 38.0586 21.2448 37.5312 21.875 37.5312H38.0208C38.651 37.5312 39.1667 38.0586 39.1667 38.7031C39.1667 39.3477 38.651 39.875 38.0208 39.875ZM38.0208 30.5H21.875C21.2448 30.5 20.7292 29.9727 20.7292 29.3281C20.7292 28.6836 21.2448 28.1562 21.875 28.1562H38.0208C38.651 28.1562 39.1667 28.6836 39.1667 29.3281C39.1667 29.9727 38.651 30.5 38.0208 30.5Z"/>
</svg>
