<svg viewBox="0 0 82 82" xmlns="http://www.w3.org/2000/svg">
<path d="M48.7441 19.1875H26.1019C23.1117 19.1875 20.6875 21.6115 20.6875 24.6015V55.1171C20.6875 58.1071 23.1117 60.5312 26.1019 60.5312H40.6347L41.0654 58.1071C41.2623 56.9997 41.7791 56.0153 42.5667 55.2155L54.1585 43.6369V24.6015C54.1585 21.6115 51.7343 19.1875 48.7441 19.1875ZM28.563 27.0625H36.4385C37.5214 27.0625 38.4074 27.9484 38.4074 29.0312C38.4074 30.114 37.5214 31 36.4385 31H28.563C27.4801 31 26.5941 30.114 26.5941 29.0312C26.5941 27.9484 27.4801 27.0625 28.563 27.0625ZM38.4074 46.7499H28.563C27.4801 46.7499 26.5941 45.864 26.5941 44.7812C26.5941 43.6984 27.4801 42.8124 28.563 42.8124H38.4074C39.4903 42.8124 40.3763 43.6984 40.3763 44.7812C40.3763 45.864 39.4903 46.7499 38.4074 46.7499ZM46.283 38.875H28.563C27.4801 38.875 26.5941 37.989 26.5941 36.9062C26.5941 35.8234 27.4801 34.9375 28.563 34.9375H46.283C47.3658 34.9375 48.2518 35.8234 48.2518 36.9062C48.2518 37.989 47.3658 38.875 46.283 38.875Z"/>
<path d="M45.3477 66.4375C44.9539 66.4375 44.5847 66.2898 44.3017 66.0068C43.9571 65.6623 43.8095 65.1824 43.8956 64.7025L44.9416 58.784C44.9908 58.4887 45.1385 58.2057 45.3477 57.9965L59.9666 43.3786C61.7632 41.5821 63.5229 42.062 64.495 43.034L66.9315 45.4704C68.2728 46.8116 68.2728 49.0018 66.9315 50.343L52.3126 64.9609C52.1034 65.1701 51.8204 65.3178 51.525 65.367L45.6061 66.4129C45.5199 66.4252 45.4338 66.4375 45.3477 66.4375Z" />
</svg>
