<svg viewBox="0 0 82 82"  xmlns="http://www.w3.org/2000/svg">
<path d="M60.6342 25.039C60.3198 23.7812 59.036 23.0292 57.77 23.3089C52.4425 24.4861 46.4928 25 40.937 25C35.3812 25 29.4314 24.4861 24.1039 23.3089C22.838 23.0292 21.5542 23.7812 21.2397 25.039C20.9329 26.2664 21.6653 27.5166 22.8989 27.797C25.7776 28.4512 28.8588 28.9414 31.8729 29.274C33.1799 29.4182 34.187 30.5104 34.187 31.8252V54.25C34.187 55.4926 35.1943 56.5 36.437 56.5C37.6796 56.5 38.687 55.4926 38.687 54.25V45.25C38.687 44.0074 39.6943 43 40.937 43C42.1796 43 43.187 44.0074 43.187 45.25V54.25C43.187 55.4926 44.1943 56.5 45.437 56.5C46.6796 56.5 47.687 55.4926 47.687 54.25V31.8252C47.687 30.5104 48.694 29.4182 50.001 29.274C53.0151 28.9414 56.0963 28.4512 58.975 27.797C60.2086 27.5166 60.9411 26.2664 60.6342 25.039ZM40.937 22.75C43.412 22.75 45.437 20.725 45.437 18.25C45.437 15.775 43.412 13.75 40.937 13.75C38.462 13.75 36.437 15.775 36.437 18.25C36.437 20.725 38.462 22.75 40.937 22.75ZM29.687 65.5C29.687 66.7426 30.6943 67.75 31.937 67.75C33.1796 67.75 34.187 66.7426 34.187 65.5C34.187 64.2574 33.1796 63.25 31.937 63.25C30.6943 63.25 29.687 64.2574 29.687 65.5ZM38.687 65.5C38.687 66.7426 39.6943 67.75 40.937 67.75C42.1796 67.75 43.187 66.7426 43.187 65.5C43.187 64.2574 42.1796 63.25 40.937 63.25C39.6943 63.25 38.687 64.2574 38.687 65.5ZM47.687 65.5C47.687 66.7426 48.6943 67.75 49.937 67.75C51.1796 67.75 52.187 66.7426 52.187 65.5C52.187 64.2574 51.1796 63.25 49.937 63.25C48.6943 63.25 47.687 64.2574 47.687 65.5Z" />
</svg>
