<svg viewBox="0 0 82 82" xmlns="http://www.w3.org/2000/svg">
<path d="M31.0264 44.5658C32.3978 44.5658 33.6445 44.4431 34.8912 44.3203V31.5567C33.6445 31.434 32.3978 31.3113 31.0264 31.3113C23.5461 31.3113 17.3125 34.0113 17.3125 37.3249V38.6749C17.3125 41.8658 23.4214 44.5658 31.0264 44.5658Z" />
<path d="M31.026 51.3161C32.3974 51.3161 33.6441 51.1934 34.8908 51.0707V47.2661C33.6441 47.3888 32.3974 47.5116 31.026 47.5116C24.4184 47.5116 18.9328 45.4252 17.6861 42.7252C17.4368 43.0934 17.4368 43.5843 17.4368 43.9525V45.3025C17.3121 48.6161 23.421 51.3161 31.026 51.3161Z" />
<path d="M34.7665 54.2613V54.0158C33.5198 54.1386 32.2731 54.2613 30.9017 54.2613C24.2941 54.2613 18.8086 52.1749 17.5618 49.4749C17.3125 49.8431 17.3125 50.334 17.3125 50.7022V52.0522C17.3125 55.2431 23.4214 57.9431 31.0264 57.9431C32.5225 57.9431 34.0185 57.8204 35.3899 57.5749C35.0159 56.9613 34.8912 56.2249 34.8912 55.4886L34.7665 54.2613Z" />
<path d="M50.7246 21.125C43.1196 21.125 37.0107 23.825 37.0107 27.1386V28.4886C37.0107 31.8023 43.1196 34.5022 50.7246 34.5022C58.3296 34.5022 64.4385 31.8023 64.4385 28.4886V27.1386C64.3138 23.825 58.2049 21.125 50.7246 21.125Z" />
<path d="M50.7239 37.3249C44.1163 37.3249 38.6308 35.2385 37.3841 32.5385C37.1347 32.9067 37.1347 33.3976 37.1347 33.7658V35.1158C37.1347 38.4294 43.2436 41.1294 50.8486 41.1294C58.4536 41.1294 64.5625 38.4294 64.5625 35.1158V33.7658C64.5625 33.3976 64.4378 32.9067 64.3131 32.5385C62.8171 35.3613 57.3315 37.3249 50.7239 37.3249Z" />
<path d="M50.7239 44.075C44.1163 44.075 38.6308 41.9887 37.3841 39.2887C37.1347 39.6568 37.1347 40.1477 37.1347 40.5159V41.8659C37.1347 45.1796 43.2436 47.8796 50.8486 47.8796C58.4536 47.8796 64.5625 45.1796 64.5625 41.8659V40.5159C64.5625 40.1477 64.4378 39.6568 64.3131 39.2887C62.8171 41.9887 57.3315 44.075 50.7239 44.075Z" />
<path d="M50.7239 51.0703C44.1163 51.0703 38.6308 48.984 37.3841 46.284C37.1347 46.6522 37.1347 47.1431 37.1347 47.5113V48.8613C37.1347 52.1749 43.2436 54.8749 50.8486 54.8749C58.4536 54.8749 64.5625 52.1749 64.5625 48.8613V47.5113C64.5625 47.1431 64.4378 46.6522 64.3131 46.284C62.8171 49.1067 57.3315 51.0703 50.7239 51.0703Z" />
<path d="M50.7239 57.8205C44.1163 57.8205 38.6308 55.7341 37.3841 53.0341C37.1347 53.4023 37.1347 53.8932 37.1347 54.2614V55.6114C37.1347 58.925 43.2436 61.625 50.8486 61.625C58.4536 61.625 64.5625 58.925 64.5625 55.6114V54.2614C64.5625 53.8932 64.4378 53.4023 64.3131 53.0341C62.8171 55.7341 57.3315 57.8205 50.7239 57.8205Z" />
</svg>
