<svg  viewBox="0 0 82 82"  xmlns="http://www.w3.org/2000/svg">
<path d="M40.5625 38.2256C46.0372 38.2256 50.4913 33.4646 50.4913 27.6128C50.4913 21.761 46.0372 17 40.5625 17C35.0878 17 30.6337 21.761 30.6337 27.6128C30.6337 33.4646 35.0878 38.2256 40.5625 38.2256Z"/>
<path d="M45.2719 38.2256H44.4477V45.01L46.1491 54.104C46.2419 54.5997 46.0746 55.1102 45.7124 55.4353L41.3955 59.3113C41.1547 59.5276 40.8586 59.6357 40.5625 59.6357C40.2664 59.6357 39.9703 59.5276 39.7295 59.3113L35.4126 55.4353C35.0504 55.1102 34.8831 54.5997 34.9755 54.104L36.6773 45.01V38.2256H35.8531C28.2146 38.2256 22 45.4703 22 54.3755V62.8657C22 63.6303 22.5797 64.25 23.2951 64.25H57.8299C58.5453 64.25 59.125 63.6303 59.125 62.8657V54.3755C59.125 45.4703 52.9104 38.2256 45.2719 38.2256Z"/>
<path d="M37.6658 53.843L40.5625 56.4436L43.4592 53.843L42.0909 46.5312H39.0341L37.6658 53.843Z"/>
<path d="M39.2674 40.9941H41.8576V43.7627H39.2674V40.9941Z"/>
</svg>
