<svg  viewBox="0 0 82 82"  xmlns="http://www.w3.org/2000/svg">
<path d="M40.7847 28.8125C43.2453 28.8125 45.2382 26.9246 45.2382 24.5937C45.2382 22.2629 43.2453 20.375 40.7847 20.375C38.3252 20.375 36.3311 22.2629 36.3311 24.5937C36.3311 26.9246 38.3274 28.8125 40.7847 28.8125Z" />
<path d="M53.4083 30.5C55.8689 30.5 57.8619 28.6121 57.8619 26.2813C57.8619 23.9525 55.8689 22.0625 53.4083 22.0625C50.9489 22.0625 48.9548 23.9514 48.9548 26.2813C48.9548 28.6121 50.95 30.5 53.4083 30.5Z" />
<path d="M28.4681 30.5C30.9287 30.5 32.9217 28.6121 32.9217 26.2813C32.9217 23.9525 30.9287 22.0625 28.4681 22.0625C26.0098 22.0625 24.0146 23.9525 24.0146 26.2813C24.0146 28.6121 26.0098 30.5 28.4681 30.5Z" />
<path d="M61.1662 44.5316L60.025 35.8831C59.7467 33.778 57.8483 32.1875 55.6071 32.1875H51.2092C50.7138 32.1875 50.215 32.2708 49.7251 32.4354C49.2864 32.582 49.0426 33.0228 49.1617 33.4479C49.2497 33.76 49.3309 34.0775 49.3721 34.4066L50.5534 44.2078C50.7082 45.505 50.2807 46.7981 49.3799 47.7547C49.184 47.9635 48.9435 48.1597 48.6284 48.3738C48.3756 48.5446 48.2342 48.8273 48.2576 49.1195L48.9579 58.4028C48.9914 58.8458 49.3788 59.1875 49.8464 59.1875H56.9721C57.4386 59.1875 57.8272 58.8447 57.8606 58.4039L58.6923 47.3697C59.3937 47.3254 60.0517 47.0217 60.5194 46.5186C61.0259 45.9744 61.2631 45.2519 61.1662 44.5316Z" />
<path d="M33.188 48.5394C32.805 48.3116 32.4699 48.0479 32.1915 47.7568C31.2897 46.8002 30.8621 45.5071 31.018 44.2099L32.1993 34.4087C32.2427 34.0543 32.3262 33.7136 32.4242 33.3814C32.4877 33.1631 32.4554 32.9311 32.3363 32.7338C32.2194 32.5377 32.0212 32.3963 31.7918 32.3383C31.3799 32.2371 31.0236 32.1896 30.6673 32.1896H26.2694C24.0282 32.1896 22.1276 33.7769 21.8515 35.8852L20.7081 44.5316C20.6134 45.2519 20.8483 45.9754 21.356 46.5207C21.8248 47.0238 22.4817 47.3275 23.1842 47.3718L24.0159 58.406C24.0493 58.8479 24.4357 59.1886 24.9044 59.1886H32.0301C32.4966 59.1886 32.8852 58.8458 32.9186 58.406L33.6044 49.3146C33.6311 49.0024 33.4686 48.7029 33.188 48.5394Z" />
<path d="M48.7823 44.3997L47.601 34.5975C47.3193 32.2613 45.3675 30.5 43.0606 30.5H38.5124C36.2055 30.5 34.2515 32.2613 33.9709 34.5975L32.7896 44.3987C32.6905 45.2182 32.9566 46.0324 33.5222 46.6325C34.0087 47.1482 34.6534 47.4478 35.3515 47.4847L36.3346 60.0935C36.3691 60.5322 36.7566 60.875 37.2242 60.875H44.3499C44.8164 60.875 45.2027 60.5343 45.2384 60.0935L46.2215 47.4847C46.9218 47.4478 47.5642 47.1472 48.0508 46.6325C48.6142 46.0355 48.8803 45.2182 48.7823 44.3997Z" />
</svg>
