<svg  viewBox="0 0 82 82" xmlns="http://www.w3.org/2000/svg">
<path d="M20.625 39.1347C20.625 38.118 21.4492 37.2938 22.4659 37.2938H59.2841C60.3008 37.2938 61.125 38.118 61.125 39.1347V43.5528C61.125 44.5695 60.3008 45.3937 59.2841 45.3937H22.4659C21.4492 45.3937 20.625 44.5695 20.625 43.5528V39.1347Z" />
<path d="M38.6659 61.5938C37.6492 61.5938 36.825 60.7695 36.825 59.7528L36.825 22.9347C36.825 21.918 37.6492 21.0938 38.6659 21.0938L43.0841 21.0938C44.1008 21.0937 44.925 21.918 44.925 22.9347V59.7528C44.925 60.7695 44.1008 61.5938 43.0841 61.5938H38.6659Z" />
</svg>
