<svg  viewBox="0 0 82 82" xmlns="http://www.w3.org/2000/svg">
<path d="M53.6846 23.1839C51.9623 21.4183 49.916 20.0182 47.6634 19.0643C45.4108 18.1103 42.9961 17.6212 40.5583 17.625C38.1205 17.6221 35.7062 18.1117 33.4537 19.0656C31.2012 20.0195 29.1548 21.419 27.4319 23.1839C25.7073 24.9471 24.3398 27.0414 23.4077 29.3465C22.4756 31.6517 21.9972 34.1225 22 36.6172C22.0551 39.4839 22.6567 42.312 23.7711 44.9426C24.8413 47.5296 26.1344 50.0139 27.6353 52.366C29.4251 55.2283 31.4281 57.945 33.6265 60.4919C36.8466 64.2297 39.9058 66.5625 40.5583 66.5625C41.2108 66.5625 44.2784 64.2297 47.4901 60.4919C49.6936 57.9494 51.697 55.2323 53.4812 52.366C54.9849 50.0141 56.2809 47.5298 57.3539 44.9426C58.4644 42.3107 59.0658 39.4834 59.125 36.6172C59.1262 34.122 58.6463 31.6509 57.7128 29.3458C56.7792 27.0407 55.4104 24.9467 53.6846 23.1839ZM44.0581 38.1869C44.0581 34.718 46.9816 33.209 50.1679 34.1717C49.4645 27.5287 40.6515 28.925 40.5583 32.9662C40.4735 28.925 31.652 27.5287 30.9571 34.1717C34.1349 33.209 37.0415 34.718 37.0585 38.1869C37.0585 44.8385 26.1862 46.6163 25.2371 36.6346C25.2344 34.5754 25.6299 32.5359 26.4007 30.6338C27.1715 28.7316 28.3024 27.0044 29.7284 25.5515C31.1481 24.0922 32.8359 22.9348 34.6946 22.1459C36.5533 21.3571 38.5461 20.9524 40.5583 20.9552C42.5719 20.9513 44.5663 21.3554 46.4265 22.1443C48.2868 22.9331 49.9759 24.0911 51.3966 25.5515C52.8226 27.0044 53.9535 28.7316 54.7243 30.6338C55.4951 32.5359 55.8906 34.5754 55.8879 36.6346C54.9303 46.599 44.0326 44.8212 44.0581 38.1869Z"/>
</svg>
