<svg  viewBox="0 0 96 96"  xmlns="http://www.w3.org/2000/svg">
<path d="M54.5148 28.9346H50.3436V24.7051C50.3436 24.2113 49.914 24 49.398 24H46.5804C46.0656 24 45.6564 24.2113 45.6564 24.7051V28.9346H41.4204C40.9044 28.9346 40.5 29.1436 40.5 29.6362V32.3384C40.5 32.8322 40.9056 33.4202 41.4204 33.4202H45.6564V37.2477C45.6564 37.7415 46.0656 38.3547 46.5804 38.3547H49.4304C49.9452 38.3547 50.3436 37.7415 50.3436 37.2477V33.4202H54.5148C55.0308 33.4202 55.5 32.8322 55.5 32.3384V29.6454C55.5 29.1528 55.0296 28.9346 54.5148 28.9346Z" />
<path d="M76.5948 69.3082H75.6564V32.312C75.6564 30.7295 75.4188 30.7284 75.1596 30.7284H58.3116V32.3384C58.3116 34.3159 56.5812 36.1108 54.5136 36.1108H53.1552V37.2466C53.1552 39.2241 51.4956 41.0454 49.4292 41.0454H46.5792C44.5128 41.0454 42.8424 39.2241 42.8424 37.2466V36.1108H41.4192C39.3528 36.1108 37.686 34.3159 37.686 32.3384V30.7295H20.8392C20.5812 30.7295 20.3436 30.7295 20.3436 32.3131V69.3082H19.4052C18.6288 69.3082 18 69.9099 18 70.6541C18 71.3959 18.6288 72 19.4052 72H76.5948C77.3712 72 78 71.3971 78 70.6541C78 69.9099 77.3712 69.3082 76.5948 69.3082ZM57.8436 43.9497C57.8436 43.7016 58.0284 43.7384 58.2852 43.7384H68.562C68.8212 43.7384 69.0924 43.7016 69.0924 43.9497V48.2239H57.8424L57.8436 43.9497ZM57.8436 50.9157H69.0936V64.1508C69.0936 64.3989 68.8212 64.8215 68.5632 64.8215H58.2864C58.0284 64.8215 57.8448 64.3977 57.8448 64.1508L57.8436 50.9157ZM42.3744 43.9497C42.3744 43.7016 42.6072 43.7384 42.8664 43.7384H53.1432C53.4012 43.7384 53.6244 43.7016 53.6244 43.9497V48.2239H42.3744V43.9497ZM42.3744 50.9157H53.6244V64.1508C53.6244 64.3989 53.4012 64.8215 53.1432 64.8215H42.8664C42.6072 64.8215 42.3744 64.3977 42.3744 64.1508V50.9157ZM26.9064 43.9497C26.9064 43.7016 27.1884 43.7384 27.4476 43.7384H37.7244C37.9836 43.7384 38.1564 43.7016 38.1564 43.9497V48.2239H26.9064V43.9497ZM26.9064 50.9157H38.1564V64.1508C38.1564 64.3989 37.9824 64.8215 37.7244 64.8215H27.4476C27.1884 64.8215 26.9064 64.3977 26.9064 64.1508V50.9157Z" />
</svg>
