<svg viewBox="0 0 82 82" xmlns="http://www.w3.org/2000/svg">
<path fill-rule="evenodd" clip-rule="evenodd" d="M39.0087 17.8177C36.6405 18.0915 34.2693 18.9179 32.6069 20.0487C31.8695 20.5503 30.7686 21.6366 30.3391 22.2866C29.1459 24.0922 28.9126 26.0566 29.6844 27.7974L29.9508 28.3981H33.9607C36.1661 28.3981 37.9705 28.3821 37.9705 28.3627C37.9705 28.3433 37.8579 28.093 37.7203 27.8066C37.2375 26.8017 37.0911 26.1444 37.049 24.7941L37.0103 23.5482L40.9413 21.5616L44.8241 23.5482L44.78 24.7941C44.7322 26.1449 44.5791 26.8233 44.1028 27.7948C43.9655 28.0749 43.8532 28.3252 43.8532 28.351C43.8532 28.3769 45.6576 28.3981 47.8631 28.3981H51.873L52.1394 27.7974C53.6964 24.2859 51.1377 20.2687 46.2859 18.6074C44.0421 17.839 41.3501 17.5469 39.0087 17.8177ZM40.2631 24.8979C39.93 25.0726 39.6446 25.2273 39.6289 25.2418C39.6132 25.2563 39.6634 25.5218 39.7403 25.8319C39.893 26.4475 40.2972 27.2027 40.671 27.5711C40.9068 27.8035 40.9106 27.804 41.0935 27.6346C41.5489 27.2129 42.0278 26.2665 42.1578 25.5311L42.2163 25.2003L41.6095 24.8859C41.2757 24.7131 40.9725 24.5736 40.9357 24.576C40.8988 24.5784 40.5961 24.7232 40.2631 24.8979ZM31.8694 31.3983C31.9586 31.8873 32.1458 32.2074 32.6206 32.6832C33.6415 33.706 35.7888 34.5445 38.3166 34.9076C39.3807 35.0604 42.5173 35.0584 43.5937 34.9041C46.0271 34.5555 48.2492 33.6733 49.2267 32.6677C49.6837 32.1978 49.8668 31.8781 49.9544 31.3983L50.0147 31.0677H31.8091L31.8694 31.3983ZM31.8508 37.3074C31.8985 39.37 32.0076 40.0197 32.5262 41.3307C33.3125 43.3181 35.0159 45.2087 36.8892 46.1731C39.4857 47.5099 42.4055 47.4955 44.9953 46.1331C46.8559 45.1543 48.3958 43.4598 49.2247 41.4793C49.808 40.0852 49.9236 39.4411 49.973 37.3074L50.017 35.4047L49.6385 35.6455C48.2144 36.5515 46.1192 37.2408 43.7667 37.5774C42.5174 37.7562 39.0418 37.731 37.7975 37.5342C35.4798 37.1676 33.558 36.521 32.1852 35.646L31.8067 35.4047L31.8508 37.3074ZM31.8284 55.1834H34.4237V49.8441H31.8284V55.1834ZM37.0189 57.853H34.4237V63.2812H39.6142V49.8441H37.0189V57.853ZM42.2095 63.2812H57.7812V59.5845C57.7812 56.5504 57.7566 55.7648 57.6435 55.2021C57.1166 52.578 55.1233 50.5277 52.5721 49.9857C52.0093 49.8661 51.1531 49.8441 47.0577 49.8441H42.2095V63.2812ZM28.2725 50.2824C26.7188 50.8765 25.2308 52.306 24.6062 53.8041C24.0974 55.0244 24.0989 55.0098 24.0639 59.299L24.0312 63.2812H31.8284V57.853H29.2331V53.9375C29.2331 49.4418 29.3461 49.8717 28.2725 50.2824Z" />
</svg>
