<svg viewBox="0 0 96 96" xmlns="http://www.w3.org/2000/svg">
<path d="M42 50H56V52.94C57.1614 53.5097 58.2166 54.2741 59.12 55.2C59.3995 54.9185 59.6933 54.6515 60 54.4V26C60 25.4696 60.2107 24.9609 60.5858 24.5858C60.9609 24.2107 61.4696 24 62 24C62.5304 24 63.0391 24.2107 63.4142 24.5858C63.7893 24.9609 64 25.4696 64 26C64 26.5304 64.2107 27.0391 64.5858 27.4142C64.9609 27.7893 65.4696 28 66 28C66.5304 28 67.0391 27.7893 67.4142 27.4142C67.7893 27.0391 68 26.5304 68 26C68 24.4087 67.3679 22.8826 66.2426 21.7574C65.1174 20.6321 63.5913 20 62 20C60.4087 20 58.8826 20.6321 57.7574 21.7574C56.6321 22.8826 56 24.4087 56 26V34H42V26C42 25.4696 42.2107 24.9609 42.5858 24.5858C42.9609 24.2107 43.4696 24 44 24C44.5304 24 45.0391 24.2107 45.4142 24.5858C45.7893 24.9609 46 25.4696 46 26C46 26.5304 46.2107 27.0391 46.5858 27.4142C46.9609 27.7893 47.4696 28 48 28C48.5304 28 49.0391 27.7893 49.4142 27.4142C49.7893 27.0391 50 26.5304 50 26C50 24.4087 49.3679 22.8826 48.2426 21.7574C47.1174 20.6321 45.5913 20 44 20C42.4087 20 40.8826 20.6321 39.7574 21.7574C38.6321 22.8826 38 24.4087 38 26V52.06C39.4153 52.2088 40.7807 52.6663 42 53.4V50ZM56 38V46H42V38H56Z" />
<path d="M74 60C73.5419 59.9732 73.0973 59.8351 72.7045 59.5978C72.3118 59.3605 71.9828 59.0311 71.746 58.638C71.1511 57.8207 70.3713 57.1557 69.4704 56.6971C68.5695 56.2386 67.5729 55.9996 66.562 55.9996C65.5511 55.9996 64.5545 56.2386 63.6536 56.6971C62.7527 57.1557 61.9729 57.8207 61.378 58.638C61.1631 59.0491 60.8397 59.3936 60.4428 59.6339C60.046 59.8742 59.5909 60.0013 59.127 60.0013C58.6631 60.0013 58.208 59.8742 57.8112 59.6339C57.4143 59.3936 57.0909 59.0491 56.876 58.638C56.2824 57.8204 55.5037 57.155 54.6035 56.6961C53.7034 56.2373 52.7074 55.998 51.697 55.998C50.6866 55.998 49.6906 56.2373 48.7905 56.6961C47.8903 57.155 47.1116 57.8204 46.518 58.638C46.2837 59.0311 45.9567 59.3608 45.5655 59.5983C45.1743 59.8357 44.7309 59.9736 44.274 60C43.8176 59.9728 43.3747 59.8348 42.9836 59.5978C42.5926 59.3608 42.2653 59.032 42.03 58.64C41.4241 57.8351 40.6426 57.179 39.745 56.7215C38.8474 56.2641 37.8573 56.0173 36.85 56C35.8432 56.0174 34.8536 56.264 33.9564 56.7211C33.0591 57.1782 32.2779 57.8337 31.672 58.638C31.4376 59.0314 31.1102 59.3613 30.7186 59.5987C30.327 59.8362 29.8832 59.974 29.426 60C28.9688 59.974 28.525 59.8362 28.1334 59.5987C27.7418 59.3613 27.4144 59.0314 27.18 58.638C26.5736 57.8338 25.792 57.1783 24.8944 56.7212C23.9969 56.2641 23.0071 56.0175 22 56C21.4696 56 20.9609 56.2107 20.5858 56.5858C20.2107 56.9609 20 57.4696 20 58V76H76V62C76 61.4696 75.7893 60.9609 75.4142 60.5858C75.0391 60.2107 74.5304 60 74 60Z"/>
</svg>
