<svg  viewBox="0 0 82 81"  xmlns="http://www.w3.org/2000/svg">
<path d="M64.5625 22.7812C64.5625 21.3833 63.4292 20.25 62.0312 20.25H19.8438C18.4458 20.25 17.3125 21.3833 17.3125 22.7813V23.562C17.3125 24.9599 18.4458 26.0932 19.8437 26.0932H62.0312C63.4292 26.0932 64.5625 24.9599 64.5625 23.562V22.7812Z" />
<path d="M64.5625 44.4218C64.5625 43.0627 63.4607 41.9609 62.1016 41.9609H61.1014C60.2947 41.9609 59.6406 41.3068 59.6406 40.5C59.6406 39.6933 60.2947 39.0392 61.1014 39.0392H62.1016C63.4607 39.0392 64.5625 37.9374 64.5625 36.5783V31.5461C64.5625 30.1481 63.4292 29.0149 62.0312 29.0149H19.8437C18.4458 29.0149 17.3125 30.1481 17.3125 31.5461V36.5783C17.3125 37.9374 18.4143 39.0392 19.7734 39.0392H20.7736C21.5803 39.0392 22.2344 39.6933 22.2344 40.5C22.2344 41.3068 21.5803 41.9609 20.7736 41.9609H19.7734C18.4143 41.9609 17.3125 43.0627 17.3125 44.4218V49.454C17.3125 50.852 18.4458 51.9852 19.8438 51.9852H62.0312C63.4292 51.9852 64.5625 50.852 64.5625 49.454V44.4218ZM27.5219 41.9609C26.7152 41.9609 26.0611 41.3068 26.0611 40.5C26.0611 39.6933 26.7152 39.0392 27.5219 39.0392H31.9708C32.7776 39.0392 33.4316 39.6933 33.4316 40.5C33.4316 41.3068 32.7776 41.9609 31.9708 41.9609H27.5219ZM38.7192 41.9609C37.9124 41.9609 37.2584 41.3068 37.2584 40.5C37.2584 39.6933 37.9124 39.0392 38.7192 39.0392H43.1558C43.9626 39.0392 44.6166 39.6933 44.6166 40.5C44.6166 41.3068 43.9626 41.9609 43.1558 41.9609H38.7192ZM49.9042 41.9609C49.0974 41.9609 48.4434 41.3068 48.4434 40.5C48.4434 39.6933 49.0974 39.0392 49.9042 39.0392H54.3408C55.1475 39.0392 55.8016 39.6933 55.8016 40.5C55.8016 41.3068 55.1475 41.9609 54.3408 41.9609H49.9042Z" />
<path d="M64.5625 57.438C64.5625 56.0401 63.4292 54.9068 62.0312 54.9068H19.8438C18.4458 54.9068 17.3125 56.0401 17.3125 57.438V58.2188C17.3125 59.6167 18.4458 60.75 19.8437 60.75H62.0312C63.4292 60.75 64.5625 59.6167 64.5625 58.2188V57.438Z" />
</svg>
