<svg  viewBox="0 0 82 82"  xmlns="http://www.w3.org/2000/svg">
<path d="M63.125 61.8838L55.565 19.9733C55.43 19.5804 55.025 19.1875 54.62 19.1875H44.495C44.225 19.1875 43.955 19.3185 43.82 19.4494C43.685 19.5804 43.55 19.8424 43.55 20.1043L43.82 30.189H38.825L39.095 20.1043C39.095 19.8424 38.96 19.5804 38.825 19.4494C38.555 19.3185 38.285 19.1875 38.015 19.1875H27.89C27.35 19.1875 26.945 19.5804 26.945 19.9733L19.25 61.8838C19.25 62.1457 19.25 62.4076 19.52 62.6696C19.655 62.9315 19.925 63.0625 20.33 63.0625H37.07C37.61 63.0625 38.015 62.6696 38.015 62.1457L38.15 51.93H44.225L44.495 62.0147C44.495 62.5386 44.9 62.9315 45.44 62.9315H62.18C62.45 62.9315 62.72 62.8006 62.99 62.5386C63.125 62.4076 63.125 62.1457 63.125 61.8838ZM38.285 48.6558L38.69 33.5942H43.82L44.225 48.6558H38.285Z" />
</svg>
