<svg viewBox="0 0 82 81" xmlns="http://www.w3.org/2000/svg">
<path d="M64.5 57.438C64.5 56.04 63.3667 54.9068 61.9688 54.9068H19.7812C18.3833 54.9068 17.25 56.04 17.25 57.438V58.2188C17.25 59.6167 18.3833 60.75 19.7812 60.75H61.9688C63.3667 60.75 64.5 59.6167 64.5 58.2188V57.438Z" />
<path d="M64.5 22.7812C64.5 21.3833 63.3667 20.25 61.9688 20.25H19.7812C18.3833 20.25 17.25 21.3833 17.25 22.7813V23.562C17.25 24.96 18.3833 26.0933 19.7812 26.0933H61.9688C63.3667 26.0933 64.5 24.96 64.5 23.562V22.7812Z" />
<path d="M17.25 49.4539C17.25 50.8519 18.3833 51.9852 19.7812 51.9852H61.9688C63.3667 51.9852 64.5 50.8519 64.5 49.4539V31.546C64.5 30.148 63.3667 29.0147 61.9688 29.0147H19.7812C18.3833 29.0147 17.25 30.148 17.25 31.546V49.4539ZM59.3455 45.2255C59.7872 44.911 60.3792 44.9093 60.8227 45.2213C61.38 45.6133 61.5318 46.3735 61.1679 46.9496L60.7928 47.5433C60.2646 48.3795 59.0639 48.4307 58.4664 47.6425C57.9838 47.0059 58.1228 46.0964 58.7735 45.633L59.3455 45.2255ZM53.0753 34.2796C53.8452 33.6113 55.0283 33.7789 55.5823 34.6347L55.8168 34.997C56.2514 35.6683 56.1222 36.5576 55.5147 37.0776C54.9536 37.5578 54.1363 37.5904 53.5387 37.1565L53.1894 36.9029C52.3161 36.2689 52.2604 34.987 53.0753 34.2796ZM46.0439 45.8716C46.4634 45.4193 47.1359 45.3083 47.6785 45.6018L47.8399 45.6891C48.5647 46.0811 48.7814 47.0199 48.3018 47.6899C47.8438 48.3297 46.942 48.4527 46.3294 47.9588L46.1866 47.8436C45.5766 47.3517 45.5111 46.4461 46.0439 45.8716ZM37.7534 38.7053C38.1786 38.2371 38.878 38.1403 39.4143 38.4756L39.6059 38.5954C40.3358 39.0517 40.4083 40.0872 39.7492 40.6409C39.4502 40.892 39.0521 40.9913 38.6702 40.9101L38.4492 40.863C37.4625 40.6531 37.0752 39.4521 37.7534 38.7053ZM26.0054 43.8193C26.9691 44.2239 27.4385 45.3196 27.0666 46.2963C26.6065 47.5044 25.1153 47.9322 24.0849 47.1517L23.945 47.0458C23.1461 46.4407 22.9484 45.3222 23.4914 44.4799C23.9951 43.6987 24.9867 43.3916 25.8437 43.7514L26.0054 43.8193ZM21.32 34.6009C21.4146 34.1239 21.8332 33.7802 22.3195 33.7802C22.748 33.7802 23.1307 34.0483 23.2771 34.4509L23.6183 35.3892C23.926 36.2355 23.2992 37.1303 22.3987 37.1303C21.5806 37.1303 20.9667 36.3826 21.1258 35.5802L21.32 34.6009Z" />
</svg>
