<svg  viewBox="0 0 82 82" xmlns="http://www.w3.org/2000/svg">
<path fill-rule="evenodd" clip-rule="evenodd" d="M33.6666 41.8374C34.1444 42.828 35.6089 44.5031 36.4592 45.3533C37.3094 46.2036 38.9845 47.6681 39.9751 48.1459C40.1232 48.2171 40.2584 48.3127 40.3749 48.4286L41.9233 49.977C42.0592 50.1128 42.167 50.2741 42.2405 50.4516C42.3141 50.6291 42.352 50.8193 42.352 51.0115C42.352 51.2036 42.3141 51.3939 42.2405 51.5714C42.167 51.7489 42.0592 51.9102 41.9233 52.046L40.2423 53.727C39.2988 54.6701 38.0194 55.1999 36.6854 55.1999C35.3513 55.1999 34.0719 54.6701 33.1284 53.727L28.0855 48.6841C27.1424 47.7406 26.6126 46.4612 26.6126 45.1271C26.6126 43.7931 27.1424 42.5137 28.0855 41.5702L29.7665 39.8892C29.9023 39.7533 30.0636 39.6455 30.2411 39.572C30.4186 39.4984 30.6089 39.4605 30.801 39.4605C30.9932 39.4605 31.1834 39.4984 31.3609 39.572C31.5384 39.6455 31.6997 39.7533 31.8355 39.8892L33.3839 41.4376C33.4989 41.5546 33.5964 41.6892 33.6666 41.8374ZM38.4677 50.6575C37.2411 49.9828 35.3593 48.3916 34.3901 47.4224C33.4209 46.4532 31.8316 44.5753 31.1569 43.3487L31.155 43.3448L30.8 42.9918L30.1526 43.6392C29.7585 44.0341 29.5371 44.5692 29.5371 45.1271C29.5371 45.6851 29.7585 46.2202 30.1526 46.615L35.1975 51.6599C35.5923 52.054 36.1274 52.2754 36.6854 52.2754C37.2433 52.2754 37.7784 52.054 38.1733 51.6599L38.8207 51.0125L38.4677 50.6575Z" />
<path fill-rule="evenodd" clip-rule="evenodd" d="M30.568 41.0788L24.7236 35.2344C24.3571 34.868 24.0685 34.4313 23.8752 33.9504C23.6819 33.4696 23.5879 32.9546 23.5988 32.4365C23.6097 31.9183 23.7254 31.4078 23.9388 30.9355C24.1522 30.4632 24.459 30.039 24.8406 29.6884L24.8426 29.6865C29.3453 25.5699 34.1347 24.1834 39.2673 25.9696C43.8909 22.401 48.4794 20.1097 52.2703 19.1795C56.2641 18.1986 59.4642 18.7602 61.2582 20.5543C63.0523 22.3483 63.6139 25.5484 62.633 29.5422C61.7048 33.3253 59.4232 37.9002 55.8663 42.514C57.6974 47.6778 56.3187 52.4945 52.1787 57.0226L52.1767 57.0245C51.8268 57.4069 51.4029 57.7143 50.9307 57.9281C50.4586 58.142 49.948 58.2579 49.4297 58.2688C48.9115 58.2798 48.3965 58.1855 47.9157 57.9918C47.435 57.798 46.9985 57.5088 46.6327 57.1415L40.7337 51.2445C38.4638 50.6751 36.2992 49.3315 34.3901 47.4224C32.481 45.5133 31.1374 43.3487 30.568 41.0788ZM52.4107 42.1533C56.3284 37.4478 58.844 32.711 59.7937 28.846C60.4665 26.0983 60.4236 23.8557 59.1912 22.6213C57.9568 21.3889 55.7142 21.346 52.9665 22.0188C49.1697 22.9509 44.5325 25.3963 39.9088 29.195C39.843 29.2621 39.7705 29.3222 39.6924 29.3744C38.4233 30.4296 37.2039 31.543 36.0379 32.711C33.7329 35.016 32.9198 37.4068 33.2688 39.7001C33.273 39.7233 33.2763 39.7468 33.2786 39.7703C33.6003 41.775 34.7821 43.6782 36.4592 45.3533C38.1811 47.0753 40.1409 48.2746 42.206 48.5573C42.4498 48.5905 42.6935 48.6119 42.9373 48.6197C44.9751 48.6802 47.0715 47.8046 49.1015 45.7746C50.2593 44.6187 51.3636 43.4103 52.4107 42.1533Z" />
<path fill-rule="evenodd" clip-rule="evenodd" d="M49.4603 20.0628C52.4693 18.9201 55.174 18.4989 57.2996 18.7641C58.9513 18.9708 60.291 19.5851 61.2582 20.5543C62.2274 21.5215 62.8417 22.8612 63.0484 24.5129C63.3136 26.6385 62.8924 29.3432 61.7497 32.3522C61.6637 32.581 61.5216 32.7846 61.3365 32.9442C61.1513 33.1037 60.929 33.2142 60.69 33.2655C60.451 33.3167 60.203 33.3071 59.9687 33.2375C59.7344 33.1679 59.5213 33.0405 59.3491 32.867L48.9455 22.4634C48.772 22.2912 48.6446 22.0781 48.575 21.8438C48.5054 21.6095 48.4958 21.3615 48.547 21.1225C48.5983 20.8835 48.7088 20.6612 48.8683 20.476C49.0279 20.2909 49.2315 20.1488 49.4603 20.0628ZM50.33 31.4825C51.4949 32.6495 52.1491 34.231 52.1491 35.8799C52.1491 37.5288 51.4949 39.1103 50.33 40.2773C49.163 41.4422 47.5815 42.0964 45.9326 42.0964C44.2837 42.0964 42.7022 41.4422 41.5352 40.2773C40.3703 39.1103 39.7161 37.5288 39.7161 35.8799C39.7161 34.231 40.3703 32.6495 41.5352 31.4825C42.7022 30.3176 44.2837 29.6634 45.9326 29.6634C47.5815 29.6634 49.163 30.3176 50.33 31.4825ZM32.676 49.1365C33.872 50.3333 34.5437 51.956 34.5437 53.648C34.5437 55.3399 33.872 56.9627 32.676 58.1595C28.8909 61.9446 20.8098 62.5588 20.8098 62.5588C20.6017 62.5736 20.3928 62.5435 20.1973 62.4705C20.0018 62.3975 19.8242 62.2834 19.6767 62.1358C19.5291 61.9883 19.415 61.8107 19.342 61.6152C19.269 61.4197 19.2389 61.2108 19.2537 61.0027C19.2537 61.0027 19.8679 52.9216 23.653 49.1365C24.8498 47.9405 26.4726 47.2688 28.1645 47.2688C29.8565 47.2688 31.4792 47.9405 32.676 49.1365Z" />
</svg>
