<svg  viewBox="0 0 82 82"  xmlns="http://www.w3.org/2000/svg">
<path d="M61.5896 32.9559H49.2369L53.4582 37.1771H62.875V34.2413C62.875 33.5309 62.2991 32.9559 61.5896 32.9559ZM32.6381 32.9559H20.2854C19.5759 32.9559 19 33.5309 19 34.2413V37.1771H28.4168L32.6381 32.9559ZM38.0925 50.6712H43.7825V63.0625H38.0925V50.6712ZM40.9375 39.6567C40.128 39.6567 39.4693 40.3155 39.4693 41.125C39.4693 41.9345 40.128 42.5933 40.9375 42.5933C41.747 42.5933 42.4058 41.9345 42.4058 41.125C42.4058 40.3155 41.747 39.6567 40.9375 39.6567Z" />
<path d="M42.2229 29.5782V25.9802H49.1983C49.9082 25.9802 50.4837 25.4046 50.4837 24.6948V20.4729C50.4837 19.763 49.9082 19.1875 49.1983 19.1875H40.9375C40.2276 19.1875 39.6521 19.763 39.6521 20.4729V29.5782L29.482 39.7483H19V61.7771C19 62.487 19.5755 63.0625 20.2854 63.0625H35.5217V49.3858C35.5217 48.676 36.0972 48.1004 36.8071 48.1004H45.0679C45.7778 48.1004 46.3533 48.676 46.3533 49.3858V63.0625H61.5896C62.2995 63.0625 62.875 62.487 62.875 61.7771V39.7483H52.393L42.2229 29.5782ZM27.0781 56.2698C27.0781 56.9797 26.5025 57.5552 25.7927 57.5552C25.0828 57.5552 24.5073 56.9797 24.5073 56.2698V53.5163C24.5073 52.8064 25.0828 52.2309 25.7927 52.2309C26.5025 52.2309 27.0781 52.8064 27.0781 53.5163V56.2698ZM27.0781 48.009C27.0781 48.7189 26.5025 49.2944 25.7927 49.2944C25.0828 49.2944 24.5073 48.7189 24.5073 48.009V45.2554C24.5073 44.5455 25.0828 43.97 25.7927 43.97C26.5025 43.97 27.0781 44.5455 27.0781 45.2554V48.009ZM32.5852 56.2698C32.5852 56.9797 32.0097 57.5552 31.2998 57.5552C30.5899 57.5552 30.0144 56.9797 30.0144 56.2698V53.5163C30.0144 52.8064 30.5899 52.2309 31.2998 52.2309C32.0097 52.2309 32.5852 52.8064 32.5852 53.5163V56.2698ZM32.5852 48.009C32.5852 48.7189 32.0097 49.2944 31.2998 49.2944C30.5899 49.2944 30.0144 48.7189 30.0144 48.009V45.2554C30.0144 44.5455 30.5899 43.97 31.2998 43.97C32.0097 43.97 32.5852 44.5455 32.5852 45.2554V48.009ZM40.9375 45.1641C38.7104 45.1641 36.8985 43.3521 36.8985 41.125C36.8985 38.8979 38.7104 37.0859 40.9375 37.0859C43.1646 37.0859 44.9766 38.8979 44.9766 41.125C44.9766 43.3521 43.1646 45.1641 40.9375 45.1641ZM51.8606 56.2698C51.8606 56.9797 51.2851 57.5552 50.5752 57.5552C49.8653 57.5552 49.2898 56.9797 49.2898 56.2698V53.5163C49.2898 52.8064 49.8653 52.2309 50.5752 52.2309C51.2851 52.2309 51.8606 52.8064 51.8606 53.5163V56.2698ZM51.8606 48.009C51.8606 48.7189 51.2851 49.2944 50.5752 49.2944C49.8653 49.2944 49.2898 48.7189 49.2898 48.009V45.2554C49.2898 44.5455 49.8653 43.97 50.5752 43.97C51.2851 43.97 51.8606 44.5455 51.8606 45.2554V48.009ZM54.7969 45.2554C54.7969 44.5455 55.3725 43.97 56.0823 43.97C56.7922 43.97 57.3677 44.5455 57.3677 45.2554V48.009C57.3677 48.7189 56.7922 49.2944 56.0823 49.2944C55.3725 49.2944 54.7969 48.7189 54.7969 48.009V45.2554ZM54.7969 53.5163C54.7969 52.8064 55.3725 52.2309 56.0823 52.2309C56.7922 52.2309 57.3677 52.8064 57.3677 53.5163V56.2699C57.3677 56.9798 56.7922 57.5553 56.0823 57.5553C55.3725 57.5553 54.7969 56.9798 54.7969 56.2699V53.5163Z" />
</svg>
