<svg  viewBox="0 0 96 96"  xmlns="http://www.w3.org/2000/svg">
<path d="M72.4766 38.318H57.8363L62.8393 43.321H74V39.8415C74 38.9995 73.3175 38.318 72.4766 38.318ZM38.1637 38.318H23.5234C22.6825 38.318 22 38.9995 22 39.8415V43.321H33.1607L38.1637 38.318ZM44.6281 59.3141H51.3719V74H44.6281V59.3141ZM48 46.2598C47.0405 46.2598 46.2599 47.0405 46.2599 48C46.2599 48.9595 47.0405 49.7402 48 49.7402C48.9595 49.7402 49.7402 48.9595 49.7402 48C49.7402 47.0405 48.9595 46.2598 48 46.2598Z" />
<path d="M49.5234 34.3149V30.0506H57.7906C58.632 30.0506 59.3141 29.3685 59.3141 28.5271V23.5234C59.3141 22.6821 58.632 22 57.7906 22H48C47.1587 22 46.4766 22.6821 46.4766 23.5234V34.3149L34.4231 46.3683H22V72.4766C22 73.3179 22.6821 74 23.5234 74H41.5813V57.7906C41.5813 56.9493 42.2633 56.2672 43.1047 56.2672H52.8953C53.7367 56.2672 54.4188 56.9493 54.4188 57.7906V74H72.4766C73.3179 74 74 73.3179 74 72.4766V46.3683H61.5769L49.5234 34.3149ZM31.574 65.9494C31.574 66.7908 30.8919 67.4729 30.0506 67.4729C29.2092 67.4729 28.5271 66.7908 28.5271 65.9494V62.6859C28.5271 61.8446 29.2092 61.1625 30.0506 61.1625C30.8919 61.1625 31.574 61.8446 31.574 62.6859V65.9494ZM31.574 56.1588C31.574 57.0002 30.8919 57.6823 30.0506 57.6823C29.2092 57.6823 28.5271 57.0002 28.5271 56.1588V52.8953C28.5271 52.054 29.2092 51.3719 30.0506 51.3719C30.8919 51.3719 31.574 52.054 31.574 52.8953V56.1588ZM38.101 65.9494C38.101 66.7908 37.4189 67.4729 36.5776 67.4729C35.7362 67.4729 35.0541 66.7908 35.0541 65.9494V62.6859C35.0541 61.8446 35.7362 61.1625 36.5776 61.1625C37.4189 61.1625 38.101 61.8446 38.101 62.6859V65.9494ZM38.101 56.1588C38.101 57.0002 37.4189 57.6823 36.5776 57.6823C35.7362 57.6823 35.0541 57.0002 35.0541 56.1588V52.8953C35.0541 52.054 35.7362 51.3719 36.5776 51.3719C37.4189 51.3719 38.101 52.054 38.101 52.8953V56.1588ZM48 52.787C45.3605 52.787 43.2131 50.6395 43.2131 48C43.2131 45.3605 45.3605 43.213 48 43.213C50.6395 43.213 52.787 45.3605 52.787 48C52.787 50.6395 50.6395 52.787 48 52.787ZM60.9459 65.9494C60.9459 66.7908 60.2638 67.4729 59.4224 67.4729C58.5811 67.4729 57.899 66.7908 57.899 65.9494V62.6859C57.899 61.8446 58.5811 61.1625 59.4224 61.1625C60.2638 61.1625 60.9459 61.8446 60.9459 62.6859V65.9494ZM60.9459 56.1588C60.9459 57.0002 60.2638 57.6823 59.4224 57.6823C58.5811 57.6823 57.899 57.0002 57.899 56.1588V52.8953C57.899 52.054 58.5811 51.3719 59.4224 51.3719C60.2638 51.3719 60.9459 52.054 60.9459 52.8953V56.1588ZM64.426 52.8953C64.426 52.054 65.1081 51.3719 65.9494 51.3719C66.7908 51.3719 67.4729 52.054 67.4729 52.8953V56.1588C67.4729 57.0002 66.7908 57.6823 65.9494 57.6823C65.1081 57.6823 64.426 57.0002 64.426 56.1588V52.8953ZM64.426 62.6859C64.426 61.8446 65.1081 61.1625 65.9494 61.1625C66.7908 61.1625 67.4729 61.8446 67.4729 62.6859V65.9496C67.4729 66.7909 66.7908 67.473 65.9494 67.473C65.1081 67.473 64.426 66.7909 64.426 65.9496V62.6859Z" />
</svg>
