<svg  viewBox="0 0 82 82" xmlns="http://www.w3.org/2000/svg">
<path d="M30.3854 33.9141L32.4617 20.625H21.6625L17.1501 32.0156C17.011 32.4206 16.9375 32.8408 16.9375 33.2812C16.9375 36.0758 19.9563 38.3438 23.6864 38.3438C27.1251 38.3438 29.968 36.4099 30.3854 33.9141ZM40.5625 38.3438C44.29 38.3438 47.3114 36.0758 47.3114 33.2812C47.3114 33.1775 47.3035 33.0737 47.2982 32.975L45.9621 20.625H35.1629L33.8241 32.9648C33.8189 33.0686 33.8136 33.1724 33.8136 33.2812C33.8136 36.0758 36.835 38.3438 40.5625 38.3438ZM53.6875 40.9914V51H27.4375V41.0066C26.2877 41.4066 25.0225 41.6344 23.6864 41.6344C23.1745 41.6344 22.6784 41.5762 22.1875 41.5103V57.5812C22.1875 59.5303 23.8386 61.125 25.8572 61.125H55.2625C57.2837 61.125 58.9375 59.5278 58.9375 57.5812V41.5129C58.4413 41.5863 57.9406 41.6278 57.4386 41.6369C56.1587 41.6357 54.8889 41.4172 53.6875 40.9914ZM63.9775 32.0156L59.4599 20.625H48.6633L50.737 33.8938C51.1412 36.3998 53.9841 38.3438 57.4386 38.3438C61.1661 38.3438 64.1875 36.0758 64.1875 33.2812C64.1875 32.8408 64.114 32.4206 63.9775 32.0156Z" />
</svg>
