<svg  viewBox="0 0 96 96"  xmlns="http://www.w3.org/2000/svg">
<path d="M41.6754 69.4025H54.2728V62.8004L41.4751 63.0594L41.6754 69.4025Z"/>
<path d="M48.0003 55.9274C43.713 55.9274 40.1471 52.7776 39.3882 48.6352H30.2588V69.4025H38.5158V62.8004C38.5167 62.0023 38.8287 61.2372 39.3834 60.6727C39.9381 60.1082 40.6903 59.7904 41.4751 59.789H54.5255C55.3103 59.7904 56.0625 60.1082 56.6172 60.6727C57.172 61.2372 57.484 62.0023 57.4848 62.8004V69.4025H65.7418V48.6352H56.6125C55.8535 52.7776 52.2876 55.9274 48.0003 55.9274ZM54.2728 24.6021H41.7279V31.2036L54.2728 30.9525V24.6021Z" />
<path d="M68.088 18H27.9127C26.8755 18.0007 25.881 18.4199 25.1474 19.1655C24.4139 19.9111 24.0012 20.9222 24 21.977V72.023C24.0012 73.0778 24.4139 74.0889 25.1474 74.8345C25.881 75.5801 26.8755 75.9993 27.9127 76H68.0873C69.1245 75.9993 70.119 75.5801 70.8526 74.8345C71.5861 74.0889 71.9988 73.0778 72 72.023V21.977C71.999 20.9223 71.5864 19.9111 70.853 19.1655C70.1195 18.4199 69.1251 18.0007 68.088 18ZM68.9545 69.8612C68.9535 70.6071 68.6615 71.3222 68.1427 71.8494C67.6239 72.3766 66.9205 72.673 66.1871 72.6736H29.8136C29.0801 72.673 28.3768 72.3766 27.858 71.8494C27.3391 71.3222 27.0472 70.6071 27.0461 69.8612V24.1427C27.0472 23.3968 27.3391 22.6818 27.858 22.1546C28.3768 21.6273 29.0801 21.3309 29.8136 21.3304H66.1871C66.9205 21.3309 67.6239 21.6273 68.1427 22.1546C68.6615 22.6818 68.9535 23.3968 68.9545 24.1427V69.8612Z" />
<path d="M57.4848 31.2036C57.484 32.0016 57.172 32.7668 56.6172 33.3313C56.0625 33.8958 55.3103 34.2136 54.5255 34.215H41.4751C40.6903 34.2136 39.9381 33.8958 39.3834 33.3313C38.8287 32.7668 38.5167 32.0016 38.5158 31.2036V24.6021H30.2588V45.3648H39.3888C40.1471 41.2257 43.713 38.0766 48.0003 38.0766C52.2876 38.0766 55.8535 41.2257 56.6125 45.3641H65.7425V24.6021H57.4855L57.4848 31.2036Z" />
<path d="M48.0003 52.6563C51.0465 52.6563 53.5216 50.1524 53.5566 47.0626C53.5547 47.0409 53.543 47.0218 53.543 47C53.543 46.9783 53.5547 46.9591 53.5566 46.9374C53.5216 43.8476 51.0465 41.3476 48.0003 41.3476C44.9542 41.3476 42.479 43.8476 42.444 46.9374C42.446 46.9591 42.4577 46.9783 42.4577 47C42.4577 47.0218 42.446 47.0409 42.444 47.0626C42.479 50.1524 44.9542 52.6563 48.0003 52.6563Z" />
</svg>