<svg  viewBox="0 0 82 82"  xmlns="http://www.w3.org/2000/svg">
<path d="M52.0926 59.8973L54.3696 47.1904H57.7276C58.3826 47.1904 58.9141 46.6589 58.9141 46.0039V38.8573L60.6047 36.3915C60.7397 36.1943 60.8125 35.9601 60.8125 35.7207V30.3418C60.8125 29.7501 60.3759 29.2481 59.7895 29.1669L57.9649 28.9138V24.8838C57.9649 24.5695 57.8394 24.2679 57.6169 24.0453C57.3943 23.8228 57.0927 23.6983 56.7784 23.6983L53.0333 23.6983L50.3809 20.7652C50.1562 20.5163 49.8367 20.375 49.5013 20.375L43.4897 20.375C43.1754 20.375 42.8738 20.4995 42.6513 20.722C42.4287 20.9445 42.3032 21.2462 42.3032 21.5615V29.1806L36.7304 35.4771L29.8772 37.597L25.1091 34.7789C24.8148 34.6048 24.4594 34.5669 24.1335 34.6734C23.8076 34.781 23.545 35.0236 23.4121 35.3389L20.4064 42.458C20.3431 42.6068 20.3125 42.7639 20.3125 42.9189C20.3125 43.2522 20.4538 43.5802 20.7154 43.8091L27.0033 49.3462C27.2195 49.5371 27.499 49.6426 27.7869 49.6426H29.8835V53.9141C29.8835 54.5353 30.3634 55.0521 30.9825 55.0974L38.0192 55.6163L42.3665 60.4795C42.5911 60.7316 42.9128 60.875 43.2514 60.875L50.9251 60.875C51.4999 60.875 51.9913 60.4637 52.0926 59.8973Z" />
</svg>
