<svg viewBox="0 0 82 82"  xmlns="http://www.w3.org/2000/svg">
<path fill-rule="evenodd" clip-rule="evenodd" d="M50.6221 28.6026H59.341C62.3567 28.6026 64.8125 31.0596 64.8125 34.0774V55.4002C64.8125 58.4179 62.3567 60.875 59.341 60.875H23.034C20.0183 60.875 17.5625 58.4179 17.5625 55.4002V34.0774C17.5625 31.0596 20.0183 28.6026 23.034 28.6184H31.7529V23.3927C31.7529 21.7276 33.1054 20.375 34.7686 20.375H47.6064C49.2696 20.375 50.6221 21.7276 50.6221 23.3927V28.6026ZM46.0991 24.9006H36.2759V28.5244H46.0991V24.9006ZM32.2625 45.3662L37.8622 50.75L49.0625 39.9813L46.5718 37.5875L37.8622 45.9703L34.7532 42.9714L32.2625 45.3662Z" />
</svg>
