<svg  viewBox="0 0 82 81"  xmlns="http://www.w3.org/2000/svg">
<path fill-rule="evenodd" clip-rule="evenodd" d="M35.5206 22.1127C34.1123 22.6085 33.0686 23.7614 32.7629 25.1588C32.7018 25.4381 32.6519 26.1388 32.6519 26.7159V27.7653H29.2357C26.4396 27.7653 25.7096 27.7928 25.2131 27.9171C23.2936 28.3975 21.7607 29.9599 21.3463 31.8582C21.1325 32.8378 21.1355 52.3142 21.3497 53.3025C21.7429 55.1175 23.1781 56.6294 25.0365 57.1868C25.6489 57.3705 26.0399 57.375 41.4375 57.375C56.8351 57.375 57.2261 57.3705 57.8385 57.1868C59.6969 56.6294 61.1321 55.1175 61.5253 53.3025C61.7395 52.3142 61.7425 32.8378 61.5287 31.8582C61.1156 29.9656 59.5801 28.3945 57.672 27.912C57.2048 27.7938 56.4228 27.7653 53.6574 27.7653H50.2231V26.7722C50.2231 25.5919 50.1096 24.9419 49.7822 24.2478C49.4372 23.5161 48.5498 22.6502 47.7612 22.2755L47.1136 21.9679L41.5856 21.9458C36.2993 21.9247 36.034 21.932 35.5206 22.1127ZM46.5405 25.4091C46.8123 25.6358 46.8175 25.6595 46.8175 26.6787V27.7174L36.0082 27.7669V26.7673C36.0082 25.8316 36.0246 25.7488 36.2637 25.4729L36.5193 25.178H46.2635L46.5405 25.4091ZM43.4612 32.6165C48.5344 33.5583 52.1813 38.1273 51.8672 43.1482C51.6282 46.9705 49.0998 50.466 45.5308 51.9082C44.0306 52.5144 43.4431 52.6187 41.4869 52.6255C39.9232 52.6309 39.6093 52.6051 38.8709 52.4095C36.5323 51.7903 34.5085 50.4896 33.1346 48.7229C29.9562 44.6358 30.3566 38.9424 34.0724 35.3883C36.5874 32.9825 40.0025 31.9744 43.4612 32.6165ZM37.6523 37.8708C36.6955 38.2019 36.2337 39.214 36.6504 40.0664C36.7321 40.2336 37.3089 40.864 37.9321 41.4672L39.0652 42.5639L37.888 43.7198C37.2405 44.3554 36.6638 44.9957 36.6063 45.1425C36.1272 46.3657 37.3042 47.6443 38.5994 47.3076C38.9369 47.2198 39.2555 46.9717 40.2282 46.0392L41.4375 44.8797L42.6468 46.0392C43.6195 46.9717 43.9381 47.2198 44.2756 47.3076C45.5708 47.6443 46.7478 46.3657 46.2687 45.1425C46.2112 44.9957 45.6345 44.3554 44.987 43.7198L43.8098 42.5639L44.9429 41.4672C45.5661 40.864 46.1429 40.2336 46.2246 40.0664C46.8123 38.8639 45.6098 37.4858 44.2756 37.8327C43.9381 37.9205 43.6195 38.1686 42.6468 39.1011L41.4375 40.2606L40.2282 39.1018C39.2963 38.2087 38.9285 37.9188 38.6241 37.8376C38.1388 37.7079 38.1211 37.7085 37.6523 37.8708Z" />
</svg>
