<svg  viewBox="0 0 102 102"  xmlns="http://www.w3.org/2000/svg">
<path d="M45.1562 62.5V59.6875H24.5139L24.4844 70.9375C24.4844 74.0594 27.1127 76.5625 30.3906 76.5625H71.7344C75.0123 76.5625 77.6406 74.0594 77.6406 70.9375V59.6875H56.9688V62.5H45.1562ZM74.6875 37.1875H62.8455V32.9212C62.8455 32.052 62.4848 31.219 61.8444 30.6091L57.9189 26.8705C57.2911 26.2726 56.4453 25.9375 55.5642 25.9375H46.5018C45.6206 25.9375 44.7748 26.2726 44.147 26.8705L40.2215 30.6091C39.5811 31.219 39.2205 32.052 39.2205 32.9212V37.1875H27.4375C24.1891 37.1875 21.5312 39.7187 21.5312 42.8125V51.25C21.5312 54.3719 24.1595 56.875 27.4375 56.875H45.1562V51.25H56.9688V56.875H74.6875C77.9359 56.875 80.5938 54.3437 80.5938 51.25V42.8125C80.5938 39.7187 77.9359 37.1875 74.6875 37.1875ZM56.9688 37.1875H45.1562V34.8077C45.1562 33.0154 46.6587 31.5625 48.5121 31.5625H53.6129C55.4663 31.5625 56.9688 33.0154 56.9688 34.8077V37.1875Z" />
</svg>
