<svg  viewBox="0 0 82 81"  xmlns="http://www.w3.org/2000/svg">
<path d="M40.8438 58.05C50.4963 58.05 58.3937 50.1525 58.3937 40.5C58.3937 30.8475 50.4963 22.95 40.8438 22.95C31.1913 22.95 23.2937 30.8475 23.2937 40.5C23.2937 50.1525 31.1913 58.05 40.8438 58.05ZM40.8438 18.5625C52.9094 18.5625 62.7812 28.4344 62.7812 40.5C62.7812 52.5656 52.9094 62.4375 40.8438 62.4375C28.7781 62.4375 18.9062 52.5656 18.9062 40.5C18.9062 28.4344 28.7781 18.5625 40.8438 18.5625ZM47.2614 48.3051C47.7183 49.0884 47.4665 50.0932 46.6942 50.5685C45.8931 51.0615 44.8429 50.7957 44.3728 49.9808L39.1016 40.8441C38.8058 40.3312 38.65 39.7496 38.65 39.1575V31.1766C38.65 30.2679 39.3866 29.5312 40.2953 29.5312C41.204 29.5312 41.9406 30.2679 41.9406 31.1766V38.2713C41.9406 38.8689 42.0993 39.4557 42.4004 39.9719L47.2614 48.3051Z" />
</svg>
