<svg viewBox="0 0 82 81" xmlns="http://www.w3.org/2000/svg">
<path d="M39.0719 56.4933L46.9065 42.6542C47.9323 40.8419 49.7881 39.76 51.8708 39.76C53.9534 39.76 55.8092 40.8419 56.8352 42.6542L57.4057 43.662C57.6031 42.6196 57.7023 41.5609 57.7021 40.5C57.7021 36.0136 55.955 31.7959 52.7828 28.6235C49.6104 25.4512 45.3925 23.7041 40.9062 23.7041C36.4199 23.7041 32.2021 25.4512 29.0297 28.6234C25.8575 31.7959 24.1103 36.0136 24.1103 40.5C24.1103 44.9864 25.8575 49.2041 29.0297 52.3765C31.6877 55.0345 35.0799 56.6912 38.7487 57.1588C38.8423 56.9304 38.9503 56.7081 39.0719 56.4933ZM33.151 41.7426C32.4411 41.7426 31.8656 41.167 31.8656 40.4572C31.8656 39.7473 32.4411 39.1718 33.151 39.1718H37.2859C37.681 38.098 38.5413 37.2478 39.6208 36.8649V32.7019C39.6208 31.992 40.1964 31.4165 40.9062 31.4165C41.6161 31.4165 42.1916 31.992 42.1916 32.7019V36.8649C43.6878 37.3955 44.7624 38.8243 44.7624 40.5C44.7624 42.6263 43.0326 44.3562 40.9062 44.3562C39.2147 44.3562 37.775 43.2609 37.2566 41.7426H33.151Z"/>
<path d="M39.1081 62.1768C38.6544 61.3987 38.3973 60.5528 38.3371 59.6975C34.1379 59.1443 30.257 57.2394 27.2119 54.1943C23.554 50.5364 21.5395 45.6731 21.5395 40.5C21.5395 35.327 23.554 30.4636 27.2118 26.8056C30.8698 23.1478 35.7333 21.1333 40.9062 21.1333C46.0792 21.1333 50.9426 23.1478 54.6006 26.8057C58.2585 30.4636 60.2729 35.327 60.2729 40.5C60.2729 42.6959 59.9086 44.8354 59.211 46.8512L60.8286 49.7086C62.1476 46.8593 62.8437 43.7334 62.8437 40.5C62.8437 34.6403 60.5618 29.1312 56.4184 24.9878C52.2749 20.8444 46.766 18.5625 40.9062 18.5625C35.0465 18.5625 29.5376 20.8444 25.394 24.9878C21.2507 29.1312 18.9688 34.6403 18.9688 40.5C18.9688 46.3597 21.2507 51.8688 25.394 56.0122C29.1397 59.7578 34.0012 61.9817 39.2289 62.3743C39.1873 62.3093 39.1471 62.2434 39.1081 62.1768Z"/>
<path d="M62.4323 57.7598L54.5979 43.9207C54.0343 42.9251 53.0148 42.3308 51.8707 42.3308C50.7267 42.3308 49.7071 42.9251 49.1435 43.9207L41.309 57.7598C40.7536 58.7409 40.761 59.9081 41.3289 60.8821C41.8968 61.856 42.9089 62.4375 44.0363 62.4375H59.7052C60.8327 62.4375 61.8447 61.856 62.4126 60.8821C62.9804 59.9081 62.9878 58.7409 62.4323 57.7598ZM53.1298 58.2665C53.0086 58.8601 52.4765 59.3 51.8692 59.3C51.3332 59.3 50.8396 58.9535 50.6601 58.448C50.4807 57.9426 50.6377 57.362 51.0543 57.0214C51.4708 56.681 52.0679 56.6378 52.5298 56.9126C52.9895 57.1862 53.2369 57.7418 53.1298 58.2665ZM53.1561 53.0189C53.1561 53.7288 52.5806 54.3043 51.8707 54.3043C51.1608 54.3043 50.5853 53.7288 50.5853 53.0189V48.8927C50.5853 48.1828 51.1608 47.6073 51.8707 47.6073C52.5806 47.6073 53.1561 48.1828 53.1561 48.8927V53.0189Z"/>
</svg>
