<svg viewBox="0 0 82 82" xmlns="http://www.w3.org/2000/svg">
<path d="M51.2818 61H30.5932C29.7924 61 29.125 60.3632 29.125 59.599V45.7168C29.125 41.896 32.4619 38.8394 36.4661 38.8394H45.4089C49.4131 38.8394 52.75 41.896 52.75 45.7168V59.599C52.75 60.3632 52.0826 61 51.2818 61Z"/>
<path d="M36.5994 36.0379C33.9299 34.637 32.0613 31.9624 32.0613 28.7784C32.0613 24.1934 36.0655 20.5 40.8706 20.5C45.6757 20.5 49.68 24.1934 49.68 28.7784C49.68 31.835 47.8113 34.5096 45.1418 36.0379C43.8071 36.6747 42.3389 37.0568 40.8706 37.0568C39.4024 37.1842 37.8007 36.8021 36.5994 36.0379Z"/>
</svg>
