<svg  viewBox="0 0 82 82"  xmlns="http://www.w3.org/2000/svg">
<path d="M67.4198 59.3542L43.7952 18.7966C42.4936 16.5678 39.2517 16.5678 37.9501 18.7966L14.3334 59.3542C13.0318 61.5831 14.6568 64.375 17.2598 64.375H64.5012C67.0964 64.375 68.7135 61.5831 67.4198 59.3542ZM38.4155 33.0536C40.0247 33.0536 41.3341 34.3518 41.3341 35.9472C41.3341 37.5426 40.0247 38.8408 38.4155 38.8408C36.8064 38.8408 35.497 37.5426 35.497 35.9472C35.497 34.3518 36.8064 33.0536 38.4155 33.0536ZM35.8125 49.164L31.2295 57.3443C30.9692 57.7119 30.5433 57.9308 30.0858 57.9308C29.8018 57.9308 29.5257 57.8448 29.297 57.6806C28.9893 57.4694 28.7921 57.1566 28.7211 56.7969C28.658 56.4371 28.7369 56.0695 28.9499 55.7645L33.3041 48.0378L33.4145 47.5608C33.4224 47.5217 33.454 47.4904 33.4855 47.4747C33.5249 47.4591 33.5644 47.4591 33.5959 47.4825C33.5959 47.4825 34.1244 47.9361 34.2191 48.0143C34.3137 48.0926 34.4242 48.1629 34.6529 48.116L34.8501 48.0847L35.7809 48.9997C35.8361 49.0467 35.8519 49.1092 35.8125 49.164ZM40.7898 53.9423L40.0168 57.3052C39.8669 57.9308 39.3148 58.3688 38.6679 58.3688C38.5654 58.3688 38.455 58.3532 38.3524 58.3297C37.9896 58.2437 37.6819 58.0247 37.4926 57.7119C37.2954 57.399 37.2323 57.0315 37.3191 56.6717L38.4471 51.7995C38.455 51.7526 38.4944 51.7213 38.5338 51.7057C38.5812 51.69 38.6285 51.7057 38.6601 51.7369L40.7583 53.8172C40.7898 53.8563 40.7977 53.9032 40.7898 53.9423ZM46.4377 57.6024C46.2168 57.8214 45.7908 57.9308 45.1519 57.9308C44.4735 57.9308 43.7794 57.8057 43.6453 57.7823C43.6216 57.7744 43.598 57.7666 43.5822 57.751L41.4209 55.6081C41.3735 55.5612 41.3735 55.483 41.4209 55.4283L42.4936 54.3647L34.9132 46.8491L34.8107 46.8725C34.7239 46.8882 34.645 46.9038 34.5662 46.9038C34.2822 46.9038 34.014 46.7943 33.8089 46.591L30.3776 43.189C30.1489 42.9622 30.0305 42.6416 30.07 42.321C30.1094 42.0003 30.283 41.711 30.559 41.5389L34.7239 38.919C34.8975 38.8095 35.0947 38.7548 35.2998 38.7548C35.3786 38.7548 35.4496 38.7626 35.5206 38.7782H35.5285L40.0878 39.748C40.3639 39.8027 40.6084 39.9591 40.774 40.1938L43.2114 43.713C43.5112 44.151 43.4481 44.7297 43.0616 45.0894L38.6443 49.2187L43.1641 53.6999L44.2369 52.6363C44.2842 52.5894 44.3631 52.5894 44.4183 52.6363L46.5796 54.7791C46.5954 54.7948 46.6112 54.8183 46.6112 54.8417C46.627 54.9356 46.7216 55.4204 46.7532 55.9757C46.8005 56.8047 46.698 57.3443 46.4377 57.6024ZM41.7522 51.2599C41.7443 51.3146 41.7048 51.3459 41.6654 51.3616C41.6575 51.3616 41.6417 51.3694 41.6338 51.3694C41.6023 51.3694 41.5707 51.3537 41.5471 51.3303L39.512 49.3126C39.4883 49.2891 39.4725 49.2578 39.4725 49.2187C39.4725 49.1874 39.4883 49.1561 39.512 49.1327L39.9537 48.7182C40.001 48.6713 40.072 48.6713 40.1193 48.7104L41.1684 49.5628C41.6733 49.9695 41.8941 50.6342 41.7522 51.2599ZM58.0173 57.8292C57.9778 57.8917 57.9147 57.9308 57.8437 57.9308H47.6209C47.5735 57.9308 47.5262 57.9074 47.4946 57.8683C47.4631 57.8292 47.4552 57.7822 47.4631 57.7353L47.9522 55.7645C47.96 55.7411 47.9679 55.7176 47.9837 55.702L48.7094 54.8339L49.1038 53.5513C49.1117 53.5122 49.1432 53.4809 49.1748 53.4653L50.5631 52.6676C50.6262 52.6363 50.6972 52.6441 50.7524 52.6911L51.77 53.6452L52.4089 53.6686L53.3633 53.1681C53.4107 53.1446 53.4659 53.1446 53.5132 53.1681L54.5939 53.7547C54.6333 53.7781 54.6649 53.8094 54.6728 53.8563L54.8621 54.6462L55.572 54.8261C55.6193 54.8417 55.6588 54.873 55.6745 54.9199L55.8875 55.4204L56.132 55.3109C56.203 55.2797 56.2819 55.2953 56.3371 55.3344C56.3529 55.3501 56.3687 55.3657 56.3845 55.3892L56.913 56.4684C56.9682 56.4528 57.0234 56.4606 57.0786 56.4919L57.5203 56.7656C57.5519 56.7812 57.5756 56.8125 57.5913 56.8438L58.0173 57.6337C58.0567 57.6962 58.0567 57.7744 58.0173 57.8292Z" />
<path d="M39.9307 42.726L39.6861 44.1259C39.6782 44.1494 39.6704 44.1806 39.6467 44.1963L37.233 46.4486C37.1856 46.4955 37.1068 46.4955 37.0594 46.4486L36.5388 45.9325C36.5151 45.909 36.4994 45.8777 36.4994 45.8464C36.4994 45.3381 36.3022 44.8532 35.9393 44.4935L33.5808 42.1629L32.8393 42.6243L35.3241 45.0878C35.5922 45.3537 35.6948 45.7213 35.608 46.0889L35.5844 46.1905L37.1225 47.7155L37.2645 47.5826L37.2724 47.5748L40.9246 44.165L39.9307 42.726Z" />
</svg>
