<svg  viewBox="0 0 82 81" xmlns="http://www.w3.org/2000/svg">
<path d="M50.5647 28.6939L46.6718 22.5618C46.4613 22.2698 46.1457 22.0752 45.83 21.9778C45.5144 21.8805 45.0935 21.9778 44.7779 22.0752L32.8885 28.5966L50.5647 28.6939Z" />
<path d="M24.4712 30.3486C23.4191 30.3486 22.6826 29.57 22.6826 28.694C22.6826 27.8179 23.5243 27.0393 24.4712 27.0393H30.5737L36.6763 23.6325H24.4712C21.7356 23.6325 19.5261 25.4819 19.1052 27.8179C19.1052 27.9153 19 28.1099 19 28.2073V54.0011C19 56.8238 21.42 59.0625 24.4712 59.0625H55.5099C57.509 59.0625 59.1924 57.5051 59.1924 55.6558V52.249H54.6682C50.1439 52.249 46.4613 48.8423 46.4613 44.6569C46.4613 40.4715 50.1439 37.0648 54.6682 37.0648H59.1924V33.658C59.1924 31.8087 57.509 30.2513 55.5099 30.2513H24.4712V30.3486ZM53.7212 26.9419C53.7212 25.1899 52.3534 23.8272 50.5647 23.6325L53.7212 28.694V26.9419Z" />
<path d="M61.5072 39.5954H54.6682C51.6169 39.5954 49.1969 41.8342 49.1969 44.6569C49.1969 47.4796 51.6169 49.7183 54.6682 49.7183H61.5072C62.2437 49.7183 62.875 49.1343 62.875 48.4529V40.8608C62.875 40.1795 62.2437 39.5954 61.5072 39.5954ZM54.563 46.4089C53.5108 46.4089 52.7743 45.6302 52.7743 44.7542C52.7743 43.7809 53.616 43.0995 54.563 43.0995C55.5099 43.0995 56.3516 43.8782 56.3516 44.7542C56.4568 45.6302 55.6151 46.4089 54.563 46.4089Z" />
</svg>
