<svg viewBox="0 0 82 82"  xmlns="http://www.w3.org/2000/svg">
<path d="M40.4125 33.1381C39.5399 33.2205 38.8854 34.0038 38.9672 34.8833L39.499 40.5861C39.5399 41.0945 39.9353 41.5068 40.4534 41.548C41.0397 41.603 41.5578 41.177 41.6124 40.5861L42.1441 34.8833C42.1578 34.7871 42.1578 34.6772 42.1441 34.581C42.0623 33.7015 41.2851 33.0556 40.4125 33.1381ZM40.5625 42.7298C39.8671 42.7298 39.2945 43.3069 39.2945 44.0077C39.2945 44.7086 39.8671 45.2857 40.5625 45.2857C41.2579 45.2857 41.8305 44.7086 41.8305 44.0077C41.8305 43.2932 41.2579 42.7298 40.5625 42.7298ZM62.4461 32.7396C62.4461 29.0293 60.4009 25.7313 58.6966 24.3572C56.9923 22.983 49.9022 18.4482 46.3572 16.7992C42.8122 15.1503 38.3128 15.1503 34.7678 16.7992C31.2228 18.4482 24.1327 22.983 22.4284 24.3572C20.7241 25.7313 18.6789 29.0293 18.6789 32.7396C18.6789 36.4498 18.4062 39.8852 19.0879 48.199C19.4969 52.0466 21.624 54.5339 22.3602 55.0698C23.0965 55.6057 29.8593 60.7039 35.5858 63.1087C39.2672 64.9638 41.8578 64.9638 45.5392 63.1087C51.2657 60.7039 57.4968 56.018 58.7648 55.0698C60.0328 54.1216 61.6281 52.0466 62.0371 48.199C62.7188 39.8852 62.4461 36.4498 62.4461 32.7396ZM40.5625 50.0678C38.9263 50.0678 37.3856 49.6968 36.0085 49.0509C35.9267 49.0922 35.8585 49.1196 35.7631 49.1471L31.1409 50.2465C30.2956 50.4526 29.5866 49.6006 29.9138 48.8036L31.4409 44.9697C30.4183 43.3069 29.8184 41.3419 29.8184 39.2531C29.8184 33.2755 34.6314 28.4247 40.5625 28.4247C46.4936 28.4247 51.3066 33.2755 51.3066 39.2531C51.3066 45.2308 46.4936 50.0678 40.5625 50.0678Z" />
</svg>
