<svg  viewBox="0 0 82 82"  xmlns="http://www.w3.org/2000/svg">
<path d="M55.1947 43.7307C54.9081 43.7521 48.0503 44.3527 45.2458 47.3018C42.4311 50.2509 41.8681 57.4252 41.8374 57.7254C41.7863 58.4118 42.3492 59.0123 43.0145 58.9587C43.3011 58.9372 50.1588 58.3367 52.9634 55.3876C55.7781 52.4385 56.3411 45.2642 56.3718 44.964C56.4229 44.2776 55.8498 43.6771 55.1947 43.7307Z" />
<path d="M41.8374 43.7093C41.7863 44.3956 42.3492 44.9961 43.0145 44.9425C43.3011 44.9211 50.1588 44.3205 52.9634 41.3714C55.7781 38.4224 56.3411 31.248 56.3718 30.9478C56.4229 30.2614 55.86 29.6609 55.1947 29.7145C54.9081 29.736 48.0503 30.3365 45.2458 33.2856C42.4311 36.2347 41.8579 43.409 41.8374 43.7093Z" />
<path d="M42.0216 35.7842C42.2059 35.5483 46.6481 30.0577 46.6481 25.886C46.6481 21.7252 42.2059 16.2238 42.0216 15.9879C41.5918 15.4624 40.7934 15.4624 40.3635 15.9879C40.169 16.2238 35.7268 21.7252 35.7268 25.8968C35.7268 30.0577 40.169 35.559 40.3533 35.795C40.7832 36.3097 41.5918 36.3097 42.0216 35.7842Z" />
<path d="M40.5375 57.7255C40.517 57.4252 39.9439 50.2402 37.1291 47.3018C34.3144 44.3528 27.4669 43.7629 27.1803 43.7308C26.5252 43.6771 25.952 44.267 26.0032 44.964C26.0237 45.2643 26.5968 52.4493 29.4116 55.3877C32.2263 58.3368 39.0738 58.9266 39.3604 58.9588C40.0257 59.0124 40.5887 58.4226 40.5375 57.7255Z" />
<path d="M39.3604 44.9424C40.0155 44.9961 40.5887 44.4062 40.5375 43.7092C40.517 43.4089 39.9439 36.2239 37.1291 33.2855C34.3144 30.3364 27.4669 29.7466 27.1803 29.7145C26.5252 29.6608 25.952 30.2507 26.0032 30.9477C26.0237 31.248 26.5968 38.433 29.4116 41.3714C32.2263 44.3205 39.0738 44.921 39.3604 44.9424Z" />
<path d="M43.3727 60.2133H39.0022V66.2188H43.3727V60.2133Z" />
</svg>
