<svg width="1030" height="861" viewBox="0 0 1030 861" fill="none" xmlns="http://www.w3.org/2000/svg">
<g clip-path="url(#clip0_741_53252)">
<path d="M515 861.34C799.427 861.34 1030 847.882 1030 831.282C1030 814.682 799.427 801.225 515 801.225C230.573 801.225 0 814.682 0 831.282C0 847.882 230.573 861.34 515 861.34Z" fill="#F5F5F5"/>
<path d="M62.9634 178.978L60.3154 179.187L64.1919 228.316L66.8398 228.107L62.9634 178.978Z" fill="#407BFF"/>
<path d="M68.3403 246.795L65.6924 247.004L66.9504 262.912L69.5983 262.703L68.3403 246.795Z" fill="#407BFF"/>
<path d="M167.337 89.9863H272.069H376.827H481.559H586.291H691.023L695.565 147.605L700.133 205.251L704.675 262.87L709.244 320.516L713.786 378.135L718.355 435.754H613.596H508.865H404.133H299.401H194.669H89.9372L85.3686 378.135L80.8266 320.516L76.2846 262.87L71.716 205.251L67.174 147.605L62.6055 89.9863H167.337Z" fill="#407BFF"/>
<path d="M175.067 82.0205H279.799H384.53H489.262H593.994H698.726L703.294 139.64L707.836 197.285L712.405 254.904L716.947 312.55L721.489 370.169L726.058 427.788H621.326H516.594H411.862H307.104H202.372H97.6401L93.0981 370.169L88.5296 312.55L83.9876 254.904L79.419 197.285L74.877 139.64L70.335 82.0205H175.067Z" fill="white"/>
<path d="M598.562 139.64H703.294L698.725 82.0205H593.993L598.562 139.64Z" fill="white"/>
<path d="M493.804 139.64H598.562L593.994 82.0205H489.262L493.804 139.64Z" fill="white"/>
<path d="M389.072 139.64H493.804L489.262 82.0205H384.53L389.072 139.64Z" fill="white"/>
<path d="M284.34 139.64H389.072L384.53 82.0205H279.798L284.34 139.64Z" fill="white"/>
<path d="M179.608 139.64H284.34L279.798 82.0205H175.066L179.608 139.64Z" fill="white"/>
<path d="M74.877 139.64H179.609L175.067 82.0205H70.335L74.877 139.64Z" fill="#F5F5F5"/>
<path d="M603.104 197.285H707.836L703.294 139.64H598.562L603.104 197.285Z" fill="#407BFF"/>
<path opacity="0.3" d="M498.372 197.285H603.104L598.562 139.64H493.804L498.372 197.285Z" fill="#407BFF"/>
<path opacity="0.6" d="M393.641 197.285H498.373L493.804 139.64H389.072L393.641 197.285Z" fill="#407BFF"/>
<path opacity="0.6" d="M288.908 197.285H393.64L389.072 139.64H284.34L288.908 197.285Z" fill="#407BFF"/>
<path d="M184.177 197.285H288.909L284.34 139.64H179.608L184.177 197.285Z" fill="#407BFF"/>
<path d="M79.419 197.285H184.177L179.609 139.64H74.877L79.419 197.285Z" fill="#F5F5F5"/>
<path d="M713.042 255.516H606.982V254.905L602.387 196.489H708.447V197.1L713.042 255.516ZM608.204 254.188H711.607L707.172 197.87H603.768L608.204 254.188Z" fill="#E0E0E0"/>
<path opacity="0.1" d="M502.914 254.904H607.672L603.104 197.285H498.372L502.914 254.904Z" fill="#407BFF"/>
<path opacity="0.6" d="M398.183 254.904H502.914L498.372 197.285H393.641L398.183 254.904Z" fill="#407BFF"/>
<path opacity="0.6" d="M293.451 254.904H398.183L393.641 197.285H288.909L293.451 254.904Z" fill="#407BFF"/>
<path opacity="0.6" d="M188.719 254.904H293.451L288.909 197.285H184.177L188.719 254.904Z" fill="#407BFF"/>
<path d="M83.9875 254.904H188.719L184.177 197.285H79.4189L83.9875 254.904Z" fill="#F5F5F5"/>
<path d="M717.664 313.214H611.578V312.603L606.956 254.188H713.043V254.798L717.664 313.214ZM612.826 311.886H716.23L711.768 255.515H608.364L612.826 311.886Z" fill="#E0E0E0"/>
<path d="M507.483 312.55H612.214L607.672 254.904H502.914L507.483 312.55Z" fill="white"/>
<path opacity="0.1" d="M402.751 312.55H507.483L502.914 254.904H398.183L402.751 312.55Z" fill="#407BFF"/>
<path opacity="0.8" d="M298.02 312.55H402.752L398.183 254.904H293.451L298.02 312.55Z" fill="#407BFF"/>
<path opacity="0.8" d="M193.287 312.55H298.019L293.451 254.904H188.719L193.287 312.55Z" fill="#407BFF"/>
<path d="M88.5293 312.55H193.288L188.719 254.904H83.9873L88.5293 312.55Z" fill="#F5F5F5"/>
<path d="M722.206 370.833H616.146V370.222L611.524 311.807H717.611V312.417L722.206 370.833ZM617.368 369.505H720.772L716.309 313.214H612.932L617.368 369.505Z" fill="#E0E0E0"/>
<path d="M512.025 370.17H616.757L612.215 312.551H507.483L512.025 370.17Z" fill="white"/>
<path d="M407.293 370.17H512.025L507.483 312.551H402.751L407.293 370.17Z" fill="white"/>
<path opacity="0.1" d="M302.562 370.17H407.293L402.751 312.551H298.02L302.562 370.17Z" fill="#407BFF"/>
<path d="M197.829 370.17H302.561L298.019 312.551H193.287L197.829 370.17Z" fill="#407BFF"/>
<path d="M93.0979 370.17H197.83L193.288 312.551H88.5293L93.0979 370.17Z" fill="#F5F5F5"/>
<path d="M726.775 428.479H620.688V427.868L616.066 369.452H722.126V370.063L726.775 428.479ZM621.937 427.151H725.34L721.011 370.833H617.421L621.937 427.151Z" fill="#E0E0E0"/>
<path d="M516.594 427.789H621.326L616.757 370.17H512.025L516.594 427.789Z" fill="white"/>
<path d="M411.862 427.789H516.593L512.025 370.17H407.293L411.862 427.789Z" fill="white"/>
<path d="M307.13 427.789H411.862L407.293 370.17H302.562L307.13 427.789Z" fill="white"/>
<path opacity="0.1" d="M202.371 427.789H307.129L302.561 370.17H197.829L202.371 427.789Z" fill="#407BFF"/>
<path d="M97.6397 427.789H202.371L197.829 370.17H93.0977L97.6397 427.789Z" fill="#F5F5F5"/>
<path d="M703.985 140.33H597.925V139.719L593.33 81.3037H699.39V81.941L703.985 140.33ZM599.147 139.003H702.551L698.115 82.6844H594.711L599.147 139.003Z" fill="#E0E0E0"/>
<path d="M599.253 140.33H493.193V139.719L488.598 81.3037H594.658V81.941L599.253 140.33ZM494.415 139.003H597.818L593.515 82.6844H489.926L494.415 139.003Z" fill="#E0E0E0"/>
<path d="M494.521 140.33H388.462V139.719L383.84 81.3037H489.926V81.941L494.521 140.33ZM389.683 139.003H493.087L488.625 82.6844H385.248L389.683 139.003Z" fill="#E0E0E0"/>
<path d="M389.789 140.33H283.729V139.719L279.107 81.3037H385.194V81.941L389.789 140.33ZM284.951 139.003H388.355L383.892 82.6844H280.489L284.951 139.003Z" fill="#E0E0E0"/>
<path d="M285.058 140.33H178.998V139.719L174.376 81.3037H280.462V81.941L285.058 140.33ZM180.22 139.003H283.623L279.161 82.6844H175.757L180.22 139.003Z" fill="#E0E0E0"/>
<path d="M180.325 140.33H74.2389V139.719L69.6172 81.3037H175.677V81.941L180.325 140.33ZM75.4872 139.003H178.891L174.429 82.6844H71.0249L75.4872 139.003Z" fill="#E0E0E0"/>
<path opacity="0.1" d="M603.104 197.285H707.836L703.294 139.64H598.562L603.104 197.285Z" fill="#407BFF"/>
<path d="M603.821 197.949H497.735V197.339L493.113 138.923H599.173V139.534L603.821 197.949ZM498.983 196.622H602.387L597.925 140.33H494.521L498.983 196.622Z" fill="#E0E0E0"/>
<path d="M499.09 197.949H393.003V197.339L388.408 138.923H494.468V139.534L499.09 197.949ZM394.225 196.622H497.629L493.193 140.33H389.789L394.225 196.622Z" fill="#E0E0E0"/>
<path d="M394.304 197.949H288.244V197.339L283.649 138.923H389.709V139.534L394.304 197.949ZM289.466 196.622H392.87L388.434 140.33H285.03L289.466 196.622Z" fill="#E0E0E0"/>
<path d="M289.599 197.949H183.54V197.339L178.944 138.923H285.004V139.534L289.599 197.949ZM184.761 196.622H288.059L283.623 140.33H180.219L184.761 196.622Z" fill="#E0E0E0"/>
<path d="M184.868 197.949H78.808V197.339L74.2129 138.923H180.273V139.534L184.868 197.949ZM80.0299 196.622H183.434L178.998 140.33H75.5676L80.0299 196.622Z" fill="#E0E0E0"/>
<path d="M713.042 255.516H606.982V254.905L602.387 196.489H708.447V197.1L713.042 255.516ZM608.204 254.188H711.607L707.172 197.87H603.768L608.204 254.188Z" fill="#E0E0E0"/>
<path d="M608.363 255.516H502.303V254.905L497.682 196.489H603.768V197.1L608.363 255.516ZM503.525 254.188H606.929L602.467 197.87H499.089L503.525 254.188Z" fill="#E0E0E0"/>
<path d="M503.632 255.516H397.572V254.905L392.95 196.489H499.037V197.1L503.632 255.516ZM398.794 254.188H502.197L497.735 197.87H394.305L398.794 254.188Z" fill="#E0E0E0"/>
<path d="M398.899 255.516H292.839V254.905L288.218 196.489H394.304V197.1L398.899 255.516ZM294.061 254.188H397.465L393.003 197.87H289.599L294.061 254.188Z" fill="#E0E0E0"/>
<path d="M294.168 255.515H188.082V254.984L183.46 196.568H289.52V197.179L294.168 255.515ZM189.33 254.188H292.734L288.272 197.869H184.868L189.33 254.188Z" fill="#E0E0E0"/>
<path d="M189.436 255.515H83.3492V254.984L78.7275 196.568H184.787V197.179L189.436 255.515ZM84.5977 254.188H188.001L183.539 197.869H80.1352L84.5977 254.188Z" fill="#E0E0E0"/>
<path d="M717.664 313.214H611.578V312.603L606.956 254.188H713.043V254.798L717.664 313.214ZM612.826 311.886H716.23L711.768 255.515H608.364L612.826 311.886Z" fill="#E0E0E0"/>
<path d="M612.932 313.214H506.845V312.603L502.25 254.188H608.31V254.798L612.932 313.214ZM508.094 311.886H611.471L607.035 255.515H503.631L508.094 311.886Z" fill="#E0E0E0"/>
<path d="M508.174 313.214H402.114V312.603L397.519 254.188H503.578V254.798L508.174 313.214ZM403.336 311.886H506.739L502.303 255.515H398.9L403.336 311.886Z" fill="#E0E0E0"/>
<path d="M403.442 313.214H297.382V312.603L292.787 254.188H398.847V254.798L403.442 313.214ZM298.604 311.886H402.008L397.572 255.515H294.168L298.604 311.886Z" fill="#E0E0E0"/>
<path d="M298.683 313.214H192.623V312.603L188.028 254.188H294.088V254.798L298.683 313.214ZM193.845 311.886H297.249L292.84 255.515H189.436L193.845 311.886Z" fill="#E0E0E0"/>
<path d="M193.979 313.214H87.9187V312.603L83.2969 254.188H189.383V254.798L193.979 313.214ZM89.1404 311.886H192.438L188.082 255.515H84.6781L89.1404 311.886Z" fill="#E0E0E0"/>
<path d="M722.206 370.833H616.146V370.222L611.524 311.807H717.611V312.417L722.206 370.833ZM617.368 369.505H720.772L716.309 313.214H612.932L617.368 369.505Z" fill="#E0E0E0"/>
<path d="M617.421 370.833H511.361V370.222L506.739 311.807H612.826V312.417L617.421 370.833ZM512.583 369.505H615.987L611.524 313.214H508.12L512.583 369.505Z" fill="#E0E0E0"/>
<path d="M512.742 370.833H406.682V370.222L402.061 311.807H508.147V312.417L512.742 370.833ZM407.904 369.505H511.308L506.846 313.214H403.442L407.904 369.505Z" fill="#E0E0E0"/>
<path d="M408.01 370.833H301.923V370.222L297.302 311.807H403.362V312.417L408.01 370.833ZM303.172 369.505H406.576L402.113 313.214H298.683L303.172 369.505Z" fill="#E0E0E0"/>
<path d="M303.278 370.833H197.192V370.222L192.57 311.807H298.683V312.417L303.278 370.833ZM198.44 369.505H301.844L297.382 313.214H193.978L198.44 369.505Z" fill="#E0E0E0"/>
<path d="M198.547 370.833H92.4603V370.222L87.8652 311.807H193.925V312.417L198.547 370.833ZM93.7088 369.505H197.086L192.65 313.214H89.2465L93.7088 369.505Z" fill="#E0E0E0"/>
<path d="M726.775 428.479H620.688V427.868L616.066 369.452H722.126V370.063L726.775 428.479ZM621.937 427.151H725.34L721.011 370.833H617.421L621.937 427.151Z" fill="#E0E0E0"/>
<path d="M622.016 428.479H515.956V427.868L511.361 369.452H617.421V370.063L622.016 428.479ZM517.178 427.151H620.582L616.146 370.833H512.743L517.178 427.151Z" fill="#E0E0E0"/>
<path d="M517.284 428.479H411.224V427.868L406.629 369.452H512.689V370.063L517.284 428.479ZM412.446 427.151H515.85L511.414 370.833H408.01L412.446 427.151Z" fill="#E0E0E0"/>
<path d="M412.552 428.479H306.493V427.868L301.897 369.452H407.957V370.063L412.552 428.479ZM307.714 427.151H411.118L406.682 370.833H303.279L307.714 427.151Z" fill="#E0E0E0"/>
<path d="M307.82 428.479H201.76V427.868L197.139 369.452H303.225V370.063L307.82 428.479ZM202.982 427.151H306.386L301.923 370.833H198.546L202.982 427.151Z" fill="#E0E0E0"/>
<path d="M203.062 428.479H97.0025V427.868L92.3809 369.452H198.467V370.063L203.062 428.479ZM98.2244 427.151H201.628L197.166 370.833H93.7619L98.2244 427.151Z" fill="#E0E0E0"/>
<path d="M883.806 137.33C889.855 149.583 895.263 162.141 900.009 174.955C904.865 187.959 908.875 201.263 912.014 214.784L913.103 220.094L914.033 225.405L914.485 228.06C914.723 229.572 914.865 231.097 914.91 232.627C914.896 234.065 914.799 235.502 914.617 236.929L914.352 238.973L913.927 240.832C912.868 245.257 911.234 249.524 909.066 253.524C907.207 257 905.085 260.329 902.718 263.481C898.354 269.226 893.473 274.558 888.136 279.413C882.994 284.253 877.488 288.691 871.668 292.689C869.774 293.976 867.448 294.461 865.199 294.038C862.949 293.615 860.958 292.318 859.662 290.432C858.656 288.986 858.118 287.268 858.118 285.507C858.118 283.746 858.656 282.027 859.662 280.581L859.954 280.183C867.311 270.301 873.9 259.871 879.663 248.984C881.971 244.794 883.475 240.21 884.098 235.468V234.512C884.084 234.295 884.039 234.08 883.966 233.875C883.966 233.663 883.806 233.716 883.833 233.61L883.301 231.618L882.159 227.29L880.831 222.909C879.981 219.988 878.919 217.041 877.989 214.093C877.06 211.146 875.944 208.199 874.802 205.251C872.65 199.357 870.313 193.435 867.869 187.567C863.088 175.831 857.829 163.856 852.729 152.518V152.226C850.856 148.05 850.719 143.301 852.347 139.024C853.976 134.746 857.238 131.291 861.415 129.417C865.452 127.628 870.021 127.452 874.184 128.923C878.348 130.394 881.79 133.402 883.806 137.33Z" fill="#FFB27D"/>
<path d="M852.809 282.068L845.903 293.3C845.489 293.97 845.222 294.72 845.121 295.501C845.019 296.281 845.085 297.075 845.313 297.828C845.542 298.582 845.928 299.278 846.447 299.871C846.965 300.463 847.604 300.939 848.32 301.266L859.396 306.311C860.693 306.896 862.163 306.966 863.51 306.508C864.856 306.049 865.978 305.096 866.648 303.841L869.755 298.265L877.485 285.52L869.516 273.2C859.742 273.067 852.809 282.068 852.809 282.068Z" fill="#FFB27D"/>
<path d="M929.013 801.835C928.201 802.127 927.339 802.254 926.477 802.209C925.615 802.163 924.77 801.946 923.993 801.57C923.693 801.293 923.487 800.928 923.406 800.528C923.325 800.127 923.372 799.711 923.542 799.339C923.627 799.028 923.781 798.74 923.992 798.497C924.204 798.253 924.467 798.06 924.764 797.932C927.42 796.631 933.768 799.18 934.034 799.286C934.12 799.326 934.193 799.39 934.245 799.47C934.297 799.55 934.325 799.642 934.326 799.738C934.325 799.826 934.3 799.913 934.253 799.988C934.206 800.063 934.139 800.123 934.06 800.162C932.446 800.909 930.753 801.47 929.013 801.835ZM925.746 798.622C925.551 798.652 925.363 798.715 925.189 798.808C925.013 798.878 924.856 798.985 924.727 799.123C924.599 799.261 924.502 799.425 924.445 799.605C924.206 800.481 924.445 800.747 924.631 800.826C925.693 801.756 929.731 800.826 932.599 799.764C930.428 798.878 928.087 798.488 925.746 798.622Z" fill="#407BFF"/>
<path d="M933.954 800.216H933.715C931.431 799.552 926.544 796.1 926.491 793.79C926.483 793.431 926.601 793.081 926.824 792.8C927.047 792.519 927.361 792.324 927.712 792.25C928.06 792.133 928.429 792.088 928.794 792.12C929.16 792.152 929.515 792.26 929.837 792.436C932.494 793.79 934.22 799.393 934.3 799.632C934.337 799.706 934.356 799.788 934.356 799.871C934.356 799.954 934.337 800.036 934.3 800.11L933.954 800.216ZM928.217 793.073H928.031C927.42 793.286 927.447 793.578 927.447 793.711C927.447 795.038 930.687 797.773 933.051 798.862C932.423 796.652 931.147 794.682 929.386 793.206C929.018 793.015 928.592 792.968 928.191 793.073H928.217Z" fill="#407BFF"/>
<path d="M783.644 811.74C780.987 811.74 778.544 811.368 777.694 810.2C777.481 809.896 777.367 809.535 777.367 809.164C777.367 808.793 777.481 808.432 777.694 808.128C777.855 807.845 778.072 807.597 778.333 807.401C778.593 807.205 778.891 807.064 779.208 806.987C782.581 806.084 789.62 810.093 789.832 810.279C789.918 810.323 789.987 810.393 790.03 810.479C790.073 810.565 790.088 810.662 790.071 810.757C790.061 810.855 790.019 810.947 789.952 811.019C789.885 811.091 789.796 811.139 789.7 811.155C787.702 811.53 785.676 811.726 783.644 811.74ZM780.43 807.81C780.121 807.769 779.808 807.769 779.5 807.81C779.116 807.904 778.784 808.141 778.57 808.474C778.225 809.084 778.358 809.376 778.57 809.536C779.5 810.837 784.6 810.863 788.371 810.332C785.911 808.99 783.214 808.133 780.43 807.81Z" fill="#407BFF"/>
<path d="M789.726 811.182H789.54C787.096 810.093 782.289 805.712 782.634 803.429C782.634 802.898 783.112 802.234 784.44 802.101C784.916 802.047 785.397 802.092 785.855 802.233C786.312 802.375 786.735 802.61 787.096 802.924C789.752 805.022 790.23 810.465 790.23 810.704C790.241 810.785 790.229 810.867 790.196 810.942C790.163 811.017 790.111 811.081 790.044 811.129C789.946 811.178 789.835 811.196 789.726 811.182ZM784.812 802.977H784.52C783.67 802.977 783.617 803.402 783.59 803.508C783.378 804.889 786.645 808.314 789.141 809.801C788.92 807.505 787.992 805.335 786.485 803.588C786.009 803.171 785.391 802.952 784.759 802.977H784.812Z" fill="#407BFF"/>
<path d="M811.957 810.677H791.771L789.752 763.945H809.939L811.957 810.677Z" fill="#FFB27D"/>
<path d="M956.452 794.852L936.717 799.1L916.902 755.581L936.637 751.306L956.452 794.852Z" fill="#FFB27D"/>
<path d="M934.831 797.189L956.983 792.383C957.378 792.301 957.788 792.354 958.148 792.532C958.509 792.71 958.8 793.003 958.976 793.365L966.652 810.067C966.836 810.474 966.927 810.918 966.916 811.366C966.905 811.813 966.793 812.252 966.589 812.65C966.385 813.048 966.093 813.395 965.736 813.665C965.379 813.935 964.966 814.121 964.527 814.209C956.771 815.749 952.893 816.094 943.145 818.218C937.142 819.519 923.622 822.812 915.335 824.591C907.048 826.37 904.179 818.431 907.367 816.97C921.843 810.359 927.899 804.517 931.83 799.1C932.558 798.113 933.628 797.431 934.831 797.189Z" fill="#050B54"/>
<path d="M791.877 808.341H813.923C814.325 808.343 814.713 808.48 815.027 808.731C815.34 808.981 815.56 809.331 815.65 809.722L819.634 827.671C819.735 828.104 819.736 828.554 819.637 828.987C819.538 829.42 819.341 829.825 819.062 830.17C818.783 830.516 818.428 830.793 818.026 830.981C817.623 831.169 817.183 831.263 816.739 831.256C808.77 831.123 797.296 830.672 787.282 830.672C775.595 830.672 765.502 831.309 751.796 831.309C743.509 831.309 741.171 822.918 744.677 822.175C760.481 818.723 773.364 818.351 787.016 809.934C788.456 808.959 790.14 808.407 791.877 808.341Z" fill="#050B54"/>
<path opacity="0.2" d="M789.752 763.945L790.788 788.055H810.975L809.965 763.945H789.752Z" fill="black"/>
<path opacity="0.2" d="M936.664 751.306L916.929 755.581L927.128 778.018L946.89 773.743L936.664 751.306Z" fill="black"/>
<path d="M797.481 297.256C797.481 297.256 820.404 451.526 832.994 509.305C846.753 572.58 916.955 775.468 916.955 775.468L953.078 767.635C953.078 767.635 901.416 577.704 893.554 515.04C885.028 447.039 867.179 297.309 867.179 297.309L797.481 297.256Z" fill="#407BFF"/>
<path d="M908.296 763.387C908.136 763.387 915.016 776.478 915.016 776.478L955.681 767.662L952.255 755.448L908.296 763.387Z" fill="#050B54"/>
<path opacity="0.3" d="M811.984 352.22C838.545 357.531 835.677 456.2 832.489 506.996C824.839 471.096 813.657 401.98 805.928 352.99C807.8 352.051 809.936 351.78 811.984 352.22Z" fill="#0A21A2"/>
<path d="M759.18 297.256C759.18 297.256 756.391 448.181 758.595 509.677C760.88 573.695 783.244 783.328 783.244 783.328H817.456C817.456 783.328 818.704 577.439 820.244 514.563C821.891 446.03 830.179 297.203 830.179 297.203L759.18 297.256Z" fill="#407BFF"/>
<path d="M776.79 769.76C776.657 769.76 778.729 783.965 778.729 783.965H820.351L821.467 771.3L776.79 769.76Z" fill="#050B54"/>
<path d="M588.204 62.6909C624.195 53.6099 663.931 74.613 676.919 109.636C689.908 144.659 671.288 180.372 635.271 189.453C599.253 198.534 559.544 177.531 546.556 142.508C533.567 107.485 552.08 71.7719 588.204 62.6909ZM631.552 179.522C661.859 171.875 677.557 141.791 666.613 112.344C655.67 82.8974 622.229 65.1868 591.923 72.834C561.616 80.4811 545.918 110.565 556.861 140.012C567.805 169.459 601.139 187.063 631.446 179.416L631.552 179.522Z" fill="#050B54"/>
<path opacity="0.2" d="M629.799 174.955C657.556 167.945 671.952 140.437 661.912 113.38C656.738 100.158 646.988 89.2316 634.436 82.5896C621.883 75.9476 607.363 74.0309 593.516 77.1883C565.733 84.1717 551.363 111.707 561.403 138.764C566.577 151.986 576.327 162.912 588.88 169.554C601.432 176.196 615.952 178.112 629.799 174.955Z" fill="#407BFF"/>
<path d="M628.285 188.656C629.454 193.966 630.941 199.064 632.614 204.189C634.288 209.314 636.067 214.412 637.927 219.457C639.786 224.502 641.938 229.547 643.983 234.539C646.639 239.424 646.639 244.974 654.767 248.426C656.019 248.881 657.366 249.015 658.684 248.816C660.002 248.617 661.249 248.09 662.31 247.284C662.655 246.987 662.951 246.637 663.187 246.248C666.958 239.716 662.549 235.309 660.69 230.317C658.379 225.352 656.015 220.439 653.492 215.527C650.969 210.615 648.339 205.756 645.523 200.923C642.708 196.091 639.839 191.285 636.572 186.558C635.815 185.864 634.872 185.404 633.859 185.234C632.845 185.064 631.804 185.192 630.861 185.602C629.082 186.16 628.046 187.487 628.285 188.656Z" fill="#050B54"/>
<path d="M774.134 62.7175C774.533 64.2841 774.134 65.771 772.992 66.0366C771.85 66.3021 770.787 65.24 770.336 63.6468C769.884 62.0537 770.336 60.5933 771.478 60.3278C772.62 60.0622 773.736 61.1243 774.134 62.7175Z" fill="#050B54"/>
<path d="M774.134 65.7441C773.477 71.0426 772.092 76.2251 770.017 81.1447C771.3 81.6539 772.68 81.8727 774.057 81.7855C775.435 81.6982 776.776 81.3071 777.985 80.6402L774.134 65.7441Z" fill="#F29C61"/>
<path d="M777.694 52.4677C777.803 52.4194 777.901 52.3499 777.983 52.2633C778.065 52.1767 778.129 52.0747 778.172 51.9632C778.259 51.7235 778.25 51.4593 778.146 51.2264C778.041 50.9935 777.851 50.8102 777.614 50.7153C776.217 50.1235 774.699 49.8772 773.187 49.9974C771.675 50.1176 770.214 50.6007 768.928 51.4056C768.721 51.5503 768.579 51.7713 768.535 52.0201C768.49 52.2689 768.546 52.5253 768.689 52.7333C768.834 52.9406 769.055 53.0821 769.304 53.1269C769.553 53.1717 769.809 53.1161 770.017 52.9722C771.049 52.3534 772.213 51.9875 773.413 51.9044C774.613 51.8214 775.816 52.0235 776.923 52.4943C777.045 52.5488 777.178 52.5748 777.312 52.5702C777.445 52.5656 777.576 52.5305 777.694 52.4677Z" fill="#050B54"/>
<path d="M826.673 70.3379C828.585 85.6853 829.94 102.201 838.572 114.946C838.572 114.946 838.838 129.975 811.48 132.444C781.439 135.1 792.887 119.168 792.887 119.168C803.883 116.513 804.255 101.909 798.199 90.9427L826.673 70.3379Z" fill="#FFB27D"/>
<path d="M844.044 124.346C845.744 117.602 847.603 109.875 842.477 107.857C836.846 105.653 806.831 105.202 796.897 110.778C786.963 116.354 790.868 129.551 790.868 129.551L844.044 124.346Z" fill="#407BFF"/>
<path d="M873.501 121.77C892.094 127.08 906.437 176.601 906.437 176.601L863.089 197.843C856.998 184.978 851.572 171.808 846.833 158.386C838.28 133.665 854.403 116.3 873.501 121.77Z" fill="#050B54"/>
<path d="M755.542 135.073C750.707 153.66 745.82 197.87 759.26 297.256C805.211 301.929 847.258 304.797 867.259 297.256C868.136 277.474 858.042 197.578 873.581 121.77C861.642 119.468 849.567 117.943 837.43 117.203C822.135 116.313 806.801 116.313 791.506 117.203C784.591 117.877 777.719 118.932 770.921 120.363C767.236 121.127 763.84 122.912 761.121 125.513C758.402 128.114 756.468 131.426 755.542 135.073Z" fill="#050B54"/>
<path opacity="0.3" d="M754.771 137.967C772.593 121.637 778.942 152.306 777.826 166.086C774.771 204.296 752.619 216.828 751.265 217.997C749.06 175.513 751.743 151.323 754.771 137.967Z" fill="black"/>
<path d="M782.581 155.652C778.012 161.653 773.284 167.68 768.583 173.628L754.346 191.471L740.136 209.235C735.434 215.156 730.706 221.051 726.164 226.919L725.128 228.246C723.022 230.956 719.947 232.746 716.549 233.238C711.237 233.955 706.057 234.46 700.878 234.672C695.698 234.885 690.519 234.885 685.393 234.672C680.266 234.46 675.14 234.035 670.093 233.371C664.957 232.77 659.858 231.884 654.82 230.716C653.703 230.44 652.652 229.945 651.727 229.261C650.802 228.576 650.022 227.716 649.432 226.728C648.841 225.741 648.453 224.646 648.288 223.507C648.123 222.369 648.186 221.209 648.472 220.095C648.886 218.451 649.77 216.964 651.015 215.813C652.26 214.663 653.813 213.899 655.484 213.616H655.909L669.801 211.306C674.458 210.527 679.071 209.704 683.639 208.837C688.208 208.013 692.723 207.004 697.159 206.049C701.595 205.093 705.951 203.871 710.254 202.729L700.639 209.049C709.192 195.773 718.036 183.134 727.2 170.707C731.742 164.441 736.444 158.333 741.145 152.12C745.846 145.907 750.601 139.986 755.594 134.038C757.046 132.295 758.828 130.855 760.837 129.801C762.846 128.747 765.043 128.099 767.303 127.895C769.562 127.69 771.84 127.933 774.006 128.608C776.172 129.284 778.183 130.38 779.925 131.834C783.316 134.686 785.482 138.731 785.976 143.133C786.471 147.536 785.255 151.96 782.581 155.492V155.652Z" fill="#FFB27D"/>
<path d="M646.825 211.863L634.341 216.085C633.589 216.337 632.9 216.747 632.319 217.287C631.738 217.827 631.279 218.484 630.972 219.215C630.665 219.947 630.518 220.735 630.54 221.527C630.562 222.32 630.754 223.099 631.101 223.812L636.413 234.725C637.049 235.987 638.139 236.961 639.464 237.454C640.789 237.946 642.252 237.92 643.558 237.38L649.481 234.964L663.585 230.105L665.418 215.607C657.954 209.314 646.825 211.863 646.825 211.863Z" fill="#FFB27D"/>
<path d="M791.798 137.516C799.554 164.228 758.755 201.242 758.755 201.242L722.101 165.37C722.101 165.37 734.186 150.314 742.686 140.384C766.485 112.61 785.582 116.194 791.798 137.516Z" fill="#050B54"/>
<path d="M825.929 45.9894C829.674 65.6649 832.862 77.0029 825.584 89.4295C814.667 108.016 788.398 105.361 778.942 87.1725C770.336 70.8161 765.661 41.3693 782.714 28.7568C786.458 25.978 790.851 24.2031 795.475 23.601C800.1 22.9988 804.801 23.5894 809.132 25.3166C813.464 27.0438 817.281 29.8501 820.221 33.4686C823.161 37.0871 825.126 41.3974 825.929 45.9894Z" fill="#FFB27D"/>
<path d="M786.936 63.8858C776.923 63.1423 777.693 47.9542 783.43 42.6437C768.954 42.0595 750.76 41.4754 755.222 25.6766C758.462 14.1793 788.875 13.8872 774.691 5.92144C788.264 -2.49573 796.339 11.524 789.646 14.6307C810.895 6.34628 835.358 0.451607 826.646 20.8175C841.254 18.4543 851.295 42.6968 843.751 53.132C836.208 63.5671 849.329 65.5055 851.428 60.6464C852.463 74.7989 838.014 74.374 835.942 71.7188C844.654 84.9951 827.071 101.644 809.221 92.6422C791.372 83.6409 786.936 63.8858 786.936 63.8858Z" fill="#050B54"/>
<path d="M820.855 22.1449C832.144 15.7191 834.136 7.64715 829.594 0C848.293 6.42573 836.527 23.3929 820.855 22.1449Z" fill="#050B54"/>
<path d="M795.384 60.6728C796.363 64.7761 795.962 69.088 794.241 72.9401C791.931 77.9851 787.442 76.7371 785.29 72.1701C783.351 68.0544 782.209 60.4604 785.875 56.9289C789.54 53.3974 794.082 55.734 795.384 60.6728Z" fill="#FFB27D"/>
<path d="M222.107 570.987C222.169 571.882 222.004 572.779 221.627 573.593C221.249 574.407 220.671 575.112 219.947 575.643C219.223 576.173 218.376 576.511 217.486 576.626C216.595 576.74 215.69 576.627 214.855 576.298C201.893 570.987 182.849 565.969 176.394 558.853C168.426 550.064 158.518 550.223 151.267 545.895C144.016 541.567 138.996 535.513 144.999 528.928C151.002 522.343 150.869 522.29 150.842 512.439C150.816 502.588 157.562 501.127 166.115 501.579C174.668 502.03 169.86 484.134 182.902 494.25C195.943 504.367 192.809 523.697 200.326 533.548C207.843 543.399 215.785 532.22 219.079 546.691C220.852 554.677 221.866 562.811 222.107 570.987Z" fill="#407BFF"/>
<path d="M202.425 667.506C198.255 651.575 206.648 635.643 198.972 623.615C191.296 611.586 194.642 598.576 191.906 588.273C189.171 577.971 183.752 570.324 174.243 577.068C164.734 583.812 164.708 583.626 153.26 581.901C141.812 580.175 138.013 588.751 135.835 600.063C133.657 611.374 114.427 601.948 122.023 620.88C129.62 639.812 152.994 639.068 162.025 650.672C171.056 662.275 159.369 673.905 176.421 676.614C193.474 679.322 210.739 706.485 202.425 667.506Z" fill="#407BFF"/>
<path d="M227.1 610.471C237.725 597.991 255.681 595.787 261.205 582.617C266.73 569.447 279.32 564.8 286.226 556.702C293.132 548.603 296.346 539.761 285.376 535.778C274.406 531.796 274.566 531.663 269.439 521.281C264.313 510.899 255.123 512.678 244.578 517.351C234.033 522.024 230.819 500.835 219.583 517.829C208.348 534.823 222.24 553.648 217.884 567.695C213.528 581.741 197.219 578.634 204.762 594.247C212.306 609.86 199.769 639.493 227.1 610.471Z" fill="#407BFF"/>
<path d="M198.201 485.382C195.997 472.583 184.921 465.414 186.382 453.519C187.842 441.623 181.308 434.321 179.901 426.01C178.493 417.699 179.901 410.078 188.719 410.078C197.537 410.078 197.564 410.238 205.054 403.812C212.545 397.386 214.882 403.812 220.088 410.61C225.294 417.407 237.99 407.476 238.681 423.886C239.372 440.295 223.701 442.924 221.071 455.005C218.441 467.087 230.58 469.716 219.371 479.434C208.162 489.152 205.001 515.97 198.201 485.382Z" fill="#050B54"/>
<path d="M202.318 769.468C201.715 769.487 201.124 769.3 200.641 768.938C200.158 768.576 199.813 768.061 199.662 767.476C193.155 742.729 197.803 712.858 203.168 678.286C207.471 650.618 212.332 619.233 212.332 584.821C212.332 564.243 209.092 543.718 206.223 525.609C203.301 507.022 200.751 490.905 202.504 479.567C202.556 479.221 202.676 478.889 202.856 478.59C203.036 478.291 203.274 478.03 203.555 477.823C203.837 477.616 204.156 477.466 204.495 477.383C204.835 477.299 205.187 477.283 205.532 477.336C205.878 477.388 206.21 477.508 206.509 477.688C206.808 477.868 207.069 478.106 207.276 478.387C207.484 478.668 207.633 478.987 207.717 479.326C207.801 479.666 207.816 480.018 207.764 480.363C206.117 490.984 208.613 506.597 211.482 524.786C214.351 542.974 217.644 563.818 217.644 584.821C217.644 619.658 212.757 651.203 208.428 679.109C203.115 713.097 198.573 742.464 204.789 766.122C204.967 766.802 204.869 767.524 204.515 768.131C204.162 768.739 203.582 769.181 202.903 769.362C202.715 769.427 202.517 769.463 202.318 769.468Z" fill="#050B54"/>
<path d="M202.823 704.255C205.984 686.305 206.834 670.692 218.362 658.664C229.889 646.636 228.694 632.775 234.033 622.207C239.372 611.639 247.314 604.019 257.195 611.772C267.075 619.525 267.049 619.313 280.861 618.331C294.673 617.348 297.356 626.615 297.568 638.617C297.781 650.619 322.376 642.148 309.494 661.372C296.612 680.596 269.254 678.18 256.185 689.651C243.117 701.122 258.841 717.292 237.991 718.859C217.14 720.425 204.576 710.654 202.823 704.255Z" fill="#050B54"/>
<path d="M146.38 729.905H267.421C277.195 729.905 255.654 831.309 238.416 831.309H175.359C158.147 831.309 136.659 729.905 146.38 729.905Z" fill="#407BFF"/>
<path opacity="0.3" d="M146.38 729.905H267.421C277.195 729.905 255.654 831.309 238.416 831.309H175.359C158.147 831.309 136.659 729.905 146.38 729.905Z" fill="white"/>
</g>
<defs>
<clipPath id="clip0_741_53252">
<rect width="1030" height="861.366" fill="white"/>
</clipPath>
</defs>
</svg>
